SplineFontDB: 3.0
FontName: WireWyrm
FullName: WireWyrm
FamilyName: WireWyrm
Weight: Light
Copyright: Created by James,,, with FontForge 2.0 (http://fontforge.sf.net)
UComments: "2011-11-17: Created." 
Version: 001.000
ItalicAngle: 0
UnderlinePosition: -204
UnderlineWidth: 102
Ascent: 1618
Descent: 430
LayerCount: 2
Layer: 0 0 "Back"  1
Layer: 1 0 "Fore"  0
NeedsXUIDChange: 1
XUID: [1021 701 1124907257 9794733]
FSType: 0
OS2Version: 0
OS2_WeightWidthSlopeOnly: 0
OS2_UseTypoMetrics: 1
CreationTime: 1321514954
ModificationTime: 1323627562
PfmFamily: 17
TTFWeight: 200
TTFWidth: 5
LineGap: 184
VLineGap: 184
OS2TypoAscent: 0
OS2TypoAOffset: 1
OS2TypoDescent: 0
OS2TypoDOffset: 1
OS2TypoLinegap: 184
OS2WinAscent: 0
OS2WinAOffset: 1
OS2WinDescent: 0
OS2WinDOffset: 1
HheadAscent: 0
HheadAOffset: 1
HheadDescent: 0
HheadDOffset: 1
OS2Vendor: 'PfEd'
Lookup: 258 0 0 "'kern' Horizontal Kerning in Latin lookup 0"  {"'kern' Horizontal Kerning in Latin lookup 0-1" [307,30,0] } ['kern' ('DFLT' <'dflt' > 'latn' <'dflt' > ) ]
MarkAttachClasses: 1
DEI: 91125

StartChar: b
Encoding: 98 98 0
Width: 926
VWidth: 0
Flags: W
HStem: -18 36<346.047 573.664> 896 36<408.197 561.529> 1350 36<24.9567 159>
VStem: 159 54<-16.2404 77 136.547 736.412 778 1350> 799 54<282.817 622.558>
LayerCount: 2
Back
SplineSet
95 1368 m 29
 230 1368 l 21
 231 0 l 13
232 643 m 7
 232 787 416.077148438 913.99609375 534.077148438 913.99609375 c 4
 711.077148438 913.99609375 870 721 870 454 c 4
 870 187 705 0 528 0 c 4
 390 0 232 18 232 285 c 4
EndSplineSet
Fore
SplineSet
24 1363 m 0
 24 1377 43 1386 57 1386 c 2
 192 1386 l 2
 204 1386 213 1379 213 1372 c 2
 213 778 l 1
 280 866 400 932 497 932 c 0
 698 932 853 726 853 458 c 0
 853 199 692 -18 477 -18 c 0
 381 -18 276 -7 214 77 c 1
 214 4 l 2
 214 -7.64516129032 193.714880333 -17.0364203954 178.010271559 -17.0364203954 c 0
 168.09157128 -17.0364203954 160 -13.2903225806 160 -4 c 2
 159 1350 l 1
 44 1350 l 2
 32 1350 24 1355 24 1363 c 0
483 896 m 0
 396 896 215 794 215 647 c 0
 215 645 214 644 213 642 c 1
 214 294 l 2
 215 293 215 291 215 289 c 0
 215 28 361 18 490 18 c 0
 594 18 709 100 766 256 c 0
 787 313 799 379 799 450 c 0
 799 716 636 896 483 896 c 0
EndSplineSet
Validated: 1
EndChar

StartChar: c
Encoding: 99 99 1
Width: 818
VWidth: 0
Flags: W
HStem: -18 36<360.607 582.614> 897 36<350.671 570.756>
VStem: 72 54<286.864 625.365>
LayerCount: 2
Back
SplineSet
882 109.200195312 m 5
 798 41.2001953125 726 0 573.5 0 c 4
 396.307617188 0 231.5 187.583984375 231.5 454.200195312 c 4
 231.5 720.81640625 396.307617188 914.400390625 573.5 914.400390625 c 5
 718.357379171 914.161217278 815.733398438 874.16015625 883.733398438 784.16015625 c 5
 883.733398438 784.16015625 827.002929688 726.8203125 790.733398438 690.16015625 c 28
EndSplineSet
Fore
SplineSet
72 450 m 0
 72 708 232 933 447 933 c 0
 600 933 705 888 776 795 c 0
 777 793 778 791 778 789 c 0
 778 785 776 780 773 777 c 2
 680 683 l 2
 671 674 654 670 642 674 c 0
 630 678 628 688 637 697 c 2
 720 781 l 1
 655 862 567 897 434 897 c 0
 331 897 216 811 159 655 c 0
 138 597 126 531 126 459 c 0
 126 194 293 18 447 18 c 0
 590 18 649 52 730 118 c 0
 743 128 776 134 776 113 c 0
 776 109 774 104 769 100 c 0
 682 30 596 -18 434 -18 c 0
 234 -18 72 182 72 450 c 0
EndSplineSet
Validated: 1
EndChar

StartChar: e
Encoding: 101 101 2
Width: 892
VWidth: 0
Flags: W
HStem: -18 36<364.061 585.58> 513 36<136 779> 896 36<360.644 552.383>
VStem: 75 54<286.233 625.938>
LayerCount: 2
Back
SplineSet
107 531 m 29
 807 531 l 21
 803 753 687 912 443 914 c 5
 266 914 102 721 102 454 c 4
 102 187 267 0 444 0 c 4
 596 0 668 41 752 109 c 5
EndSplineSet
Fore
SplineSet
136 549 m 1
 779 549 l 1
 768 757 653 894 436 896 c 0
 430 896 423 896 417 895 c 0
 298 884 167 756 136 549 c 1
131 513 m 1
 129 495 129 477 129 458 c 0
 129 193 297 18 451 18 c 0
 593 18 652 52 733 118 c 0
 743 126 761 129 771 124 c 0
 781 119 781 108 771 100 c 0
 684 30 599 -18 437 -18 c 0
 237 -18 75 181 75 450 c 0
 75 700 215 898 404 928 c 0
 419 930 435 932 450 932 c 0
 713 930 830 760 834 536 c 1
 834 532 l 1
 831 522 815 513 800 513 c 2
 131 513 l 1
EndSplineSet
Validated: 1
EndChar

StartChar: z
Encoding: 122 122 3
Width: 983
VWidth: 0
Flags: W
HStem: -18 36<188 826.35> 895 36<174 802>
VStem: 120 54<767.237 895>
LayerCount: 2
Back
SplineSet
1036 104 m 4
 998.111936573 32.4674905105 947.767578125 0 811.73828125 0 c 6
 260 0 l 13
 956 913 l 29
 260 913 l 29
 259 783 l 29
EndSplineSet
Fore
SplineSet
898 106 m 0
 901.573813663 113.743262937 919.338898547 121.841307654 933.121677682 121.841307654 c 0
 942.478514264 121.841307654 950 118.109109737 950 108 c 0
 950 106 949 104 948 102 c 0
 907 24 838 -18 692 -18 c 2
 140 -18 l 2
 122 -18 115 -5 123 5 c 2
 802 895 l 1
 174 895 l 1
 173 787 l 2
 173 775.35483871 152.714880333 765.963579605 137.010271559 765.963579605 c 0
 127.09157128 765.963579605 119 769.709677419 119 779 c 2
 120 909 l 1
 120 912 l 1
 123 922 138 931 153 931 c 0
 387 931 620 931 854 931 c 1
 868 929 874 918 866 908 c 2
 188 18 l 1
 705 18 l 2
 831 18 864 41 898 106 c 0
EndSplineSet
Validated: 1
EndChar

StartChar: v
Encoding: 118 118 4
Width: 1196
VWidth: 0
Flags: W
HStem: -17 21G<564 576> 896 36<56.9567 189.815 243 352.804 817.195 931 982.601 1113.23>
VStem: 189 54<787.853 896> 931 53<795.281 896>
LayerCount: 2
Back
SplineSet
884 914 m 29
 1128 914 l 29
124 914 m 29
 368 914 l 29
256 914 m 21
 260 722 500 314 616 0 c 5
 768 309 988 746 1000 914 c 13
EndSplineSet
Fore
SplineSet
56 909 m 0
 56 923 75 932 89 932 c 2
 333 932 l 2
 347 932 357 924 353 914 c 0
 349 904 334 896 320 896 c 2
 243 896 l 1
 262 713 463 356 580 63 c 1
 725 357 910 735 931 896 c 1
 836 896 l 2
 822 896 813 904 817 914 c 0
 821 924 835 932 849 932 c 2
 1093 932 l 2
 1105 932 1114 926 1114 918 c 0
 1114 905 1094 896 1080 896 c 2
 984 896 l 1
 957 710 746 295 600 -2 c 0
 595 -10 583 -17 569 -17 c 0
 559 -17 551 -14 549 -8 c 0
 436 298 203 693 189 896 c 1
 76 896 l 2
 64 896 56 901 56 909 c 0
EndSplineSet
Validated: 1
EndChar

StartChar: w
Encoding: 119 119 5
AltUni2: 0002b7.ffffffff.0
Width: 1712
VWidth: 0
Flags: W
HStem: 895.103 35.7939<48.0528 180.302 234.171 343.946 1368.05 1482.19 1532.79 1661.67>
VStem: 179.618 54.5534<763.889 895.103> 845.104 53.8184<678.333 805.739> 1482.19 53.0338<777.169 899.103>
LayerCount: 2
Back
SplineSet
1394 917 m 29
 1638 917 l 29
1510 913 m 21
 1498 745 1328 309 1176 0 c 5
 1060 314 876 597 872 789 c 5
 860 621 668 309 516 0 c 5
 400 314 210 721 206 913 c 13
74 913 m 29
 318 913 l 29
EndSplineSet
Fore
SplineSet
47.8779296875 913 m 0
 51.43359375 922.748046875 66.298828125 930.896484375 80.52734375 930.896484375 c 2
 324.526367188 930.896484375 l 2
 338.754882812 930.896484375 347.676757812 922.748046875 344.12109375 913 c 0
 340.56640625 903.250976562 325.701171875 895.102539062 311.47265625 895.102539062 c 2
 234.170886608 895.102539062 l 1
 250.167611719 711.152298967 409.191989272 357.145078497 521.443359375 63.4150390625 c 1
 667.458007812 351.6953125 834.341796875 634.803710938 845.103515625 785.474609375 c 0
 845.61328125 792.604492188 855.215820312 802.734375 869.528320312 805.891601562 c 0
 884.939453125 809.291015625 898.71484375 803.516601562 898.921875 793.5703125 c 0
 902.572265625 618.395507812 1064.23242188 357.221679688 1180.74707031 64.1240234375 c 1
 1320.40381182 358.846140108 1465.6929998 739.791679522 1482.19095962 899.102539062 c 1
 1387.47363281 899.102539062 l 2
 1373.24511719 899.102539062 1364.32324219 907.251953125 1367.87890625 917 c 0
 1371.43359375 926.748046875 1386.29882812 934.896484375 1400.52734375 934.896484375 c 2
 1644.52636719 934.896484375 l 2
 1658.75488281 934.896484375 1667.67675781 926.748046875 1664.12207031 917 c 0
 1660.56640625 907.251953125 1645.70117188 899.102539062 1631.47265625 899.102539062 c 2
 1535.22473635 899.102539062 l 1
 1513.6438057 716.182359951 1349.23952978 298.874388524 1201.45605469 -1.5537109375 c 0
 1196.41503906 -11.802734375 1179.45117188 -19.3466796875 1165.25976562 -17.65234375 c 0
 1157.42089844 -16.716796875 1151.57128906 -13.0244140625 1149.73046875 -8.0419921875 c 0
 1056.78320312 243.556640625 919.453125 475.95703125 866.578125 659.249023438 c 1
 802.461914062 480.811523438 659.823242188 239.072265625 541.45703125 -1.5537109375 c 0
 536.415039062 -11.802734375 519.452148438 -19.3466796875 505.259765625 -17.65234375 c 0
 497.420898438 -16.716796875 491.572265625 -13.0244140625 489.731445312 -8.0419921875 c 0
 376.384111908 298.77598239 191.54863842 693.549400394 179.617512905 895.102539062 c 1
 67.47265625 895.102539062 l 2
 53.2451171875 895.102539062 44.3232421875 903.251953125 47.8779296875 913 c 0
EndSplineSet
Validated: 1
EndChar

StartChar: x
Encoding: 120 120 6
AltUni2: 0002e3.ffffffff.0
Width: 1173
VWidth: 0
Flags: W
HStem: -18 36<98.9567 228.716 280 394.804 779.195 888 941.645 1075.23> 896 36<98.9567 236.703 289 394.804 779.195 893 939.417 1075.23>
VStem: 227 53<18 101.349> 888 55<18 94.4155 841.978 896>
LayerCount: 2
Back
SplineSet
368 0 m 29
 124 0 l 29
1048 0 m 29
 804 0 l 29
804 914 m 29
 1048 914 l 29
124 914 m 29
 368 914 l 29
256 914 m 20
 258.967773438 771.533203125 916 252.5 916 0 c 4
920 910 m 4
 920 781.5 252 248.5 252 4 c 4
EndSplineSet
Fore
SplineSet
98 909 m 0
 98 923 117 932 131 932 c 2
 375 932 l 2
 389 932 399 924 395 914 c 0
 391 904 376 896 362 896 c 2
 289 896 l 1
 317 825 450 690 589 539 c 1
 737 697 878 837 893 896 c 1
 798 896 l 2
 784 896 775 904 779 914 c 0
 783 924 797 932 811 932 c 2
 1055 932 l 2
 1067 932 1076 926 1076 918 c 0
 1076 905 1056 896 1042 896 c 2
 945 896 l 1
 923 817 774 665 623 503 c 1
 779 332 933 147 943 18 c 1
 1055 18 l 2
 1067 18 1076 12 1076 4 c 0
 1076 -9 1056 -18 1042 -18 c 2
 798 -18 l 2
 784 -18 775 -10 779 0 c 0
 783 10 797 18 811 18 c 2
 888 18 l 1
 871 134 730 300 583 461 c 1
 431 297 288 128 280 18 c 1
 375 18 l 2
 389 18 399 10 395 0 c 0
 391 -10 376 -18 362 -18 c 2
 118 -18 l 2
 106 -18 98 -13 98 -5 c 0
 98 9 117 18 131 18 c 2
 227 18 l 1
 241 144 394 328 550 497 c 1
 398 662 249 815 232 896 c 1
 118 896 l 2
 106 896 98 901 98 909 c 0
EndSplineSet
Validated: 1
EndChar

StartChar: l
Encoding: 108 108 8
AltUni2: 0002e1.ffffffff.0
Width: 435
VWidth: 0
Flags: W
HStem: -18 36<67.1948 195 249 379.233> 1350 36<59.9567 194>
VStem: 195 54<18 1350>
LayerCount: 2
Back
SplineSet
102 0 m 29
 362 0 l 29
95 1368 m 25
 230 1368 l 17
 231 0 l 9
EndSplineSet
Fore
SplineSet
59 1363 m 0
 59 1377 78 1386 92 1386 c 2
 227 1386 l 2
 239 1386 248 1379 248 1372 c 2
 249 18 l 1
 359 18 l 2
 371 18 380 12 380 4 c 0
 380 -9 360 -18 346 -18 c 2
 86 -18 l 2
 72 -18 63 -10 67 0 c 0
 71 10 85 18 99 18 c 2
 195 18 l 1
 194 1350 l 1
 79 1350 l 2
 67 1350 59 1355 59 1363 c 0
EndSplineSet
Validated: 1
EndChar

StartChar: i
Encoding: 105 105 9
Width: 470
VWidth: 0
Flags: W
HStem: -18 36<98.1948 226 280 410.233> 896 36<90.9567 225> 1285 96<238.085 293.915>
VStem: 225 54<18 896>
LayerCount: 2
Back
SplineSet
196 1333.19995117 m 4
 196 1359.69595117 208.544 1381.19995117 224 1381.19995117 c 4
 239.456 1381.19995117 252 1359.69595117 252 1333.19995117 c 4
 252 1306.70395117 239.456 1285.19995117 224 1285.19995117 c 4
 208.544 1285.19995117 196 1306.70395117 196 1333.19995117 c 4
102 0 m 25
 362 0 l 25
95 914 m 25
 230 914 l 17
 231 0 l 9
EndSplineSet
Fore
SplineSet
238 1333 m 0
 238 1359 251 1381 266 1381 c 0
 281 1381 294 1359 294 1333 c 0
 294 1307 281 1285 266 1285 c 0
 251 1285 238 1307 238 1333 c 0
90 909 m 0
 90 923 109 932 123 932 c 2
 258 932 l 2
 270 932 279 925 279 918 c 2
 280 18 l 1
 390 18 l 2
 402 18 411 12 411 4 c 0
 411 -9 391 -18 377 -18 c 2
 117 -18 l 2
 103 -18 94 -10 98 0 c 0
 102 10 116 18 130 18 c 2
 226 18 l 1
 225 896 l 1
 110 896 l 2
 98 896 90 901 90 909 c 0
EndSplineSet
Validated: 1
EndChar

StartChar: r
Encoding: 114 114 10
AltUni2: 0002b3.ffffffff.0
Width: 887
VWidth: 0
Flags: W
HStem: -18 36<100.195 228 282 411.804> 894 36<92.9567 227 476.751 650.115>
VStem: 227 54<18 704.546 759 894> 780 54<612.05 785.193>
LayerCount: 2
Back
SplineSet
234.5 584.049804688 m 31
 234.5 761.125976562 372.423828125 911.049804688 549.5 911.049804688 c 31
 673.696289062 911.049804688 783.5 819.24609375 783.5 695.049804688 c 31
 783.5 656.157226562 771.5 623.049804688 747.5 602.049804688 c 4
102 0 m 29
 362 0 l 29
95 912 m 29
 230 912 l 21
 230.333007812 601.333007812 230.666666667 310.666666667 231 0 c 12
EndSplineSet
Fore
SplineSet
92 907 m 0
 92 921 111 930 125 930 c 2
 260 930 l 2
 272 930 281 923 281 916 c 2
 281 759 l 1
 340 856 448 929 580 929 c 0
 722 929 834 828 834 699 c 0
 834 658 823 622 791 594 c 0
 781 585 764 581 753 586 c 0
 742 591 741 601 751 610 c 0
 767 624 780 654 780 691 c 0
 780 810 674 893 567 893 c 0
 452 893 348 818 305 699 c 0
 297 675 281 601 281 579 c 2
 282 18 l 1
 392 18 l 2
 406 18 416 10 412 0 c 0
 408 -10 393 -18 379 -18 c 2
 119 -18 l 2
 105 -18 96 -10 100 0 c 0
 104 10 118 18 132 18 c 2
 228 18 l 1
 227 894 l 1
 112 894 l 2
 100 894 92 899 92 907 c 0
EndSplineSet
Validated: 1
EndChar

StartChar: n
Encoding: 110 110 11
Width: 1094
VWidth: 0
Flags: W
HStem: -18 36<100.196 221 275 396.804 735.196 860 914 1032.23> 896 36<85.9567 220 462.67 662.36>
VStem: 220 54<18 737.489 783 896> 860 54<18 706.508>
LayerCount: 2
Back
SplineSet
762.5 0.0009765625 m 29
 1006.5 0.0009765625 l 29
127.5 0.0009765625 m 29
 371.5 0.0009765625 l 29
113 914 m 29
 248 914 l 21
 249 0 l 13
250 643 m 7
 250 787 412.5 913.9921875 562.077148438 913.99609375 c 4
 728.5 914 887.5 821.599609375 887.5 554.599609375 c 6
 888.5 0 l 5
EndSplineSet
Fore
SplineSet
85 909 m 0
 85 923 104 932 118 932 c 2
 253 932 l 2
 265 932 274 925 274 918 c 2
 274 783 l 1
 338 869 453 932 568 932 c 0
 751 932 913 830 913 559 c 2
 914 18 l 1
 1012 18 l 2
 1024 18 1033 12 1033 4 c 0
 1033 -9 1013 -18 999 -18 c 2
 755 -18 l 2
 741 -18 731 -10 735 0 c 0
 739 10 754 18 768 18 c 2
 860 18 l 1
 859 550 l 2
 859 813 704 896 554 896 c 0
 449 896 327 820 288 713 c 0
 280 692 276 669 276 647 c 0
 276 645 275 643 274 641 c 1
 275 18 l 1
 377 18 l 2
 391 18 401 10 397 0 c 0
 393 -10 378 -18 364 -18 c 2
 120 -18 l 2
 106 -18 96 -10 100 0 c 0
 104 10 119 18 133 18 c 2
 221 18 l 1
 220 896 l 1
 105 896 l 2
 93 896 85 901 85 909 c 0
EndSplineSet
Validated: 1
EndChar

StartChar: o
Encoding: 111 111 12
Width: 963
VWidth: 0
Flags: W
HStem: -18 36<394.126 574.766> 896 36<379.987 560.238>
VStem: 70 54<297.503 618.393> 836 54<293.145 612.072>
LayerCount: 2
Back
SplineSet
474.419921875 0 m 4
 283.051757812 0 94.259765625 187.583984375 94.259765625 454.200195312 c 4
 94.259765625 720.81640625 282.916992188 914 474.28515625 914 c 5
 665.65234375 914 859.98046875 720.81640625 859.98046875 454.200195312 c 4
 859.98046875 187.583984375 665.788085938 0 474.419921875 0 c 4
EndSplineSet
Fore
SplineSet
890 459 m 0
 890 190 691 -18 471 -18 c 0
 258 -18 70 181 70 450 c 0
 70 719 261 932 483 932 c 0
 696 932 890 728 890 459 c 0
484 18 m 0
 607 18 745 112 806 279 c 0
 825 330 836 388 836 450 c 0
 836 714 640 896 470 896 c 0
 349 896 215 801 154 635 c 0
 135 582 124 523 124 459 c 0
 124 195 314 18 484 18 c 0
EndSplineSet
Validated: 1
EndChar

StartChar: s
Encoding: 115 115 13
AltUni2: 0002e2.ffffffff.0 00017f.ffffffff.0
Width: 791
VWidth: 0
Flags: W
HStem: -18 36<352.991 547.49> 896 36<312.968 500.407>
VStem: 158 54<622.794 807.877> 670 54<113.905 311.381>
LayerCount: 2
Back
SplineSet
278 221 m 29
 130 89 l 29
625.946289062 689.999023438 m 29
 728 789.200195312 l 21
 670.290525983 856.82372394 581.878999693 914 464 914 c 7
 343.316350425 914 244 836.493343302 244 705.200012207 c 7
 244 568.556713388 394.725154524 513.371893844 496 477.200012207 c 4
 611.379512908 435.99042986 755.665261113 374.073031911 755.665261113 215.377332174 c 7
 755.665261113 82.4305015311 639.392934547 0 508 0 c 7
 375.740314309 0 269.241965597 76.1035667204 208 157.200012207 c 4
EndSplineSet
Fore
SplineSet
158 701 m 0
 158 833 259 932 411 932 c 0
 541 932 634 870 693 801 c 0
 697 796 696 788 690 782 c 2
 588 683 l 2
 579 674 561 670 550 674 c 0
 539 678 537 688 546 697 c 2
 637 786 l 1
 581 848 499 896 398 896 c 0
 294 896 212 833 212 710 c 0
 212 583 352 529 454 493 c 0
 570 451 724 387 724 220 c 0
 724 68 585 -18 442 -18 c 0
 308 -18 205 50 141 125 c 1
 91 81 l 2
 80 71 44 64 44 84 c 0
 44 88 46 93 51 97 c 2
 199 229 l 2
 209 238 226 241 237 237 c 0
 248 233 249 222 239 213 c 2
 180 160 l 1
 241 84 341 18 455 18 c 0
 564 18 670 85 670 211 c 0
 670 362 534 420 420 461 c 0
 319 497 158 555 158 701 c 0
EndSplineSet
Validated: 1
EndChar

StartChar: m
Encoding: 109 109 14
Width: 1734
VWidth: 0
Flags: W
HStem: -18 36<100.196 221 275 396.804 735.196 860 914 1031.8 1375.2 1500 1554 1672.23> 896 36<85.9567 220 462.67 660.934 1098.33 1302.36>
VStem: 220 54<18 737.489 783 896> 860 54<18 723.177> 1500 54<18 706.508>
CounterMasks: 1 38
LayerCount: 2
Back
SplineSet
1384.5 0.0009765625 m 29
 1628.5 0.0009765625 l 29
871 0 m 13
869.5 604.599609375 m 7
 869.5 809.195597385 1034.5 913.9921875 1184.07714844 913.99609375 c 4
 1350.5 914 1509.5 821.599609375 1509.5 554.599609375 c 6
 1510.5 0 l 5
744.5 0.0009765625 m 29
 988.5 0.0009765625 l 29
109.5 0.0009765625 m 29
 353.5 0.0009765625 l 29
95 914 m 29
 230 914 l 21
 231 0 l 13
232 643 m 7
 232 787 394.49999999 913.9925829 544.077148438 913.99609375 c 4
 710.5 914 869.161601323 809.195317532 869.5 604.599609375 c 6
 870.5 0 l 5
EndSplineSet
Fore
SplineSet
85 909 m 0
 85 923 104 932 118 932 c 2
 253 932 l 2
 265 932 274 925 274 918 c 2
 274 783 l 1
 338 869 453 932 568 932 c 0
 708 932 836 865 888 739 c 1
 945 862 1079 932 1208 932 c 0
 1391 932 1553 830 1553 559 c 2
 1554 18 l 1
 1652 18 l 2
 1664 18 1673 12 1673 4 c 0
 1673 -9 1653 -18 1639 -18 c 2
 1395 -18 l 2
 1381 -18 1371 -10 1375 0 c 0
 1379 10 1394 18 1408 18 c 2
 1500 18 l 1
 1499 550 l 2
 1499 813 1344 896 1194 896 c 0
 1092 896 976 841 931 717 c 0
 920 685 913 649 913 609 c 2
 914 18 l 1
 1012 18 l 2
 1026 18 1036 10 1032 0 c 0
 1028 -10 1013 -18 999 -18 c 2
 755 -18 l 2
 741 -18 731 -10 735 0 c 0
 739 10 754 18 768 18 c 2
 860 18 l 1
 859 600 l 2
 859 799 704 896 554 896 c 0
 449 896 327 820 288 713 c 0
 280 692 276 669 276 647 c 0
 276 645 275 643 274 641 c 1
 275 18 l 1
 377 18 l 2
 391 18 401 10 397 0 c 0
 393 -10 378 -18 364 -18 c 2
 120 -18 l 2
 106 -18 96 -10 100 0 c 0
 104 10 119 18 133 18 c 2
 221 18 l 1
 220 896 l 1
 105 896 l 2
 93 896 85 901 85 909 c 0
EndSplineSet
Validated: 1
EndChar

StartChar: f
Encoding: 102 102 15
Width: 686
VWidth: 0
Flags: W
HStem: -18 36<95.1948 223 277 406.804> 896 36<89.9567 224 278 529.804> 1350 36<375.945 508.58>
VStem: 224 54<18 896 932 1248.64> 612 54<1201.16 1274.15>
LayerCount: 2
Back
SplineSet
97 914 m 29
 485 914 l 29
102 0 m 29
 362 0 l 29
231 0 m 21
 232 1133.20019531 l 6
 232.10590384 1253.2104472 307.21484375 1368 426 1368 c 31
 521.829101562 1368 620 1289.64257812 620 1217.20019531 c 4
EndSplineSet
Fore
SplineSet
438 1350 m 0
 350 1350 278 1254 278 1138 c 2
 278 932 l 1
 510 932 l 2
 524 932 534 924 530 914 c 0
 526 904 511 896 497 896 c 2
 278 896 l 1
 277 18 l 1
 387 18 l 2
 401 18 411 10 407 0 c 0
 403 -10 388 -18 374 -18 c 2
 114 -18 l 2
 100 -18 91 -10 95 0 c 0
 99 10 113 18 127 18 c 2
 223 18 l 1
 224 896 l 1
 109 896 l 2
 97 896 89 901 89 909 c 0
 89 923 108 932 122 932 c 2
 224 932 l 1
 224 1129 l 2
 224 1164 230 1198 242 1230 c 0
 271 1310 341 1386 451 1386 c 0
 563 1386 666 1302 666 1222 c 0
 666 1209.6830144 645.519401861 1200.02092114 629.784128826 1200.02092114 c 0
 619.968875879 1200.02092114 612 1203.78038272 612 1213 c 0
 612 1278 517 1350 438 1350 c 0
EndSplineSet
Validated: 1
EndChar

StartChar: y
Encoding: 121 121 16
AltUni2: 0002b8.ffffffff.0
Width: 1190
VWidth: 0
Flags: W
HStem: -424 36<164.195 303.412 348 459.804> 896 36<53.9567 186.812 240 349.804 814.195 928 979.493 1110.23>
VStem: 186 54<793.982 896> 928 53<798.041 896>
LayerCount: 2
Back
SplineSet
234 -406 m 29
 478 -406 l 29
884 914 m 29
 1128 914 l 29
124 914 m 29
 368 914 l 29
256 914 m 21
 259.976100159 723.147192382 495.567382812 387.762695312 612.333984375 74.533203125 c 5
1000 914 m 20
 985.987035983 717.818503764 744 307.200195312 615.333007812 70 c 4
 522.295898438 -97.2060546875 404 -298.799804688 358 -406.799804688 c 13
EndSplineSet
Fore
SplineSet
53 909 m 0
 53 923 72 932 86 932 c 2
 330 932 l 2
 344 932 354 924 350 914 c 0
 346 904 331 896 317 896 c 2
 240 896 l 1
 260 717 460 417 577 128 c 1
 706 363 906 715 928 896 c 1
 833 896 l 2
 819 896 810 904 814 914 c 0
 818 924 832 932 846 932 c 2
 1090 932 l 2
 1102 932 1111 926 1111 918 c 0
 1111 905 1091 896 1077 896 c 2
 981 896 l 1
 952 687 720 297 596 68 c 1
 508 -90 398 -278 348 -388 c 1
 440 -388 l 2
 454 -388 464 -396 460 -406 c 0
 456 -416 441 -424 427 -424 c 2
 315 -424 l 1
 312 -425 309 -425 306 -425 c 0
 304 -425 302 -424 300 -424 c 2
 183 -424 l 2
 169 -424 160 -416 164 -406 c 0
 168 -396 182 -388 196 -388 c 2
 296 -388 l 1
 346 -277 455 -91 542 66 c 1
 428 371 200 697 186 896 c 1
 73 896 l 2
 61 896 53 901 53 909 c 0
EndSplineSet
Validated: 1
EndChar

StartChar: p
Encoding: 112 112 17
Width: 1048
VWidth: 0
Flags: W
HStem: -425 36<64.1948 192 246 375.804> -18 36<482.117 659.933> 896 36<56.9567 191 456.316 646.177>
VStem: 191 54<-389 172 248.064 713.78 762 896> 921 54<292.945 612.072>
LayerCount: 2
Back
SplineSet
241.25 586.799804688 m 3
 241.25 792.416992188 421.6178255 914 584.28515625 914 c 1
 775.65234375 914 969.98046875 720.81640625 969.98046875 454.200195312 c 0
 969.98046875 187.583984375 775.788085938 0 584.419921875 0 c 0
 418.888772129 0 239.25 164.3515625 239.25 374.799804688 c 3
112 -406.799804688 m 29
 372 -406.799804688 l 29
105 914.200195312 m 25
 240 914.200195312 l 21
 240.333007812 474.8671875 240.666682276 32.5332629109 241 -406.799804688 c 12
EndSplineSet
Fore
SplineSet
56 909 m 0
 56 923 75 932 89 932 c 2
 224 932 l 2
 236 932 245 926 245 919 c 2
 245 762 l 1
 315 868 444 932 569 932 c 0
 782 932 975 728 975 459 c 0
 975 189 777 -18 556 -18 c 0
 433 -18 312 59 245 172 c 1
 246 -389 l 1
 356 -389 l 2
 370 -389 380 -397 376 -407 c 0
 372 -417 357 -425 343 -425 c 2
 83 -425 l 2
 69 -425 60 -417 64 -407 c 0
 68 -397 82 -389 96 -389 c 2
 192 -389 l 1
 191 -85 191 216 191 519 c 0
 191 644 191 770 191 896 c 1
 76 896 l 2
 64 896 56 901 56 909 c 0
556 896 m 0
 414 896 246 786 246 591 c 0
 246 589 246 588 245 586 c 1
 245 350 l 1
 261 158 431 18 569 18 c 0
 692 18 830 112 891 279 c 0
 910 330 921 388 921 450 c 0
 921 714 726 896 556 896 c 0
EndSplineSet
Validated: 1
EndChar

StartChar: h
Encoding: 104 104 18
AltUni2: 0002b0.ffffffff.0
Width: 1057
VWidth: 0
Flags: W
HStem: -18 36<66.1955 187 241 362.804 701.196 826 880 998.233> 896 36<428.67 628.36> 1350 36<51.9567 186>
VStem: 186 54<18 737.489 783 1350> 826 54<18 706.508>
LayerCount: 2
Back
SplineSet
744.5 0.0009765625 m 29
 988.5 0.0009765625 l 29
109.5 0.0009765625 m 29
 353.5 0.0009765625 l 29
95 1368 m 29
 230 1368 l 21
 231 0 l 13
232 643 m 7
 232 787 394.49999999 913.9925829 544.077148438 913.99609375 c 4
 710.5 914 869.5 821.599609375 869.5 554.599609375 c 6
 870.5 0 l 5
EndSplineSet
Fore
SplineSet
51 1363 m 0
 51 1377 70 1386 84 1386 c 2
 219 1386 l 2
 231 1386 240 1379 240 1372 c 2
 240 783 l 1
 304 868 419 932 534 932 c 0
 717 932 879 830 879 559 c 2
 880 18 l 1
 978 18 l 2
 990 18 999 12 999 4 c 0
 999 -9 979 -18 965 -18 c 2
 721 -18 l 2
 707 -18 697 -10 701 0 c 0
 705 10 720 18 734 18 c 2
 826 18 l 1
 825 550 l 2
 825 813 670 896 520 896 c 0
 415 896 293 820 254 713 c 0
 246 692 242 669 242 647 c 0
 242 645 241 644 240 642 c 1
 241 18 l 1
 343 18 l 2
 357 18 367 10 363 0 c 0
 359 -10 344 -18 330 -18 c 2
 86 -18 l 2
 72 -18 62 -10 66 0 c 0
 70 10 85 18 99 18 c 2
 187 18 l 1
 186 1350 l 1
 71 1350 l 2
 59 1350 51 1355 51 1363 c 0
EndSplineSet
Validated: 1
EndChar

StartChar: j
Encoding: 106 106 19
AltUni2: 0002b2.ffffffff.0
Width: 406
VWidth: 0
Flags: W
HStem: -424 33<24.3804 75.0235> 896 36<68.1948 202> 1285 96<180.085 235.915>
VStem: 180 56<1285.02 1380.98> 203 54<-242.375 896>
LayerCount: 2
Back
SplineSet
95 914 m 29
 230 914 l 21
 231 0 l 6
 232.299094047 -143.939604498 228 -348 52 -405.799804688 c 4
EndSplineSet
Fore
SplineSet
180 1333 m 0xf0
 180 1359 193 1381 208 1381 c 0
 223 1381 236 1359 236 1333 c 0
 236 1307 223 1285 208 1285 c 0
 193 1285 180 1307 180 1333 c 0xf0
46 -424 m 0
 35 -424 24 -419 24 -410 c 0
 24 -403 32 -395 44 -391 c 0
 186 -345 203 -165 203 -18 c 2
 203 -4 l 1
 202 896 l 1
 87 896 l 2
 73 896 64 904 68 914 c 0
 72 924 86 932 100 932 c 2
 235 932 l 2
 247 932 256 925 256 918 c 2
 257 4 l 1
 257 -35 l 2xe8
 257 -172 245 -361 58 -422 c 0
 54 -423 50 -424 46 -424 c 0
EndSplineSet
Validated: 1
EndChar

StartChar: k
Encoding: 107 107 20
Width: 964
VWidth: 0
Flags: W
HStem: -18 36<76.1955 204 258 387.804 605.196 715 769.675 918.233> 896 36<485.196 615 656.455 797.804> 1350 36<68.9567 203>
VStem: 204 53<18 525 597 1350>
LayerCount: 2
Back
SplineSet
511.5 914 m 29
 771.5 914 l 29
663.5 914 m 5
 575.693560811 838.068343153 404.1796875 623.3046875 283.420898438 537.599609375 c 5
234.5 584.049804688 m 5
 333.5 490.200195312 765.5 0 765.5 0 c 29
631.5 0 m 29
 891.5 0 l 29
231 0 m 12
102 0 m 29
 362 0 l 29
95 1368 m 29
 230 1368 l 21
 231 0 l 13
EndSplineSet
Fore
SplineSet
68 1363 m 0
 68 1377 87 1386 102 1386 c 2
 237 1386 l 2
 249 1386 257 1379 257 1372 c 2
 257 597 l 1
 258 597 l 1
 266 589 277 578 289 565 c 1
 391 647 526 810 615 896 c 1
 505 896 l 2
 491 896 481 904 485 914 c 0
 489 924 504 932 518 932 c 2
 778 932 l 2
 792 932 802 924 798 914 c 0
 794 904 779 896 765 896 c 2
 673 896 l 1
 589 819 435 630 315 538 c 1
 456 390 741 67 784 18 c 1
 898 18 l 2
 910 18 919 12 919 4 c 0
 919 -9 899 -18 885 -18 c 2
 625 -18 l 2
 611 -18 601 -10 605 -0 c 0
 609 10 624 18 638 18 c 2
 715 18 l 1
 633 111 379 398 258 525 c 1
 258 18 l 1
 369 18 l 2
 383 18 392 10 388 -0 c 0
 384 -10 369 -18 355 -18 c 2
 95 -18 l 2
 81 -18 72 -10 76 0 c 0
 80 10 95 18 109 18 c 2
 204 18 l 1
 203 1350 l 1
 88 1350 l 2
 76 1350 68 1355 68 1363 c 0
EndSplineSet
Validated: 1
EndChar

StartChar: a
Encoding: 97 97 21
Width: 989
VWidth: 0
Flags: W
HStem: -18 36<286.387 592.678 798 928.043> 517 36<331.209 533.028> 890 36<311.407 501.968>
VStem: 73 54<112 319.633> 744 54<18 60 87.6044 351.024 412 677.721>
LayerCount: 2
Back
SplineSet
724 244 m 7
 724 412.611740209 559.256239612 535.156895036 390.232650758 535.156895036 c 7
 189.137648135 535.156895036 52 374.501007689 52 188.1796875 c 31
 52 32.513671875 245.600585938 0 404 0 c 15
 534.520507812 0 646.200195312 39.7607421875 723 101.200195312 c 4
854 0 m 29
 723 0 l 21
 722 555.200195312 l 14
 721.642578125 753.38671875 554.787109375 908.360351562 356.599609375 908.360351562 c 23
 248.434570312 908.360351562 120.502929688 829.823242188 78 745.200195312 c 5
EndSplineSet
Fore
SplineSet
929 5 m 0
 929 -9 910 -18 895 -18 c 2
 764 -18 l 2
 752 -18 744 -11 744 -4 c 2
 744 60 l 1
 664 12 560 -18 445 -18 c 0
 283 -18 73 16 73 184 c 0
 73 369 210 553 445 553 c 0
 566 553 678 498 743 412 c 1
 743 551 l 2
 743 745 578 890 398 890 c 0
 308 890 190 822 151 744 c 0
 146 734 131 726 117 727 c 0
 103 728 96 737 101 747 c 0
 147 838 284 926 411 926 c 0
 628 926 797 763 797 560 c 2
 798 18 l 1
 909 18 l 2
 921 18 929 13 929 5 c 0
432 517 m 0
 252 517 127 373 127 193 c 0
 127 49 304 18 459 18 c 0
 577 18 674 52 744 104 c 1
 744 267 l 1
 727 415 576 517 432 517 c 0
EndSplineSet
Validated: 1
EndChar

StartChar: d
Encoding: 100 100 22
Width: 1011
VWidth: 0
Flags: W
HStem: -18 36<386.479 636.595 825 955.233> 895 36<381.821 564.173> 1350 36<636.195 770>
VStem: 69 54<294.215 615.204> 771 54<18 40 66.7826 697.237 771 1350>
LayerCount: 2
Back
SplineSet
902 0 m 29
 771 0 l 21
 770 1368 l 13
 635 1368 l 29
771 67 m 5
 684 39 604 0 447 0 c 7
 256 0 69 184 69 451 c 4
 69 718 261 913 452 913 c 15
 629 913 767 763 767 586 c 28
EndSplineSet
Fore
SplineSet
956 4 m 4
 956 -9 936 -18 922 -18 c 6
 791 -18 l 6
 779 -18 771 -11 771 -4 c 6
 771 40 l 5
 696 14 609 -18 467 -18 c 4
 255 -18 69 177 69 447 c 4
 69 717 264 931 485 931 c 4
 611 931 713 865 770 771 c 5
 770 1350 l 5
 655 1350 l 6
 641 1350 632 1358 636 1368 c 4
 640 1378 654 1386 668 1386 c 6
 803 1386 l 6
 814 1386 824 1380 824 1372 c 6
 825 72 l 6
 825 54 825 36 825 18 c 5
 935 18 l 6
 947 18 956 12 956 4 c 4
771 574 m 5
 769 576 767 579 767 582 c 4
 767 756 629 895 472 895 c 4
 351 895 214 799 153 631 c 4
 134 578 123 518 123 455 c 4
 123 191 310 18 480 18 c 4
 619 18 689 48 771 76 c 5
 771 574 l 5
EndSplineSet
Validated: 1
EndChar

StartChar: q
Encoding: 113 113 23
Width: 1059
VWidth: 0
Flags: W
HStem: -426 36<645.196 772 826 952.804> -18 36<387.335 637.543> 895 36<382.655 565.119 826 978.233>
VStem: 70 54<294.847 615.715> 771 55<-390 40 66.7826 697.237 771 895>
LayerCount: 2
Back
SplineSet
771.129882812 67.2001953125 m 1
 683.91796875 39.3759765625 604.237304688 0 447.129882812 0 c 3
 255.76171875 0 69.1298828125 184.583984375 69.1298828125 451.200195312 c 0
 69.1298828125 717.81640625 260.26171875 913.049804688 451.629882812 913.049804688 c 11
 628.706054688 913.049804688 766.629882812 763.125976562 766.629882812 586.049804688 c 24
899.129882812 -408 m 1
 643.565429688 -408.104492188 l 1
771 -408 m 1
 770 913 l 9
 924 913 l 25
EndSplineSet
Fore
SplineSet
979 917 m 0
 979 904 959 895 945 895 c 2
 826 895 l 1
 826 -390 l 1
 933 -390 l 2
 947 -390 957 -398 953 -408 c 0
 949 -418 934 -426 920 -426 c 2
 665 -426 l 2
 651 -426 641 -418 645 -408 c 0
 649 -398 664 -390 678 -390 c 2
 772 -390 l 1
 772 40 l 1
 698 14 610 -18 468 -18 c 0
 255 -18 70 178 70 447 c 0
 70 717 264 931 486 931 c 0
 612 931 714 865 771 771 c 1
 771 909 l 2
 771 921 790 931 804 931 c 2
 958 931 l 2
 970 931 979 925 979 917 c 0
771 76 m 1
 771 574 l 1
 769 576 767 579 767 582 c 0
 767 756 630 895 473 895 c 0
 352 895 215 800 154 632 c 0
 135 579 124 520 124 456 c 0
 124 192 311 18 481 18 c 0
 620 18 689 48 771 76 c 1
EndSplineSet
Validated: 1
EndChar

StartChar: g
Encoding: 103 103 24
Width: 1056
VWidth: 0
Flags: W
HStem: -425 36<398.895 621.507> -18 36<387.335 638.102> 895 36<382.655 565.119 825 978.233>
VStem: 70 54<294.847 615.715> 149 54<-245.809 -126.158> 769 54<-242.224 39 66.0761 704.312 772 895>
LayerCount: 2
Back
SplineSet
771.129882812 67.2001953125 m 5
 683.91796875 39.3759765625 604.237304688 0 447.129882812 0 c 7
 255.76171875 0 69.1298828125 184.583984375 69.1298828125 451.200195312 c 4
 69.1298828125 717.81640625 260.26171875 913.049804688 451.629882812 913.049804688 c 15
 628.706054688 913.049804688 766.629882812 763.125976562 766.629882812 586.049804688 c 28
  Spiro
    771.13 67.2002 {
    683.373 37.4415 o
    581.46 11.2185 o
    447.13 0 o
    264.245 57.6182 o
    124.499 215.927 o
    69.1299 451.2 o
    125.664 689.23 o
    267.581 852.675 o
    451.63 913.05 o
    611.857 867.709 o
    724.394 749.383 o
    766.63 586.05 o
    0 0 z
  EndSpiro
924 913 m 29
 770 913 l 21
 768 -78.7998046875 l 6
 767.604792715 -274.783058555 690.928465037 -406.7995574 487 -406.799804688 c 4
 336 -406.799987793 148 -332.001953125 148 -142.799804688 c 4
  Spiro
    924 913 {
    770 913 v
    768 -78.7998 ]
    740.347 -250.795 o
    650.274 -365.395 o
    487 -406.8 o
    332.151 -380.455 o
    202.233 -295.217 o
    148 -142.8 o
    0 0 z
  EndSpiro
EndSplineSet
Fore
SplineSet
979 917 m 0
 979 904 959 895 945 895 c 2
 825 895 l 1
 823 79 l 1
 824 78 825 77 825 76 c 0
 827 72 826 67 823 63 c 1
 823 -74 l 2
 823 -287 730 -425 508 -425 c 0
 345 -425 149 -344 149 -147 c 0
 149 -134.683014396 169.480598139 -125.020921144 185.215871174 -125.020921144 c 0
 195.031124121 -125.020921144 203 -128.780382725 203 -138 c 0
 203 -319 382 -389 521 -389 c 0
 701 -389 769 -268 769 -83 c 2
 769 39 l 1
 695 13 608 -18 468 -18 c 0
 255 -18 70 178 70 447 c 0
 70 717 264 931 486 931 c 0
 612 931 714 866 771 772 c 1
 771 819 771 865 771 912 c 1
 774 922 789 931 804 931 c 2
 958 931 l 2
 970 931 979 925 979 917 c 0
769 75 m 1
 770 575 l 1
 768 577 767 579 767 582 c 0
 767 756 630 895 473 895 c 0
 352 895 215 800 154 632 c 0
 135 579 124 520 124 456 c 0
 124 192 311 18 481 18 c 0
 618 18 688 48 769 75 c 1
EndSplineSet
Validated: 1
EndChar

StartChar: t
Encoding: 116 116 25
Width: 625
VWidth: 0
Flags: W
HStem: -18 36<314.789 453.57> 896 36<54.9567 206 260 462.804>
VStem: 206 54<61.3795 896 932 1118.9>
LayerCount: 2
Back
SplineSet
76 914 m 29
 432 914 l 29
228 1101.20019531 m 29
 228 144.200195312 l 22
 228 64.099609375 274.889287491 -0.788589798857 364 0 c 15
 452.869140625 0 548 61.200012207 564 109.200195312 c 4
EndSplineSet
Fore
SplineSet
54 909 m 0
 54 923 73 932 87 932 c 2
 206 932 l 1
 206 1097 l 2
 206 1106 218 1117 233 1119 c 0
 235 1119 237 1119 239 1119 c 0
 251 1119 260 1114 260 1106 c 2
 260 932 l 1
 443 932 l 2
 457 932 467 924 463 914 c 0
 459 904 444 896 430 896 c 2
 260 896 l 1
 260 149 l 2
 260 72 305 18 373 18 c 2
 375 18 l 2
 448 18 530 71 543 109 c 0
 546 119 561 127 575 127 c 0
 587 127 596 122 596 114 c 0
 596 113 595 111 595 110 c 0
 576 52 468 -18 363 -18 c 2
 361 -18 l 2
 253 -18 206 59 206 140 c 2
 206 896 l 1
 74 896 l 2
 62 896 54 901 54 909 c 0
EndSplineSet
Validated: 1
EndChar

StartChar: u
Encoding: 117 117 26
Width: 1121
VWidth: 0
Flags: W
HStem: -18 36<448.132 702.637 887 1016.5> 896 36<57.9567 192 698.195 832 886 1019.04>
VStem: 192 54<203.252 896> 833 54<19 39 66.0761 896>
LayerCount: 2
Back
SplineSet
901.129882812 4 m 5
 768 0 l 5
 767 914 l 5
632 914 m 21
 901.129882812 914 l 5
-8 914 m 29
 127 914 l 21
 127.129882812 331.200195312 l 6
 127.170898438 148.17578125 255.76171875 0 447.129882812 0 c 7
 604.237304688 0 683.91796875 39.3759765625 771.129882812 67.2001953125 c 5
EndSplineSet
Fore
SplineSet
57 909 m 0
 57 923 76 932 90 932 c 2
 225 932 l 2
 237 932 246 925 246 918 c 2
 246 336 l 2
 246 156 374 18 546 18 c 0
 683 18 752 48 833 75 c 1
 832 896 l 1
 717 896 l 2
 703 896 694 904 698 914 c 0
 702 924 716 932 730 932 c 2
 1000 932 l 2
 1012 932 1020 927 1020 919 c 0
 1020 905 1001 896 987 896 c 2
 886 896 l 1
 887 79 l 1
 891 75 891 68 887 63 c 1
 887 19 l 1
 998 22 l 2
 1010 22 1020 16 1020 8 c 0
 1020 7 1019 6 1019 5 c 0
 1016 -5 1002 -14 988 -14 c 2
 855 -18 l 2
 843 -18 833 -12 833 -4 c 2
 833 39 l 1
 759 13 673 -18 533 -18 c 0
 322 -18 192 141 192 327 c 2
 192 896 l 1
 77 896 l 2
 65 896 57 901 57 909 c 0
EndSplineSet
Validated: 1
EndChar

StartChar: degree
Encoding: 176 176 27
AltUni2: 00030a.ffffffff.0
Width: 641
VWidth: 0
Flags: W
HStem: 979 36<293.442 387.496> 1203 36<284.927 378.775>
VStem: 197 54<1046.32 1179.15> 421 54<1037.91 1172.33>
LayerCount: 2
Back
SplineSet
251.280273438 1199.79980469 m 4
 251.280273438 1321.29492188 348.37109375 1419.90039062 468 1419.90039062 c 4
 587.62890625 1419.90039062 684.719726562 1321.29492188 684.719726562 1199.79980469 c 4
 684.719726562 1078.3046875 587.62890625 979.700195312 468 979.700195312 c 4
 348.37109375 979.700195312 251.280273438 1078.3046875 251.280273438 1199.79980469 c 4
EndSplineSet
Fore
SplineSet
475 1114 m 0
 475 1038 411 979 329 979 c 0
 248 979 197 1039 197 1105 c 0
 197 1181 262 1239 343 1239 c 0
 424 1239 475 1180 475 1114 c 0
329 1203 m 0
 293 1203 251 1168 251 1114 c 0
 251 1056 301 1015 343 1015 c 0
 380 1015 421 1050 421 1105 c 0
 421 1163 372 1203 329 1203 c 0
EndSplineSet
Validated: 1
EndChar

StartChar: A
Encoding: 65 65 28
Width: 1403
VWidth: 0
Flags: W
HStem: -18 36<47.9567 196 248 399.804 983.195 1127 1185 1335.23> 453 36<411 964> 1350 36<517.195 657>
LayerCount: 2
Back
SplineSet
910.513671875 471.166992188 m 25
 290 471 l 25
1220 0 m 21
 1120 0 1020 0 920 0 c 5
1073 0 m 29
 600 1368 l 21
285 0 m 21
 185 -0 85 0 -15 0 c 5
127 0 m 13
 600 1368 l 21
 500 1368 554 1368 454 1368 c 13
EndSplineSet
Fore
SplineSet
687 1288 m 1
 411 489 l 1
 964 489 l 1
 687 1288 l 1
1336 4 m 0
 1336 -9 1316 -18 1302 -18 c 2
 1002 -18 l 2
 988 -18 979 -10 983 0 c 0
 987 10 1001 18 1015 18 c 2
 1127 18 l 1
 976 453 l 1
 399 453 l 1
 248 18 l 1
 380 18 l 2
 394 18 404 10 400 0 c 0
 396 -10 381 -18 367 -18 c 2
 67 -18 l 2
 55 -18 47 -13 47 -5 c 0
 47 9 66 18 80 18 c 2
 196 18 l 1
 657 1350 l 1
 536 1350 l 2
 522 1350 513 1358 517 1368 c 0
 521 1378 535 1386 549 1386 c 2
 695 1386 l 2
 697 1386 699 1385 701 1385 c 0
 708 1384 713 1381 715 1376 c 2
 1025 481 l 2
 1026 479 1026 478 1026 476 c 2
 1185 18 l 1
 1315 18 l 2
 1327 18 1336 12 1336 4 c 0
EndSplineSet
Validated: 1
EndChar

StartChar: I
Encoding: 73 73 29
Width: 522
VWidth: 0
Flags: W
HStem: -18 36<74.9567 220 274 427.233> 1350 36<74.9567 219 273 427.233>
VStem: 220 54<18 1350>
LayerCount: 2
Back
SplineSet
383 1368 m 21
 283 1368 183 1368 83 1368 c 13
382 0 m 29
 82 0 l 21
228 0 m 13
 228 1368 l 29
EndSplineSet
Fore
SplineSet
428 4 m 0
 428 -9 408 -18 394 -18 c 2
 94 -18 l 2
 82 -18 74 -13 74 -5 c 0
 74 9 93 18 107 18 c 2
 220 18 l 1
 219 1350 l 1
 94 1350 l 2
 82 1350 74 1355 74 1363 c 0
 74 1377 93 1386 107 1386 c 2
 407 1386 l 2
 419 1386 428 1380 428 1372 c 0
 428 1359 408 1350 394 1350 c 2
 273 1350 l 1
 274 18 l 1
 407 18 l 2
 419 18 428 12 428 4 c 0
EndSplineSet
Validated: 1
EndChar

StartChar: B
Encoding: 66 66 30
Width: 1032
VWidth: 0
Flags: W
HStem: -18 36<72.9567 218 272 649.276> 688 36<272 555.852> 1350 36<74.1948 218 272 625.385>
VStem: 218 54<18 688 724 1350> 864 54<911.882 1174.65> 930 54<229.377 486.473>
LayerCount: 2
Back
SplineSet
420 705 m 5
 748 681 940 589.237304688 940 373 c 7
 940 111 740 0 472 0 c 13
 82 0 l 21
83 1368 m 21
 183 1368 323 1368 423 1368 c 5
 690 1368 874 1301.26833136 874 1038 c 7
 874 813.191115585 692 739 420 705 c 5
 229 706 l 13
228 0 m 13
 228 1368 l 29
EndSplineSet
Fore
SplineSet
72 -5 m 0
 72 9 91 18 105 18 c 2
 218 18 l 1
 218 1350 l 1
 93 1350 l 2
 79 1350 70 1358 74 1368 c 0
 78 1378 92 1386 106 1386 c 2
 446 1386 l 2
 722 1386 918 1312 918 1042 c 0
 918 841 774 754 569 710 c 1
 829 672 984 573 984 377 c 0
 984 95 756 -18 482 -18 c 2
 92 -18 l 2
 80 -18 72 -13 72 -5 c 0
441 723 m 1
 702 756 864 816 864 1034 c 0
 864 1290 691 1350 433 1350 c 2
 272 1350 l 1
 272 724 l 1
 441 723 l 1
495 18 m 2
 747 18 930 115 930 369 c 0
 930 576 751 663 429 687 c 1
 272 688 l 1
 272 18 l 1
 495 18 l 2
EndSplineSet
Validated: 1
EndChar

StartChar: D
Encoding: 68 68 31
Width: 1238
VWidth: 0
Flags: W
HStem: -18 36<74.9567 220 274 685.205> 1350 36<74.9567 219 273 681.847>
VStem: 220 54<18 1350> 1133 54<519.553 908.412>
LayerCount: 2
Back
SplineSet
82 1368 m 21
 542 1368 l 14
 883.2421875 1368 1141 1071.44238281 1141 730.200195312 c 28
 1141 361.86328125 910.336914062 0 542 0 c 22
 82 0 l 5
228 0 m 13
 227 1368 l 29
EndSplineSet
Fore
SplineSet
74 1363 m 0
 74 1377 93 1386 107 1386 c 2
 567 1386 l 2
 929 1386 1187 1079 1187 735 c 0
 1187 630 1168 525 1133 428 c 0
 1044 185 843 -18 554 -18 c 2
 94 -18 l 2
 82 -18 74 -13 74 -5 c 0
 74 9 93 18 107 18 c 2
 220 18 l 1
 219 1350 l 1
 94 1350 l 2
 82 1350 74 1355 74 1363 c 0
567 18 m 2
 894 18 1133 342 1133 726 c 0
 1133 1064 875 1350 554 1350 c 2
 273 1350 l 1
 274 18 l 1
 567 18 l 2
EndSplineSet
Validated: 1
EndChar

StartChar: E
Encoding: 69 69 32
Width: 1134
VWidth: 0
Flags: W
HStem: -18 36<72.9567 218 272 886> 711 36<272 798.804> 1350 36<74.1948 218 272 932>
VStem: 218 54<18 711 747 1350> 932 54<1217.91 1350>
LayerCount: 2
Back
SplineSet
756 729 m 29
 225 729 l 29
1056 214 m 21
 882 0 l 13
 82 0 l 21
83 1368 m 21
 183 1368 842 1368 942 1368 c 13
 942 1234 l 29
228 0 m 13
 228 1368 l 29
EndSplineSet
Fore
SplineSet
218 717 m 1
 214 721 214 729 218 733 c 1
 218 1350 l 1
 93 1350 l 2
 79 1350 70 1358 74 1368 c 0
 78 1378 92 1386 106 1386 c 2
 965 1386 l 2
 977 1386 986 1379 986 1372 c 2
 986 1238 l 2
 986 1226.35483871 965.714880333 1216.9635796 950.010271559 1216.9635796 c 0
 940.09157128 1216.9635796 932 1220.70967742 932 1230 c 2
 932 1350 l 1
 272 1350 l 1
 272 747 l 1
 779 747 l 2
 793 747 803 739 799 729 c 0
 795 719 780 711 766 711 c 2
 272 711 l 1
 272 18 l 1
 886 18 l 1
 1050 219 l 2
 1059 229 1100 242 1100 218 c 0
 1100 215 1099 212 1096 209 c 2
 922 -5 l 2
 916 -13 903 -18 892 -18 c 2
 92 -18 l 2
 80 -18 72 -13 72 -5 c 0
 72 9 91 18 105 18 c 2
 218 18 l 1
 218 717 l 1
EndSplineSet
Validated: 1
EndChar

StartChar: H
Encoding: 72 72 33
Width: 1343
VWidth: 0
Flags: W
HStem: -18 36<72.9567 218 272 424.804 896.195 1041 1095 1248.23> 711 36<272 1040> 1350 36<74.1948 218 272 425.804 896.195 1040 1094 1248.23>
VStem: 218 54<18 711 747 1350> 1040 54<18 711 747 1350>
LayerCount: 2
Back
SplineSet
1049 729 m 29
 225 729 l 29
1205 1368 m 21
 1105 1368 1005 1368 905 1368 c 13
1205 0 m 29
 905 0 l 21
1051 0 m 13
 1050 1368 l 29
383 1368 m 21
 283 1368 183 1368 83 1368 c 13
382 0 m 29
 82 0 l 21
228 0 m 13
 228 1368 l 29
EndSplineSet
Fore
SplineSet
1249 4 m 0
 1249 -9 1229 -18 1215 -18 c 2
 915 -18 l 2
 901 -18 892 -10 896 0 c 0
 900 10 914 18 928 18 c 2
 1041 18 l 1
 1040 711 l 1
 272 711 l 1
 272 18 l 1
 405 18 l 2
 419 18 429 10 425 0 c 0
 421 -10 406 -18 392 -18 c 2
 92 -18 l 2
 80 -18 72 -13 72 -5 c 0
 72 9 91 18 105 18 c 2
 218 18 l 1
 218 717 l 1
 214 721 214 729 218 733 c 1
 218 1350 l 1
 93 1350 l 2
 79 1350 70 1358 74 1368 c 0
 78 1378 92 1386 106 1386 c 2
 406 1386 l 2
 420 1386 430 1378 426 1368 c 0
 422 1358 407 1350 393 1350 c 2
 272 1350 l 1
 272 747 l 1
 1040 747 l 1
 1040 1350 l 1
 915 1350 l 2
 901 1350 892 1358 896 1368 c 0
 900 1378 914 1386 928 1386 c 2
 1228 1386 l 2
 1240 1386 1249 1380 1249 1372 c 0
 1249 1359 1229 1350 1215 1350 c 2
 1094 1350 l 1
 1095 18 l 1
 1228 18 l 2
 1240 18 1249 12 1249 4 c 0
EndSplineSet
Validated: 1
EndChar

StartChar: K
Encoding: 75 75 34
Width: 1241
VWidth: 0
Flags: W
HStem: -18 36<73.6887 219 273 426.233 813.195 951 1011 1165.23> 1350 36<74.1948 219 274 425.804 783.195 923 976 1134.8>
VStem: 219 54<18 651.421 680 1350>
LayerCount: 2
Back
SplineSet
1091.25195312 1368 m 21
 991.251953125 1368 891.251953125 1368 791.251953125 1368 c 13
1120.50488281 0 m 29
 820.504882812 0 l 21
502.625976562 786.3515625 m 5
 604.256835938 676.376953125 723.240234375 535.905273438 760.625976562 462.3515625 c 6
 970.504882812 0 l 6
947.251953125 1371.72363281 m 5
 595.625976562 870.3515625 l 6
 528.424050049 774.530516073 343.625976562 675.351287842 229.625976562 657.3515625 c 4
382 0 m 29
 82 0 l 21
228 0 m 13
 229 1368 l 29
382 1368 m 21
 282 1368 182 1368 82 1368 c 13
382 0 m 29
 82 0 l 21
228 0 m 13
 228 1368 l 29
EndSplineSet
Fore
SplineSet
73 -4 m 0
 73 9 92 18 106 18 c 2
 219 18 l 1
 219 1350 l 1
 93 1350 l 2
 79 1350 70 1358 74 1368 c 0
 78 1378 92 1386 106 1386 c 2
 406 1386 l 2
 420 1386 430 1378 426 1368 c 0
 422 1358 407 1350 393 1350 c 2
 274 1350 l 1
 273 680 l 1
 338 696 426 736 495 785 c 1
 499 794 508 799 519 803 c 1
 549 826 573 850 590 874 c 2
 923 1350 l 1
 802 1350 l 2
 788 1350 779 1358 783 1368 c 0
 787 1378 801 1386 815 1386 c 2
 954 1386 l 1
 959 1388 965 1389 971 1389 c 0
 973 1389 975 1389 977 1389 c 0
 981 1388 984 1388 986 1386 c 1
 1115 1386 l 2
 1129 1386 1139 1378 1135 1368 c 0
 1131 1358 1116 1350 1102 1350 c 2
 976 1350 l 1
 638 866 l 2
 619 838 590 810 557 784 c 1
 657 676 768 545 805 471 c 1
 1011 18 l 1
 1145 18 l 2
 1157 18 1166 12 1166 4 c 0
 1166 -9 1146 -18 1132 -18 c 2
 832 -18 l 2
 818 -18 809 -10 813 0 c 0
 817 10 831 18 845 18 c 2
 951 18 l 1
 753 453 l 1
 720 520 613 648 516 754 c 1
 440 703 348 662 273 645 c 1
 273 18 l 1
 406 18 l 2
 418 18 427 12 427 4 c 0
 427 -9 407 -18 393 -18 c 2
 93 -18 l 2
 81 -18 73 -12 73 -4 c 0
EndSplineSet
Validated: 1
EndChar

StartChar: F
Encoding: 70 70 35
Width: 1087
VWidth: 0
Flags: W
HStem: -18 36<72.9567 218 272 421.804> 711 36<272 798.804> 1350 36<74.1948 218 272 932>
VStem: 218 54<18 711 747 1350> 932 54<1217.91 1350>
LayerCount: 2
Back
SplineSet
756 729 m 29
 225 729 l 29
379 0 m 13
 82 0 l 21
83 1368 m 21
 183 1368 842 1368 942 1368 c 13
 942 1234 l 29
228 0 m 13
 228 1368 l 29
EndSplineSet
Fore
SplineSet
218 717 m 1
 214 721 214 729 218 733 c 1
 218 1350 l 1
 93 1350 l 2
 79 1350 70 1358 74 1368 c 0
 78 1378 92 1386 106 1386 c 2
 965 1386 l 2
 977 1386 986 1379 986 1372 c 2
 986 1238 l 2
 986 1226.35483871 965.714880333 1216.9635796 950.010271559 1216.9635796 c 0
 940.09157128 1216.9635796 932 1220.70967742 932 1230 c 2
 932 1350 l 1
 272 1350 l 1
 272 747 l 1
 779 747 l 2
 793 747 803 739 799 729 c 0
 795 719 780 711 766 711 c 2
 272 711 l 1
 272 18 l 1
 402 18 l 2
 416 18 426 10 422 0 c 0
 418 -10 403 -18 389 -18 c 2
 92 -18 l 2
 80 -18 72 -13 72 -5 c 0
 72 9 91 18 105 18 c 2
 218 18 l 1
 218 717 l 1
EndSplineSet
Validated: 1
EndChar

StartChar: L
Encoding: 76 76 36
Width: 1134
VWidth: 0
Flags: W
HStem: -18 36<72.9567 218 272 886> 1350 36<74.1948 218 272 413.804>
VStem: 218 54<18 1350>
LayerCount: 2
Back
SplineSet
1056 214 m 21
 882 0 l 13
 82 0 l 21
83 1368 m 17
 183 1368 271 1368 371 1368 c 9
228 0 m 13
 228 1368 l 25
EndSplineSet
Fore
SplineSet
72 -5 m 0
 72 9 91 18 105 18 c 2
 218 18 l 1
 218 1350 l 1
 93 1350 l 2
 79 1350 70 1358 74 1368 c 0
 78 1378 92 1386 106 1386 c 2
 394 1386 l 2
 408 1386 418 1378 414 1368 c 0
 410 1358 395 1350 381 1350 c 2
 272 1350 l 1
 272 18 l 1
 886 18 l 1
 1050 219 l 2
 1059 229 1100 242 1100 218 c 0
 1100 215 1099 212 1096 209 c 2
 922 -5 l 2
 916 -13 903 -18 892 -18 c 2
 92 -18 l 2
 80 -18 72 -13 72 -5 c 0
EndSplineSet
Validated: 1
EndChar

StartChar: O
Encoding: 79 79 37
Width: 1261
VWidth: 0
Flags: W
HStem: -18 36<488.642 789.663> 1351 36<475.728 783.47>
VStem: 60 54<400.756 964> 1154 54<392.25 959.751>
LayerCount: 2
Back
SplineSet
709 1369 m 7
 562 1369 386 1329 282 1193 c 4
 191 1074 162 872 162 681 c 7
 162 480 190 284 290 165 c 4
 393 42 569 0 709 0 c 7
 849 0 1025 42 1128 165 c 4
 1228 284 1256 480 1256 681 c 7
 1256 872 1227 1074 1136 1193 c 4
 1032 1329 856 1369 709 1369 c 7
EndSplineSet
Fore
SplineSet
627 1351 m 0
 486 1351 326 1314 230 1188 c 0
 144 1076 114 875 114 685 c 0
 114 485 142 291 239 176 c 1
 338 57 507 18 640 18 c 0
 773 18 935 58 1030 171 c 0
 1124 283 1154 477 1154 677 c 0
 1154 867 1124 1067 1036 1182 c 0
 936 1313 767 1351 627 1351 c 0
640 1387 m 0
 794 1387 978 1345 1086 1204 c 0
 1180 1081 1208 877 1208 685 c 0
 1208 483 1182 285 1076 159 c 0
 965 26 774 -18 627 -18 c 0
 480 -18 298 27 191 154 c 0
 88 277 60 475 60 677 c 0
 60 869 87 1072 183 1198 c 0
 295 1344 487 1387 640 1387 c 0
EndSplineSet
Validated: 1
EndChar

StartChar: Q
Encoding: 81 81 38
Width: 1273
VWidth: 0
Flags: W
HStem: -154 36<886.032 1055.87> -18 36<500.195 689.775> 1351 36<474.728 782.47>
VStem: 59 54<400.756 964> 1153 54<392.25 959.751>
LayerCount: 2
Back
SplineSet
1259 -32 m 4
 1191 -104 1121.00976562 -136 1019 -136 c 31
 886.977539062 -136 841.022460938 0 709 0 c 31
 583.83984375 0 505.08984375 -31.58203125 413 -124 c 13
709 1369 m 7
 562 1369 386 1329 282 1193 c 4
 191 1074 162 872 162 681 c 7
 162 480 190 284 290 165 c 4
 393 42 569 0 709 0 c 7
 849 0 1025 42 1128 165 c 4
 1228 284 1256 480 1256 681 c 7
 1256 872 1227 1074 1136 1193 c 4
 1032 1329 856 1369 709 1369 c 7
EndSplineSet
Fore
SplineSet
626 1351 m 0
 485 1351 325 1314 229 1188 c 0
 143 1076 113 875 113 685 c 0
 113 485 141 291 238 176 c 1
 337 57 506 18 639 18 c 0
 772 18 934 58 1029 171 c 0
 1123 283 1153 477 1153 677 c 0
 1153 867 1123 1067 1035 1182 c 0
 935 1313 766 1351 626 1351 c 0
639 1387 m 0
 793 1387 977 1345 1085 1204 c 0
 1179 1081 1207 877 1207 685 c 0
 1207 483 1181 285 1075 159 c 0
 993 61 867 11 748 -8 c 1
 826 -47 871 -118 949 -118 c 0
 1040 -118 1097 -93 1161 -25 c 0
 1172 -14 1210 -5 1210 -28 c 0
 1210 -32 1209 -35 1205 -39 c 0
 1133 -115 1049 -154 936 -154 c 0
 780 -154 734 -18 626 -18 c 0
 510 -18 446 -43 358 -131 c 0
 349 -140 333 -144 321 -140 c 0
 309 -136 307 -126 316 -117 c 0
 371 -62 425 -26 486 -5 c 1
 375 16 264 65 190 154 c 0
 87 277 59 475 59 677 c 0
 59 869 86 1072 182 1198 c 0
 294 1344 486 1387 639 1387 c 0
EndSplineSet
Validated: 1
EndChar

StartChar: R
Encoding: 82 82 39
Width: 1153
VWidth: 0
Flags: W
HStem: -18 36<69.9567 215 269 421.804 738.196 878 937 1091.23> 643 36<269 557.67> 1350 36<73.1955 215 269 634.621>
VStem: 215 54<18 644 680 1350> 871 54<911.527 1169.74>
LayerCount: 2
Back
SplineSet
1050.50488281 0 m 29
 750.504882812 0 l 21
490.504882812 661.200195312 m 4
 640.504882812 655.200195312 681.62890625 518.7421875 744.504882812 382.200195312 c 6
 900.504882812 0 l 6
85.1630859375 1368 m 21
 183.671875 1368 379.997070312 1368 478.504882812 1368 c 5
 752.3671875 1368 883.763671875 1240.39746094 883.763671875 1036.10839844 c 23
 883.763671875 860.671875 736.484375 660.420898438 490.504882812 661.200195312 c 6
 228.985351562 662.028320312 l 12
382 0 m 29
 82 0 l 21
228 0 m 13
 228 1368 l 29
EndSplineSet
Fore
SplineSet
269 1350 m 1
 269 680 l 1
 510 679 l 1
 512 679 l 2
 710 679 871 823 871 1032 c 0
 871 1232 745 1350 486 1350 c 2
 269 1350 l 1
1092 4 m 0
 1092 -9 1072 -18 1058 -18 c 2
 758 -18 l 2
 744 -18 734 -10 738 0 c 0
 742 10 757 18 771 18 c 2
 878 18 l 1
 732 374 l 1
 668 514 624 638 496 643 c 1
 269 644 l 1
 269 18 l 1
 402 18 l 2
 416 18 426 10 422 0 c 0
 418 -10 403 -18 389 -18 c 2
 89 -18 l 2
 77 -18 69 -13 69 -5 c 0
 69 9 88 18 102 18 c 2
 215 18 l 1
 215 1350 l 1
 93 1350 l 2
 79 1350 69 1358 73 1368 c 0
 77 1378 92 1386 106 1386 c 2
 499 1386 l 2
 788 1386 925 1249 925 1040 c 0
 925 999 916 956 901 915 c 0
 859 802 759 692 608 656 c 1
 703 608 736 495 784 391 c 1
 937 18 l 1
 1071 18 l 2
 1083 18 1092 12 1092 4 c 0
EndSplineSet
Validated: 1
EndChar

StartChar: T
Encoding: 84 84 40
Width: 1195
VWidth: 0
Flags: W
HStem: -18 36<428.195 563 617 779.804> 1350 36<134 563 617 1045>
VStem: 80 54<1051.91 1350> 563 54<18 1350> 1045 54<1051.91 1350>
LayerCount: 2
Back
SplineSet
154 1068 m 21
 154 1168 154 1268 154 1368 c 5
 475.257641046 1368 820.346214069 1368 1119 1368 c 5
 1119 1268 1119 1168 1119 1068 c 13
801 0 m 29
 501 0 l 21
637 0 m 13
 637 1368 l 29
EndSplineSet
Fore
SplineSet
780 0 m 0
 776 -10 761 -18 747 -18 c 2
 447 -18 l 2
 433 -18 424 -10 428 0 c 0
 432 10 446 18 460 18 c 2
 563 18 l 1
 563 1350 l 1
 134 1350 l 1
 134 1072 l 2
 134 1060.35483871 113.714880333 1050.9635796 98.0102715585 1050.9635796 c 0
 88.0915712799 1050.9635796 80 1054.70967742 80 1064 c 2
 80 1364 l 2
 80 1376 99 1386 113 1386 c 2
 1078 1386 l 2
 1090 1386 1099 1379 1099 1372 c 2
 1099 1072 l 2
 1099 1060.35483871 1078.71488033 1050.9635796 1063.01027156 1050.9635796 c 0
 1053.09157128 1050.9635796 1045 1054.70967742 1045 1064 c 2
 1045 1350 l 1
 617 1350 l 1
 617 18 l 1
 760 18 l 2
 774 18 784 10 780 0 c 0
EndSplineSet
Validated: 1
EndChar

StartChar: U
Encoding: 85 85 41
Width: 1446
VWidth: 0
Flags: W
HStem: -18 36<576.84 863.834> 1350 36<58.9567 203 257 410.804 1019.19 1163 1217 1371.23>
VStem: 203 54<329.25 1350> 1163 54<317.658 1350>
LayerCount: 2
Back
SplineSet
1339 1368 m 21
 1239 1368 1139 1368 1039 1368 c 13
379 1368 m 21
 279 1368 179 1368 79 1368 c 13
224 1368 m 29
 224 1051.46972656 224 872.913085938 224 556.3828125 c 23
 224 393.170898438 252 233.856445312 352 137.227539062 c 4
 455 37.3515625 569 0 709 0 c 7
 849 0 953 30.8564453125 1056 130.732421875 c 4
 1156 227.360351562 1184 378.862304688 1184 549.723632812 c 31
 1184 868.8515625 1184 1048.87207031 1184 1368 c 29
EndSplineSet
Fore
SplineSet
58 1363 m 0
 58 1377 77 1386 91 1386 c 2
 391 1386 l 2
 405 1386 415 1378 411 1368 c 0
 407 1358 392 1350 378 1350 c 2
 257 1350 l 1
 257 561 l 2
 257 399 285 242 381 150 c 0
 482 52 589 18 721 18 c 0
 854 18 944 44 1041 138 c 0
 1133 227 1163 375 1163 545 c 2
 1163 1350 l 1
 1038 1350 l 2
 1024 1350 1015 1358 1019 1368 c 0
 1023 1378 1037 1386 1051 1386 c 2
 1351 1386 l 2
 1363 1386 1372 1380 1372 1372 c 0
 1372 1359 1352 1350 1338 1350 c 2
 1217 1350 l 1
 1217 554 l 2
 1217 383 1191 227 1083 123 c 0
 974 17 855 -18 708 -18 c 0
 560 -18 440 23 335 125 c 0
 231 226 203 388 203 552 c 2
 203 1350 l 1
 78 1350 l 2
 66 1350 58 1355 58 1363 c 0
EndSplineSet
Validated: 1
EndChar

StartChar: P
Encoding: 80 80 42
Width: 1009
VWidth: 0
Flags: W
HStem: -18 36<72.9567 218 272 424.804> 472 35<295.05 561.134> 1350 36<74.1948 218 272 567.693>
VStem: 218 54<18 489 523.485 1350> 904 54<811.714 1093.66>
LayerCount: 2
Back
SplineSet
83 1368 m 21
 183 1368 313 1368 413 1368 c 5
 691.010513306 1368 914 1214.79394531 914 963.723632812 c 31
 914 644.724609375 595.010513306 408.72303772 229 516.72265625 c 13
382 0 m 29
 82 0 l 21
228 0 m 13
 228 1368 l 29
EndSplineSet
Fore
SplineSet
432 507 m 0
 691 507 904 698 904 959 c 0
 904 1204 687 1350 423 1350 c 2
 272 1350 l 1
 272 530 l 1
 327 515 381 507 432 507 c 0
958 968 m 0
 958 676 706 472 417 472 c 0
 370 472 321 478 272 489 c 1
 272 18 l 1
 405 18 l 2
 419 18 429 10 425 0 c 0
 421 -10 406 -18 392 -18 c 2
 92 -18 l 2
 80 -18 72 -13 72 -5 c 0
 72 9 91 18 105 18 c 2
 218 18 l 1
 218 1350 l 1
 93 1350 l 2
 79 1350 70 1358 74 1368 c 0
 78 1378 92 1386 106 1386 c 2
 436 1386 l 2
 728 1386 958 1225 958 968 c 0
EndSplineSet
Validated: 1
EndChar

StartChar: C
Encoding: 67 67 43
Width: 1127
VWidth: 0
Flags: W
HStem: -18 36<488.642 792.364> 1351 36<475.728 771.796>
VStem: 60 54<400.756 964> 1002 54<1013.16 1227.86 1269 1345.84>
LayerCount: 2
Back
SplineSet
1104 1329.20019531 m 21
 1104 1229.20019531 1104 1129.20019531 1104 1029.20019531 c 5
1104 1213.20019531 m 4
 988 1325.40039062 856 1369 709 1369 c 7
 562 1369 386 1329 282 1193 c 4
 191 1074 162 872 162 681 c 7
 162 480 190 284 290 165 c 4
 393 42 569 0 709 0 c 7
 849 0 986.864257812 32.013671875 1108 137.200195312 c 4
EndSplineSet
Fore
SplineSet
1002 1325 m 2
 1002 1337.3169856 1022.48059814 1346.97907886 1038.21587117 1346.97907886 c 0
 1048.03112412 1346.97907886 1056 1343.21961728 1056 1334 c 2
 1056 1034 l 2
 1056 1021.6830144 1035.51940186 1012.02092114 1019.78412883 1012.02092114 c 0
 1009.96887588 1012.02092114 1002 1015.78038272 1002 1025 c 2
 1002 1204 l 1
 889 1311 764 1351 627 1351 c 0
 486 1351 326 1314 230 1188 c 0
 144 1076 114 875 114 685 c 0
 114 485 142 291 239 176 c 1
 338 57 507 18 640 18 c 0
 774 18 899 47 1013 146 c 0
 1024 156 1060 162 1060 142 c 0
 1060 138 1058 133 1053 129 c 0
 924 17 773 -18 627 -18 c 0
 480 -18 298 27 191 154 c 0
 88 277 60 475 60 677 c 0
 60 869 87 1072 183 1198 c 0
 295 1344 487 1387 640 1387 c 0
 774 1387 895 1352 1002 1269 c 1
 1002 1325 l 2
EndSplineSet
Validated: 1
EndChar

StartChar: G
Encoding: 71 71 44
Width: 1206
VWidth: 0
Flags: W
HStem: -18 36<483.994 791.372> 519 36<810.196 1000 1054 1162.04> 1351 36<471.228 767.159>
VStem: 55 54<400.756 964> 997 54<-16.6953 92 118.176 519 1013.16 1227.86 1269 1345.84>
LayerCount: 2
Back
SplineSet
1136 537.200195312 m 21
 1036 537.200195312 936 537.200195312 836 537.200195312 c 13
1027 534 m 21
 1028 0 l 6
1024 1329.20019531 m 21
 1024 1229.20019531 1024 1129.20019531 1024 1029.20019531 c 5
1024 1213.20019531 m 4
 908 1325.40039062 776 1369 629 1369 c 7
 482 1369 306 1329 202 1193 c 4
 111 1074 82 872 82 681 c 7
 82 480 110 284 210 165 c 4
 313 42 489 0 629 0 c 7
 769 0 906.864257812 32.013671875 1028 137.200195312 c 4
EndSplineSet
Fore
SplineSet
1163 542 m 0
 1163 528 1144 519 1129 519 c 2
 1054 519 l 1
 1055 143 l 1
 1055 4 l 2
 1055 -7.64516129032 1034.71488033 -17.0364203954 1019.01027156 -17.0364203954 c 0
 1009.09157128 -17.0364203954 1001 -13.2903225806 1001 -4 c 2
 1001 92 l 1
 883 9 751 -18 622 -18 c 0
 475 -18 293 27 186 154 c 0
 83 277 55 475 55 677 c 0
 55 869 83 1072 179 1198 c 0
 291 1344 483 1387 636 1387 c 0
 770 1387 890 1352 997 1269 c 1
 997 1325 l 2
 997 1337.3169856 1017.48059814 1346.97907886 1033.21587117 1346.97907886 c 0
 1043.03112412 1346.97907886 1051 1343.21961728 1051 1334 c 2
 1051 1034 l 2
 1051 1021.6830144 1030.51940186 1012.02092114 1014.78412883 1012.02092114 c 0
 1004.96887588 1012.02092114 997 1015.78038272 997 1025 c 2
 997 1204 l 1
 884 1311 759 1351 622 1351 c 0
 481 1351 321 1314 225 1188 c 0
 139 1076 109 875 109 685 c 0
 109 485 137 291 234 176 c 1
 333 57 503 18 636 18 c 0
 767 18 889 45 1001 139 c 1
 1000 519 l 1
 829 519 l 2
 815 519 806 527 810 537 c 0
 814 547 829 555 843 555 c 2
 1143 555 l 2
 1155 555 1163 550 1163 542 c 0
EndSplineSet
Validated: 1
EndChar

StartChar: J
Encoding: 74 74 45
Width: 584
VWidth: 0
Flags: W
HStem: -424 33<28.3804 77.0986> 1349 36<156.195 346 400 508.233>
VStem: 347 54<-60.3245 1349>
LayerCount: 2
Back
SplineSet
336 1367.20019531 m 21
 236 1367.20019531 136 1367.20019531 36 1367.20019531 c 13
227 1364 m 21
 228 230 l 6
 228.202825592 -0.00422105499237 208.989501953 -308 -91 -405.799804688 c 4
EndSplineSet
Fore
SplineSet
509 1371 m 0
 509 1358 489 1349 475 1349 c 2
 400 1349 l 1
 401 234 l 2
 401 9 389 -315 62 -422 c 0
 58 -423 54 -424 50 -424 c 0
 39 -424 28 -419 28 -410 c 0
 28 -403 36 -395 48 -391 c 0
 321 -302 347 -9 347 226 c 2
 346 1349 l 1
 175 1349 l 2
 161 1349 152 1357 156 1367 c 0
 160 1377 174 1385 188 1385 c 2
 488 1385 l 2
 500 1385 509 1379 509 1371 c 0
EndSplineSet
Validated: 1
EndChar

StartChar: W
Encoding: 87 87 46
Width: 2066
VWidth: 0
Flags: W
HStem: -18 21G<670 682.5 1360 1373> 1350 36<64.9567 215 273 416.804 1630.19 1782 1834 1982.23>
LayerCount: 2
Back
SplineSet
1561.5 1368 m 21
 1661.5 1368 1761.5 1368 1861.5 1368 c 5
-3.5 1368 m 21
 96.5 1368 196.5 1368 296.5 1368 c 5
143.5 1368 m 29
 586.5 0 l 29
 933 1044 l 21
 1276.5 0 l 13
 1719.5 1368 l 21
EndSplineSet
Fore
SplineSet
64 1363 m 0
 64 1377 83 1386 97 1386 c 2
 397 1386 l 2
 411 1386 421 1378 417 1368 c 0
 413 1358 398 1350 384 1350 c 2
 273 1350 l 1
 683 84 l 1
 1001 1044 l 2
 1004 1054 1020 1063 1035 1062 c 0
 1045 1062 1052 1057 1054 1052 c 2
 1372 84 l 1
 1782 1350 l 1
 1649 1350 l 2
 1635 1350 1626 1358 1630 1368 c 0
 1634 1378 1648 1386 1662 1386 c 2
 1962 1386 l 2
 1974 1386 1983 1380 1983 1372 c 0
 1983 1359 1963 1350 1949 1350 c 2
 1834 1350 l 1
 1397 1 l 2
 1394 -8 1381 -18 1365 -18 c 0
 1355 -18 1347 -14 1345 -8 c 2
 1026 961 l 1
 707 0 l 2
 704 -9 690 -18 675 -18 c 0
 665 -18 656 -14 654 -8 c 2
 215 1350 l 1
 84 1350 l 2
 72 1350 64 1355 64 1363 c 0
EndSplineSet
Validated: 1
EndChar

StartChar: S
Encoding: 83 83 47
Width: 991
VWidth: 0
Flags: W
HStem: -18 36<419.359 670.891> 1350 36<371.355 609.956>
VStem: 63 54<38.907 131 174.116 371.093> 108 54<946.832 1175.11> 836 54<1013.16 1224.44 1268 1345.84> 888 54<189.922 423.929>
LayerCount: 2
Back
SplineSet
331.279296875 355.130859375 m 17
 331.279296875 255.130859375 331.279296875 155.130859375 331.279296875 55.130859375 c 1
  Spiro
    331.279 355.131 {
    331.279 55.1308 v
    0 0 z
  EndSpiro
1104 1329.20019531 m 17
 1104 1229.20019531 1104 1129.20019531 1104 1029.20019531 c 1
  Spiro
    1104 1329.2 {
    1104 1029.2 v
    0 0 z
  EndSpiro
1108 1209.19995117 m 0
 1009.20023898 1305.67749836 874.085102177 1366.65298651 736 1368 c 0
 648.768429648 1368.85093975 559.841286544 1344.36450734 491.183583541 1290.54823858 c 0
 456.854732039 1263.64010421 427.974706648 1229.63824769 407.913021908 1190.90781332 c 0
 387.851337168 1152.17737895 376.752401052 1108.81132164 376 1065.19995117 c 0
 375.189032379 1018.19389065 386.418513128 971.171403389 407.335690503 929.067970222 c 0
 428.252867877 886.964537054 458.624071276 849.870689522 494.193842043 819.12953142 c 0
 565.333383576 757.647215217 655.168061449 722.818764877 744 692 c 0
 850.23150832 655.144743536 960.695597001 618.913117155 1044.11893387 543.520875146 c 0
 1085.8306023 505.824754141 1119.73030427 458.872853947 1138.77226052 405.974227078 c 0
 1157.81421676 353.075600208 1161.49246893 294.578513212 1148 240 c 0
 1128.66226632 161.776751255 1073.98979387 94.284660948 1004.46077445 53.559483888 c 0
 934.931755028 12.8343068281 852.53321327 -2.68814963799 772 0 c 0
 611.240277413 5.36606168469 456.187233905 76.1976428988 334.279449463 181.130836487 c 0
  Spiro
    1108 1209.2 {
    736 1368 o
    376 1065.2 o
    744 692 o
    1148 240 o
    772 0 o
    334.279 181.131 o
    0 0 z
  EndSpiro
EndSplineSet
Fore
SplineSet
108 1061 m 0xd4
 113 1266 301 1386 497 1386 c 2
 502 1386 l 1
 626 1385 742 1340 836 1268 c 1
 836 1325 l 2
 836 1337.3169856 856.480598139 1346.97907886 872.215871174 1346.97907886 c 0
 882.031124121 1346.97907886 890 1343.21961728 890 1334 c 2
 890 1222 l 1
 895 1217 895 1210 890 1204 c 1
 890 1034 l 2
 890 1021.6830144 869.519401861 1012.02092114 853.784128826 1012.02092114 c 0
 843.968875879 1012.02092114 836 1015.78038272 836 1025 c 2
 836 1204 l 1
 740 1294 612 1349 488 1350 c 1
 483 1350 l 2
 314 1350 166 1244 162 1069 c 0
 162 1067 162 1065 162 1063 c 0xd8
 162 960 218 884 276 832 c 1
 433 698 669 698 826 556 c 0
 888 500 942 423 942 313 c 0
 942 105 751 -18 542 -18 c 2
 523 -18 l 1
 373 -13 233 45 117 131 c 1
 117 59 l 2
 117 47.3548387097 96.714880333 37.9635796046 81.0102715585 37.9635796046 c 0
 71.0915712799 37.9635796046 63 41.7096774194 63 51 c 2
 63 351 l 2
 63 362.64516129 83.285119667 372.036420395 98.9897284415 372.036420395 c 0
 108.90842872 372.036420395 117 368.290322581 117 359 c 2
 117 193 l 1xe4
 237 90 387 23 538 18 c 1
 557 18 l 2
 718 18 848 104 880 239 c 0
 885 260 888 281 888 302 c 0
 888 404 838 479 780 531 c 0
 628 670 388 670 230 806 c 0
 167 861 108 944 108 1055 c 0
 108 1057 108 1059 108 1061 c 0xd4
EndSplineSet
Validated: 1
EndChar

StartChar: V
Encoding: 86 86 48
Width: 1436
VWidth: 0
Flags: W
HStem: -17 21G<700 712.5> 1350 36<64.9567 215 273 416.804 1000.19 1152 1204 1352.23>
LayerCount: 2
Back
SplineSet
-3.5 1368 m 21
 96.5 1368 196.5 1368 296.5 1368 c 5
143.5 1368 m 29
 616.5 0 l 29
 1089.5 1368 l 21
931.5 1368 m 21
 1031.5 1368 1131.5 1368 1231.5 1368 c 5
EndSplineSet
Fore
SplineSet
64 1363 m 0
 64 1377 83 1386 97 1386 c 2
 397 1386 l 2
 411 1386 421 1378 417 1368 c 0
 413 1358 398 1350 384 1350 c 2
 273 1350 l 1
 712 80 l 1
 1152 1350 l 1
 1019 1350 l 2
 1005 1350 996 1358 1000 1368 c 0
 1004 1378 1018 1386 1032 1386 c 2
 1332 1386 l 2
 1344 1386 1353 1380 1353 1372 c 0
 1353 1359 1333 1350 1319 1350 c 2
 1204 1350 l 1
 737 0 l 2
 734 -9 720 -17 705 -17 c 0
 695 -17 687 -14 685 -8 c 2
 215 1350 l 1
 84 1350 l 2
 72 1350 64 1355 64 1363 c 0
EndSplineSet
Validated: 1
EndChar

StartChar: N
Encoding: 78 78 49
Width: 1335
VWidth: 0
Flags: W
HStem: -18 36<78.1948 213 267 379.804> 1350 36<68.9567 213 909.195 1053 1107 1261.23>
VStem: 213 54<18 1342> 1053 54<106 1350>
LayerCount: 2
Back
SplineSet
83 1368 m 21
 228 1368 l 6
 285.145507812 1368 356.014648438 1314.08203125 379 1269.20019531 c 6
 1068 0 l 13
 1068 1368 l 29
342 0 m 29
 92 0 l 21
228 0 m 13
 228 1368 l 29
1223 1368 m 21
 1123 1368 1023 1368 923 1368 c 13
EndSplineSet
Fore
SplineSet
1262 1372 m 0
 1262 1359 1242 1350 1228 1350 c 2
 1107 1350 l 1
 1107 4 l 2
 1107 -7.37555381176 1087.74623303 -17.4078215558 1072.00982348 -17.4078215558 c 0
 1064.22922746 -17.4078215558 1057.30849776 -14.955295964 1054 -9 c 2
 365 1260 l 1
 349 1292 305 1327 267 1342 c 1
 267 18 l 1
 360 18 l 2
 374 18 384 10 380 0 c 0
 376 -10 361 -18 347 -18 c 2
 97 -18 l 2
 83 -18 74 -10 78 0 c 0
 82 10 96 18 110 18 c 2
 213 18 l 1
 213 1350 l 1
 88 1350 l 2
 76 1350 68 1355 68 1363 c 0
 68 1377 87 1386 101 1386 c 2
 246 1386 l 2
 321 1386 393 1326 417 1279 c 1
 1053 106 l 1
 1053 1350 l 1
 928 1350 l 2
 914 1350 905 1358 909 1368 c 0
 913 1378 927 1386 941 1386 c 2
 1241 1386 l 2
 1253 1386 1262 1380 1262 1372 c 0
EndSplineSet
Validated: 1
EndChar

StartChar: M
Encoding: 77 77 50
Width: 1706
VWidth: 0
Flags: W
HStem: -18 36<72.9567 218 272 424.804 1259.19 1404 1458 1610.8> 1350 36<74.1948 218 1346.66 1404 1458 1612.23>
VStem: 218 54<18 1348> 1404 54<18 1350>
LayerCount: 2
Back
SplineSet
1599 1368 m 21
 1444 1368 l 6
 1366.98632812 1368 1326.59082031 1351.41894531 1297.60495388 1277.19995117 c 6
 868 177.200195312 l 5
 410.245923316 1289.19995117 l 6
 388.854492188 1341.1640625 344 1368 258 1368 c 5
 258 1368 213 1368 113 1368 c 13
1598 0 m 21
 1498 0 1398 0 1298 0 c 5
1444 0 m 13
 1444 1368 l 29
412 0 m 29
 112 0 l 21
258 0 m 13
 258 1368 l 29
EndSplineSet
Fore
SplineSet
1613 1372 m 0
 1613 1359 1593 1350 1579 1350 c 2
 1458 1350 l 1
 1458 18 l 1
 1591 18 l 2
 1605 18 1615 10 1611 0 c 0
 1607 -10 1592 -18 1578 -18 c 2
 1278 -18 l 2
 1264 -18 1255 -10 1259 0 c 0
 1263 10 1277 18 1291 18 c 2
 1404 18 l 1
 1404 1350 l 1
 1354 1348 1335 1337 1311 1277 c 2
 881 177 l 2
 875 162 839 150 829 169 c 1
 371 1281 l 2
 354 1321 326 1342 272 1348 c 1
 272 18 l 1
 405 18 l 2
 419 18 429 10 425 0 c 0
 421 -10 406 -18 392 -18 c 2
 92 -18 l 2
 80 -18 72 -13 72 -5 c 0
 72 9 91 18 105 18 c 2
 218 18 l 1
 218 1350 l 1
 93 1350 l 2
 79 1350 70 1358 74 1368 c 0
 78 1378 92 1386 106 1386 c 2
 251 1386 l 2
 347 1386 400 1354 423 1298 c 2
 856 247 l 1
 1259 1278 l 2
 1290 1358 1348 1386 1437 1386 c 2
 1592 1386 l 2
 1604 1386 1613 1380 1613 1372 c 0
EndSplineSet
Validated: 1
EndChar

StartChar: dieresis
Encoding: 168 168 51
AltUni2: 000308.ffffffff.0
Width: 470
VWidth: 0
Flags: W
HStem: 1285 96<238.085 293.915 498.085 553.915>
VStem: 238 56<1285.02 1380.98> 498 56<1285.02 1380.98>
LayerCount: 2
Fore
SplineSet
238 1333 m 0
 238 1359 251 1381 266 1381 c 0
 281 1381 294 1359 294 1333 c 0
 294 1307 281 1285 266 1285 c 0
 251 1285 238 1307 238 1333 c 0
498 1333 m 0
 498 1359 511 1381 526 1381 c 0
 541 1381 554 1359 554 1333 c 0
 554 1307 541 1285 526 1285 c 0
 511 1285 498 1307 498 1333 c 0
EndSplineSet
Validated: 1
EndChar

StartChar: underscore
Encoding: 95 95 53
Width: 823
VWidth: 0
Flags: W
HStem: -185 36<-27.0433 850.043>
LayerCount: 2
Fore
SplineSet
-28 -172 m 0
 -28 -158 -9 -149 6 -149 c 2
 831 -149 l 2
 843 -149 851 -154 851 -162 c 0
 851 -176 832 -185 817 -185 c 2
 -8 -185 l 2
 -20 -185 -28 -180 -28 -172 c 0
EndSplineSet
Validated: 1
EndChar

StartChar: X
Encoding: 88 88 54
Width: 1472
VWidth: 0
Flags: W
HStem: -18 36<79.9567 234 287 431.804 1015.19 1149 1214 1367.23> 1350 36<79.9567 233 297 431.804 1015.19 1160 1213 1367.23>
LayerCount: 2
Back
SplineSet
1231.5 0 m 21
 1131.5 0 1031.5 0 931.5 0 c 5
138.5 0 m 12
 1089.5 1368 l 4
296.5 0 m 21
 196.5 0 96.5 0 -3.5 0 c 5
-3.5 1368 m 21
 96.5 1368 196.5 1368 296.5 1368 c 5
143.5 1368 m 28
 1084.5 0 l 12
931.5 1368 m 21
 1031.5 1368 1131.5 1368 1231.5 1368 c 5
EndSplineSet
Fore
SplineSet
79 1363 m 0
 79 1377 98 1386 112 1386 c 2
 412 1386 l 2
 426 1386 436 1378 432 1368 c 0
 428 1358 413 1350 399 1350 c 2
 297 1350 l 1
 726 727 l 1
 1160 1350 l 1
 1034 1350 l 2
 1020 1350 1011 1358 1015 1368 c 0
 1019 1378 1033 1386 1047 1386 c 2
 1347 1386 l 2
 1359 1386 1368 1380 1368 1372 c 0
 1368 1359 1348 1350 1334 1350 c 2
 1213 1350 l 1
 753 688 l 1
 1214 18 l 1
 1347 18 l 2
 1359 18 1368 12 1368 4 c 0
 1368 -9 1348 -18 1334 -18 c 2
 1034 -18 l 2
 1020 -18 1011 -10 1015 0 c 0
 1019 10 1033 18 1047 18 c 2
 1149 18 l 1
 721 641 l 1
 287 18 l 1
 412 18 l 2
 426 18 436 10 432 0 c 0
 428 -10 413 -18 399 -18 c 2
 99 -18 l 2
 87 -18 79 -13 79 -5 c 0
 79 9 98 18 112 18 c 2
 234 18 l 1
 694 680 l 1
 233 1350 l 1
 99 1350 l 2
 87 1350 79 1355 79 1363 c 0
EndSplineSet
Validated: 1
EndChar

StartChar: Y
Encoding: 89 89 55
Width: 1445
VWidth: 0
Flags: W
HStem: -18 36<533.195 682 736 884.804> 1350 36<67.9567 222 287 419.804 1004.19 1148 1202 1356.23>
VStem: 682 54<18 686>
LayerCount: 2
Back
SplineSet
611 0 m 4
 611 694 l 5
 1090 1368 l 4
761 0 m 21
 661 0 561 0 461 0 c 5
-4 1368 m 21
 96 1368 196 1368 296 1368 c 5
144 1368 m 20
 611 694 l 5
932 1368 m 21
 1032 1368 1132 1368 1232 1368 c 5
EndSplineSet
Fore
SplineSet
67 1363 m 0
 67 1377 86 1386 100 1386 c 2
 400 1386 l 2
 414 1386 424 1378 420 1368 c 0
 416 1358 401 1350 387 1350 c 2
 287 1350 l 1
 712 736 l 1
 1148 1350 l 1
 1023 1350 l 2
 1009 1350 1000 1358 1004 1368 c 0
 1008 1378 1022 1386 1036 1386 c 2
 1336 1386 l 2
 1348 1386 1357 1380 1357 1372 c 0
 1357 1359 1337 1350 1323 1350 c 2
 1202 1350 l 1
 736 694 l 1
 736 18 l 1
 865 18 l 2
 879 18 889 10 885 0 c 0
 881 -10 866 -18 852 -18 c 2
 552 -18 l 2
 538 -18 529 -10 533 0 c 0
 537 10 551 18 565 18 c 2
 682 18 l 1
 682 686 l 1
 222 1350 l 1
 87 1350 l 2
 75 1350 67 1355 67 1363 c 0
EndSplineSet
Validated: 1
EndChar

StartChar: Z
Encoding: 90 90 56
Width: 1138
VWidth: 0
Flags: W
HStem: -18 36<152 891> 1350 36<141 935>
VStem: 87 54<1217.91 1350>
LayerCount: 2
Back
SplineSet
82 1234 m 25
 82 1368 l 17
 368.333007812 1368 654.666992188 1368 941 1368 c 9
 82 0 l 29
 872 0 l 21
 1046 214 l 13
EndSplineSet
Fore
SplineSet
141 1238 m 2
 141 1226.35483871 120.714880333 1216.9635796 105.010271559 1216.9635796 c 0
 95.0915712799 1216.9635796 87 1220.70967742 87 1230 c 2
 87 1364 l 2
 87 1376 106 1386 120 1386 c 2
 979 1386 l 2
 996 1386 1003 1374 997 1365 c 2
 152 18 l 1
 891 18 l 1
 1055 219 l 2
 1064 229 1105 242 1105 218 c 0
 1105 215 1104 212 1101 209 c 2
 927 -5 l 2
 921 -12 909 -18 897 -18 c 2
 107 -18 l 2
 98 -18 87 -13 87 -4 c 0
 87 -2 87 0 89 3 c 2
 935 1350 l 1
 141 1350 l 1
 141 1238 l 2
EndSplineSet
Validated: 1
EndChar

StartChar: period
Encoding: 46 46 57
Width: 406
VWidth: 0
Flags: W
HStem: -33 132<156.85 259.204>
VStem: 153 110<-30.477 96.995>
LayerCount: 2
Back
SplineSet
179.954101562 33.2001953125 m 0
 179.954101562 59.6962890625 192.498046875 81.2001953125 207.954101562 81.2001953125 c 0
 223.41015625 81.2001953125 235.954101562 59.6962890625 235.954101562 33.2001953125 c 0
 235.954101562 6.7041015625 223.41015625 -14.7998046875 207.954101562 -14.7998046875 c 0
 192.498046875 -14.7998046875 179.954101562 6.7041015625 179.954101562 33.2001953125 c 0
EndSplineSet
Fore
SplineSet
153 29 m 0
 153 39 155 49 158 58 c 0
 162 70 175 99 214 99 c 0
 257 99 263 63 263 38 c 0
 263 28 261 17 258 8 c 0
 254 -4 240 -33 201 -33 c 0
 158 -33 153 4 153 29 c 0
EndSplineSet
Validated: 1
EndChar

StartChar: comma
Encoding: 44 44 58
Width: 406
VWidth: 0
Flags: W
HStem: -178 277<158.464 178.667>
VStem: 151 110.002<-78.1382 96.3089>
LayerCount: 2
Fore
SplineSet
151 16 m 0
 151 28 154 41 158 53 c 0
 161 62 170 99 214 99 c 0
 260.08 99 261.0016 50.1552 261.0016 26.783424 c 0
 261.0016 25.8096 261 24.88 261 24 c 0
 261 18 259 13 257 7 c 0
 245 -27 176 -178 117 -178 c 0
 103 -178 98 -167 98 -150 c 0
 98 -97 151 14 151 16 c 0
EndSplineSet
Validated: 1
EndChar

StartChar: colon
Encoding: 58 58 59
Width: 432
VWidth: 0
Flags: W
HStem: 67 132<186.85 289.204> 633 132<186.85 289.204>
VStem: 183 110<69.523 196.995 635.523 762.995>
LayerCount: 2
Back
SplineSet
209.954101562 133.200195312 m 0
 209.954101562 159.696289062 222.498046875 181.200195312 237.954101562 181.200195312 c 0
 253.41015625 181.200195312 265.954101562 159.696289062 265.954101562 133.200195312 c 0
 265.954101562 106.704101562 253.41015625 85.2001953125 237.954101562 85.2001953125 c 0
 222.498046875 85.2001953125 209.954101562 106.704101562 209.954101562 133.200195312 c 0
209.954101562 699.200195312 m 0
 209.954101562 725.696289062 222.498046875 747.200195312 237.954101562 747.200195312 c 0
 253.41015625 747.200195312 265.954101562 725.696289062 265.954101562 699.200195312 c 0
 265.954101562 672.704101562 253.41015625 651.200195312 237.954101562 651.200195312 c 0
 222.498046875 651.200195312 209.954101562 672.704101562 209.954101562 699.200195312 c 0
EndSplineSet
Fore
SplineSet
183 129 m 0
 183 139 185 149 188 158 c 0
 192 170 205 199 244 199 c 0
 287 199 293 163 293 138 c 0
 293 128 291 117 288 108 c 0
 284 96 270 67 231 67 c 0
 188 67 183 104 183 129 c 0
183 695 m 0
 183 705 185 715 188 724 c 0
 192 736 205 765 244 765 c 0
 287 765 293 729 293 704 c 0
 293 694 291 683 288 674 c 0
 284 662 270 633 231 633 c 0
 188 633 183 670 183 695 c 0
EndSplineSet
Validated: 1
EndChar

StartChar: semicolon
Encoding: 59 59 60
Width: 394
VWidth: 0
Flags: W
HStem: 633 132<156.85 259.204>
VStem: 158 103.002<21.8618 198.078 634.639 764.019>
LayerCount: 2
Back
SplineSet
179.954101562 699.200195312 m 0
 179.954101562 725.696289062 192.498046875 747.200195312 207.954101562 747.200195312 c 0
 223.41015625 747.200195312 235.954101562 725.696289062 235.954101562 699.200195312 c 0
 235.954101562 672.704101562 223.41015625 651.200195312 207.954101562 651.200195312 c 0
 192.498046875 651.200195312 179.954101562 672.704101562 179.954101562 699.200195312 c 0
178 120 m 0
 178 146.49609375 192.498046875 181.200195312 207.954101562 181.200195312 c 0
 223.41015625 181.200195312 234 146.49609375 234 120 c 0
 234 93.50390625 139.456054688 -60 124 -60 c 0
 108.543945312 -60 178 93.50390625 178 120 c 0
EndSplineSet
Fore
SplineSet
153 695 m 0
 153 705 155 715 158 724 c 0
 162 736 175 765 214 765 c 0
 257 765 263 729 263 704 c 0
 263 694 261 683 258 674 c 0
 254 662 240 633 201 633 c 0
 158 633 153 670 153 695 c 0
151 116 m 0
 151 128 154 141 158 153 c 0
 161 162 170 199 214 199 c 0
 260.08 199 261.0016 150.1552 261.0016 126.783424 c 0
 261.0016 125.8096 261 124.88 261 124 c 0
 261 118 259 113 257 107 c 0
 245 73 176 -78 117 -78 c 0
 103 -78 98 -67 98 -50 c 0
 98 3 151 114 151 116 c 0
EndSplineSet
Validated: 1
EndChar

StartChar: three
Encoding: 51 51 61
Width: 1134
VWidth: 0
Flags: W
HStem: -19 36<510.725 724.22> 729 35<605.576 704.774> 1351 35<466.962 707.948>
VStem: 964 54<237.273 494.895 988.313 1147.79>
LayerCount: 2
Back
SplineSet
234 1159.20019531 m 4
 284.876199522 1291.19593097 427.867712427 1368.49331344 590.729488176 1368.49331344 c 4
 777.796335124 1368.49331344 978.440027016 1268.92848583 978.440027016 1070.18832757 c 4
 978.440027016 879.888568006 801.048334225 769.829479793 632 747.200195312 c 5
 826.414499903 734.151611656 991.014762225 574.510714013 991.014762225 367.053508409 c 4
 991.014762225 162.885078935 818.729262904 -0.70614196286 615.180307639 -0.70614196286 c 4
 448.10766987 -0.70614196286 306.038876913 99.2482836634 219 199.200195312 c 4
  Spiro
    234 1159.2 {
    310.939 1271.91 o
    568 1368 o
    978 1046 o
    810.439 807.659 o
    632 747.2 v
    988 414 o
    592 0 o
    330.033 98.3108 o
    219 199.2 v
    0 0 z
  EndSpiro
EndSplineSet
Fore
SplineSet
622 17 m 0
 795 17 964 153 964 363 c 0
 964 566 801 717 623 729 c 0
 613 730 605 735 605 742 c 0
 604 752 618 762 633 764 c 0
 781 784 940 877 951 1047 c 0
 951 1053 952 1060 952 1066 c 0
 952 1257 758 1351 584 1351 c 0
 436 1351 308 1283 260 1159 c 0
 256 1149 241 1141 227 1141 c 0
 213 1141 204 1149 208 1159 c 0
 262 1299 419 1386 597 1386 c 0
 797 1386 1006 1282 1006 1075 c 0
 1006 911 876 799 725 751 c 1
 894 704 1018 555 1018 371 c 0
 1018 327 1010 285 996 245 c 0
 942 97 790 -19 609 -19 c 0
 428 -19 283 87 195 188 c 0
 193 190 192 192 192 195 c 0
 192 211 230 226 243 211 c 0
 329 112 469 17 622 17 c 0
EndSplineSet
Validated: 1
EndChar

StartChar: zero
Encoding: 48 48 62
Width: 1278
VWidth: 0
Flags: W
HStem: -18 36<545.296 714.48> 1350 36<528.592 697.901>
VStem: 154 54<463.003 907.4> 1040 54<457.638 903.197>
LayerCount: 2
Back
SplineSet
703 0 m 7
 481 0 263 282 263 683 c 7
 263 1084 481 1368 703 1368 c 7
 925 1368 1149 1084 1149 683 c 7
 1149 282 925 0 703 0 c 7
EndSplineSet
Fore
SplineSet
154 679 m 0
 154 1033 347 1386 628 1386 c 0
 875 1386 1094 1088 1094 687 c 0
 1094 565 1073 454 1038 357 c 0
 958 138 797 -18 615 -18 c 0
 368 -18 154 278 154 679 c 0
628 18 m 0
 756 18 906 137 986 357 c 0
 1020 450 1040 559 1040 679 c 0
 1040 1080 812 1350 615 1350 c 0
 489 1350 342 1233 263 1016 c 0
 228 921 208 809 208 687 c 0
 208 286 431 18 628 18 c 0
EndSplineSet
Validated: 1
EndChar

StartChar: one
Encoding: 49 49 63
Width: 886
VWidth: 0
Flags: W
HStem: -18 36<302.195 447 501 654.233> 1365 20G<477 486>
VStem: 447 54<18 1325>
LayerCount: 2
Back
SplineSet
-13.6953125 1190.28320312 m 21
 66.8701171875 1249.52246094 147.435546875 1308.76074219 228 1368 c 13
 228 0 l 21
382 0 m 29
 82 0 l 21
EndSplineSet
Fore
SplineSet
655 4 m 0
 655 -9 635 -18 621 -18 c 2
 321 -18 l 2
 307 -18 298 -10 302 0 c 0
 306 10 320 18 334 18 c 2
 447 18 l 1
 447 1325 l 1
 250 1180 l 2
 238 1171 205 1167 205 1185 c 0
 205 1190 208 1196 214 1200 c 2
 456 1378 l 2
 463 1383 473 1385 481 1385 c 0
 491 1385 501 1380 501 1372 c 2
 501 18 l 1
 634 18 l 2
 646 18 655 12 655 4 c 0
EndSplineSet
Validated: 1
EndChar

StartChar: four
Encoding: 52 52 64
Width: 1147
VWidth: 0
Flags: W
HStem: -18 36<606.196 751 805 957.804> 439 36<179 751 805 1058.35> 1366 20G<777.5 790>
VStem: 751 54<18 439 475 1291>
LayerCount: 2
Back
SplineSet
778 0 m 13
 778 1368 l 21
 140 457.200195312 l 13
 1032 456.200195312 l 29
932 0 m 29
 632 0 l 21
EndSplineSet
Fore
SplineSet
1059 461 m 0
 1059 447 1040 438 1025 438 c 2
 805 439 l 1
 805 18 l 1
 939 18 l 2
 953 18 962 10 958 -0 c 0
 954 -10 939 -18 925 -18 c 2
 625 -18 l 2
 611 -18 602 -10 606 -0 c 0
 610 10 625 18 639 18 c 2
 751 18 l 1
 751 439 l 1
 133 439 l 2
 123 439 113 445 113 453 c 0
 113 455 114 458 116 461 c 2
 754 1372 l 2
 759 1378 771 1386 784 1386 c 0
 796 1386 805 1380 805 1372 c 2
 805 475 l 1
 1039 474 l 2
 1051 474 1059 469 1059 461 c 0
751 474 m 1
 751 1291 l 1
 179 475 l 1
 751 474 l 1
EndSplineSet
Validated: 1
EndChar

StartChar: two
Encoding: 50 50 65
Width: 1195
VWidth: 0
Flags: W
HStem: -18 36<188 925> 1350 36<441.112 676.689>
VStem: 953 54<849.892 1113.4>
LayerCount: 2
Back
SplineSet
1046 214 m 5
 872 0 l 5
 82 0 l 5
 168.086458109 114.999577933 267.38759822 219.79742347 374.840778829 315.136791895 c 4
 482.293959437 410.47616032 599.134763184 495.021280793 704 593.200012207 c 4
 801.707661623 684.677555755 914.79728698 810.53291494 914.79728698 987.42069286 c 4
 914.79728698 1208.50811744 721.183968752 1368.0023275 502.494476863 1368.0023275 c 4
 339.782050388 1368.0023275 180.414122552 1286.46883763 79 1159.20019531 c 4
  Spiro
    1046 214 {
    872 0 v
    82 0 v
    704 593.2 o
    914 963.724 o
    504 1368 o
    79 1159.2 v
    0 0 z
  EndSpiro
EndSplineSet
Fore
SplineSet
1088 219 m 2
 1097 229 1139 242 1139 218 c 0
 1139 215 1138 212 1135 209 c 2
 961 -5 l 2
 955 -13 942 -18 931 -18 c 2
 141 -18 l 2
 123 -18 117 -5 124 5 c 0
 211 121 311 227 420 323 c 0
 529 420 646 504 749 601 c 0
 845 691 953 811 953 983 c 0
 953 1199 763 1350 562 1350 c 0
 414 1350 265 1276 168 1154 c 0
 160 1143 118 1132 118 1155 c 0
 118 1158 119 1161 121 1164 c 0
 226 1296 398 1386 575 1386 c 0
 811 1386 1007 1218 1007 992 c 0
 1007 810 889 678 790 585 c 0
 683 485 567 401 461 307 c 0
 362 219 270 123 188 18 c 1
 925 18 l 1
 1088 219 l 2
EndSplineSet
Validated: 1
EndChar

StartChar: five
Encoding: 53 53 66
Width: 1188
VWidth: 0
Flags: W
HStem: -18 36<484.521 680.868> 896 36<455.239 665.48> 1350 36<263 908>
VStem: 189 53<221.048 245.755> 209 54<796 1350> 908 54<1217.91 1350> 943 54<293.914 611.819>
LayerCount: 2
Back
SplineSet
216 229 m 5
 273 77 450 0 584 0 c 4
 775 0 970 187 970 454 c 4
 970 721 775 914 584 914 c 5
 452 914 294 869 236 697 c 13
 236 1368 l 21
 522 1368 649 1368 935 1368 c 13
 935 1234 l 29
EndSplineSet
Fore
SplineSet
189 225 m 0xf2
 189 236.219450714 209.035638128 247.003344078 224.673343242 247.003344078 c 0
 232.73029072 247.003344078 239.619773823 244.14067853 242 237 c 0
 297 90 470 18 591 18 c 0
 605 18 618 19 632 21 c 0
 780 45 943 207 943 450 c 0xf2
 943 714 746 896 577 896 c 0
 575 896 573 896 571 896 c 0
 452 894 316 856 262 697 c 0
 259.58993618 687.962260675 240.843725938 679.287546826 226.321861564 679.287546826 c 0
 216.741684735 679.287546826 209 683.062898875 209 693 c 2
 209 1364 l 2
 209 1376 229 1386 243 1386 c 2
 942 1386 l 2
 954 1386 962 1379 962 1372 c 2
 962 1238 l 2
 962 1226.35483871 941.714880333 1216.9635796 926.010271559 1216.9635796 c 0
 916.09157128 1216.9635796 908 1220.70967742 908 1230 c 2
 908 1350 l 1
 263 1350 l 1
 263 796 l 1xec
 346 900 481 932 591 932 c 0
 804 932 997 728 997 458 c 0
 997 211 832 18 631 -14 c 0
 613 -17 595 -18 577 -18 c 0
 430 -18 249 64 190 221 c 0
 190 222 189 224 189 225 c 0xf2
EndSplineSet
Validated: 1
EndChar

StartChar: six
Encoding: 54 54 67
Width: 1213
VWidth: 0
Flags: W
HStem: -18 36<538.133 723.011> 896 36<529.348 709.177> 1350 36<684.302 860.804>
VStem: 217 55<298.304 622.469> 984 54<292.945 612.072>
LayerCount: 2
Back
SplineSet
835 1368 m 4
 320 1368 237 914 245.259765625 454.200195312 c 4
625.419921875 0 m 4
 434.051757812 0 245.259765625 187.583984375 245.259765625 454.200195312 c 4
 245.259765625 720.81640625 433.916992188 914 625.28515625 914 c 5
 816.65234375 914 1010.98046875 720.81640625 1010.98046875 454.200195312 c 4
 1010.98046875 187.583984375 816.788085938 0 625.419921875 0 c 4
EndSplineSet
Fore
SplineSet
632 18 m 0
 755 18 894 112 955 279 c 0
 974 330 984 388 984 450 c 0
 984 714 789 896 619 896 c 0
 498 896 364 801 303 635 c 0
 284 582 272 523 272 459 c 2
 272 458 l 2
 272 194 462 18 632 18 c 0
217 508 m 0
 217 946 316 1386 842 1386 c 0
 856 1386 865 1378 861 1368 c 0
 857 1358 842 1350 828 1350 c 0
 435 1350 308 1064 279 699 c 1
 352 837 485 932 632 932 c 0
 845 932 1038 728 1038 459 c 0
 1038 189 840 -18 619 -18 c 0
 406 -18 218 181 218 450 c 0
 218 469 217 489 217 508 c 0
EndSplineSet
Validated: 1
EndChar

StartChar: seven
Encoding: 55 55 68
Width: 1170
VWidth: 0
Flags: W
HStem: -18 21G<322 338.5> 699 36<324.195 662 732 1048.23> 1350 36<191 988>
VStem: 137 54<1217.91 1350>
LayerCount: 2
Back
SplineSet
268 717.200195312 m 13
 940 717.200195312 l 29
82 1234 m 29
 82 1368 l 21
 368.333007812 1368 654.666992188 1368 941 1368 c 13
 256 0 l 29
EndSplineSet
Fore
SplineSet
1049 721 m 0
 1049 708 1029 699 1015 699 c 2
 714 699 l 1
 363 -2 l 2
 358 -11 345 -18 332 -18 c 0
 331 -18 330 -18 329 -18 c 0
 315 -17 308 -8 313 2 c 2
 662 699 l 1
 343 699 l 2
 329 699 320 707 324 717 c 0
 328 727 342 735 356 735 c 2
 680 735 l 1
 988 1350 l 1
 191 1350 l 1
 191 1238 l 2
 191 1226.35483871 170.714880333 1216.9635796 155.010271559 1216.9635796 c 0
 145.09157128 1216.9635796 137 1220.70967742 137 1230 c 2
 137 1364 l 2
 137 1376 156 1386 170 1386 c 2
 1029 1386 l 2
 1043 1386 1049 1378 1049 1371 c 0
 1049 1369 1049 1368 1048 1366 c 2
 732 735 l 1
 1028 735 l 2
 1040 735 1049 729 1049 721 c 0
EndSplineSet
Validated: 1
EndChar

StartChar: eight
Encoding: 56 56 69
Width: 1065
VWidth: 0
Flags: W
HStem: -18 35<471.111 716.143> 1351 36<454.758 702.076>
VStem: 146 54<242.947 478.78> 199 54<974.706 1191.98> 922 54<966.698 1182.53> 974 54<235.42 475.757>
LayerCount: 2
Back
SplineSet
593.7578125 750.221679688 m 4
 429.194335938 782.448242188 225.826171875 893.215820312 225.826171875 1070.6953125 c 4
 225.826171875 1269.43554688 396.469726562 1369 583.537109375 1369 c 4
 770.603515625 1369 948.440429688 1268.92871094 948.440429688 1070.18847656 c 4
 948.440429688 893.15625 756.401367188 782.627929688 593.758789062 750.2265625 c 4
 402.452148438 732.0625 173.251953125 571.060546875 173.251953125 367.560546875 c 4
 173.251953125 146.165039062 364.431908782 1.55986412033 585.536956787 -0.438255852069 c 4
 808.74690358 -2.45539773439 1001.01464844 146.340820312 1001.01464844 367.053710938 c 4
 1001.01464844 566.286132812 780.641601562 726.686523438 593.7578125 750.221679688 c 4
EndSplineSet
Fore
SplineSet
592 17 m 1xe4
 805 17 974 153 974 363 c 0
 974 553 762 708 587 732 c 1
 581 731 573 730 567 729 c 0
 400 702 200 558 200 372 c 0
 200 156 387 19 592 17 c 1xe4
577 1351 m 0
 408 1351 253 1265 253 1075 c 0
 253 909 443 802 600 769 c 1
 752 799 922 905 922 1066 c 0xd8
 922 1258 750 1351 577 1351 c 0
1028 371 m 0xc4
 1028 149 839 -18 579 -18 c 1
 342 -16 146 136 146 363 c 0xe4
 146 546 325 699 509 751 c 1
 357 799 199 905 199 1066 c 0
 199 1283 393 1387 590 1387 c 0
 791 1387 976 1281 976 1075 c 0xd8
 976 916 826 805 674 754 c 1
 851 704 1028 554 1028 371 c 0xc4
EndSplineSet
Validated: 1
EndChar

StartChar: nine
Encoding: 57 57 70
Width: 1098
VWidth: 0
Flags: W
HStem: -18 36<297.195 473.698> 436 36<448.823 628.652> 1350 36<434.989 619.867>
VStem: 120 54<755.928 1075.06> 886 55<745.531 1069.7>
LayerCount: 2
Back
SplineSet
421.240234375 0 m 4
 936.240234375 0 1019.24023438 454 1010.98046875 913.799804688 c 4
630.8203125 1368 m 4
 822.188476562 1368 1010.98046875 1180.41601562 1010.98046875 913.799804688 c 4
 1010.98046875 647.18359375 822.323242188 454 630.955078125 454 c 5
 439.587890625 454 245.259765625 647.18359375 245.259765625 913.799804688 c 4
 245.259765625 1180.41601562 439.452148438 1368 630.8203125 1368 c 4
EndSplineSet
Fore
SplineSet
526 1350 m 0
 403 1350 264 1256 203 1089 c 0
 184 1038 174 980 174 918 c 0
 174 654 369 472 539 472 c 0
 660 472 794 567 855 733 c 0
 874 786 886 845 886 909 c 2
 886 910 l 2
 886 1174 696 1350 526 1350 c 0
941 860 m 0
 941 422 842 -18 316 -18 c 0
 302 -18 293 -10 297 0 c 0
 301 10 315 18 329 18 c 0
 723 18 850 303 879 669 c 1
 806 531 673 436 526 436 c 0
 313 436 120 640 120 909 c 0
 120 1179 318 1386 539 1386 c 0
 752 1386 940 1187 940 918 c 0
 940 899 941 879 941 860 c 0
EndSplineSet
Validated: 1
EndChar

StartChar: dollar
Encoding: 36 36 71
Width: 991
VWidth: 0
Flags: W
HStem: -18 35.4077<504 660 714 737.239> 1350 36<436.448 450 504 658.383>
VStem: 124 54<38.907 131 171.238 371.093> 169 54<944.749 1177.67> 450 54<-169.9 -10 43 691 760 1339 1383 1562.9> 660 54<-169.9 -15 28 612 681 1318 1376 1562.9> 897 54<1013.16 1226.62 1268 1345.84> 949 55<192.329 424.763>
LayerCount: 2
Back
SplineSet
686.671875 1545.40039062 m 29
 686.671875 -152.599609375 l 29
476.671875 1545.40039062 m 29
 476.671875 -152.599609375 l 29
151.279296875 355.130859375 m 21
 151.279296875 255.130859375 151.279296875 155.130859375 151.279296875 55.130859375 c 5
  Spiro
    151.279 355.131 {
    151.279 55.1308 v
    0 0 z
  EndSpiro
924 1329.20019531 m 21
 924 1229.20019531 924 1129.20019531 924 1029.20019531 c 5
  Spiro
    924 1329.2 {
    924 1029.2 v
    0 0 z
  EndSpiro
928 1209.20019531 m 4
 829.200195312 1305.67773438 694.084960938 1366.65332031 556 1368 c 4
 468.768554688 1368.85058594 379.840820312 1344.36425781 311.18359375 1290.54785156 c 4
 276.854492188 1263.63964844 247.974609375 1229.63867188 227.913085938 1190.90820312 c 4
 207.8515625 1152.17773438 196.751953125 1108.81152344 196 1065.20019531 c 4
 195.189453125 1018.19433594 206.418945312 971.171875 227.3359375 929.068359375 c 4
 248.252929688 886.96484375 278.624023438 849.87109375 314.193359375 819.129882812 c 4
 385.333007812 757.647460938 475.16796875 722.818359375 564 692 c 4
 670.231445312 655.14453125 780.6953125 618.913085938 864.119140625 543.520507812 c 4
 905.831054688 505.825195312 939.73046875 458.873046875 958.772460938 405.974609375 c 4
 977.814453125 353.075195312 981.4921875 294.578125 968 240 c 4
 948.662109375 161.776367188 893.990234375 94.2841796875 824.4609375 53.5595703125 c 4
 754.931640625 12.833984375 672.533203125 -2.6884765625 592 0 c 4
 431.240234375 5.3662109375 276.1875 76.197265625 154.279296875 181.130859375 c 4
  Spiro
    928 1209.2 {
    556 1368 o
    196 1065.2 o
    564 692 o
    968 240 o
    592 0 o
    154.279 181.131 o
    0 0 z
  EndSpiro
EndSplineSet
Fore
SplineSet
169 1061 m 0xdc
 173 1233 305 1340 450 1373 c 1
 450 1541 l 2
 450 1550 462 1561 477 1563 c 0
 479 1563 481 1563 483 1563 c 0
 495 1563 504 1558 504 1550 c 2
 504 1383 l 1
 524 1385 543 1386 563 1386 c 0
 596 1386 628 1382 660 1376 c 1
 660 1541 l 2
 660 1550 672 1561 687 1563 c 0
 689 1563 691 1563 693 1563 c 0
 705 1563 714 1558 714 1550 c 2
 714 1363 l 1
 781 1343 843 1310 897 1268 c 1
 897 1325 l 2
 897 1337.3169856 917.480598139 1346.97907886 933.215871174 1346.97907886 c 0
 943.031124121 1346.97907886 951 1343.21961728 951 1334 c 2
 951 1222 l 1
 956 1217 956 1210 951 1204 c 1
 951 1034 l 2
 951 1021.6830144 930.519401861 1012.02092114 914.784128826 1012.02092114 c 0
 904.968875879 1012.02092114 897 1015.78038272 897 1025 c 2
 897 1204 l 1xde
 844 1254 781 1293 714 1318 c 1
 714 660 l 1
 830 612 941 535 985 414 c 0
 997 381 1004 345 1004 310 c 0
 1004 287 1001 264 995 241 c 0
 965 118 851 21 714 -7 c 1
 714 -148 l 2
 714 -157 702 -168 687 -170 c 0
 685 -170 683 -170 681 -170 c 0
 669 -170 660 -165 660 -157 c 2
 660 -15 l 1
 641 -17 622 -18 603 -18 c 2
 584 -18 l 1
 557 -17 531 -14 504 -10 c 1
 504 -148 l 2
 504 -157 492 -168 477 -170 c 0
 475 -170 473 -170 471 -170 c 0
 459 -170 450 -165 450 -157 c 2
 450 1 l 1
 351 25 258 71 178 131 c 1
 178 59 l 2
 178 47.3548387097 157.714880333 37.9635796046 142.010271559 37.9635796046 c 0
 132.09157128 37.9635796046 124 41.7096774194 124 51 c 2
 124 351 l 2
 124 362.64516129 144.285119667 372.036420395 159.989728441 372.036420395 c 0
 169.90842872 372.036420395 178 368.290322581 178 359 c 2
 178 193 l 1xed
 258 125 352 72 450 43 c 1
 450 712 l 1
 346 756 252 820 202 920 c 0
 181 962 169 1008 169 1055 c 0
 169 1057 169 1059 169 1061 c 0xdc
450 1339 m 1
 329 1309 226 1216 223 1069 c 0
 223 1067 223 1065 223 1063 c 0
 223 905 341 813 450 760 c 1
 450 1339 l 1
504 1348 m 1
 504 737 l 1
 555 717 607 701 660 681 c 1
 660 1335 l 1
 623 1344 586 1350 549 1350 c 0
 534 1350 519 1350 504 1348 c 1
504 29 m 1
 539.866127887 21.9674259045 575.23768479 17.4077067295 612.201534963 17.4077067295 c 0
 627.798595875 17.4077067295 643.679157525 18.2195444573 660 20 c 1
 660 635 l 1
 609 654 556 674 504 691 c 1
 504 29 l 1
714 28 m 1
 839 57 949 151 949 302 c 0xcd
 949 467 829 557 714 612 c 1
 714 28 l 1
EndSplineSet
Validated: 1
EndChar

StartChar: parenleft
Encoding: 40 40 72
Width: 441
VWidth: 0
Flags: W
VStem: 73 54<435.457 959.482>
LayerCount: 2
Back
SplineSet
457 -178.799804688 m 4
 356.487304688 -81.0224609375 273.45703125 34.67578125 213 161.200195312 c 4
 132.830078125 328.98046875 100 486.038085938 100 701.200195312 c 28
 100 916.362304688 132.830078125 1073.41992188 213 1241.20019531 c 4
 273.45703125 1367.72460938 356.487304688 1483.421875 457 1581.20019531 c 4
EndSplineSet
Fore
SplineSet
486 -174 m 0
 486 -186 469 -197 454 -197 c 0
 447 -197 441 -195 437 -191 c 0
 225 15 73 301 73 697 c 0
 73 1094 226 1382 439 1589 c 0
 445 1595 456 1599 466 1599 c 0
 476 1599 487 1594 487 1585 c 0
 487 1581 485 1578 481 1574 c 0
 276 1373 127 1092 127 706 c 0
 127 318 276 37 483 -166 c 0
 485 -168 486 -171 486 -174 c 0
EndSplineSet
Validated: 1
EndChar

StartChar: parenright
Encoding: 41 41 73
Width: 428
VWidth: 0
Flags: W
VStem: 301 54<443.518 967.471>
LayerCount: 2
Back
SplineSet
-32 -178.799804688 m 4
 68.5126953125 -81.0224609375 151.54296875 34.67578125 212 161.200195312 c 4
 292.169921875 328.98046875 328 485.795898438 328 701.200195312 c 28
 328 916.604492188 292.169921875 1073.41992188 212 1241.20019531 c 4
 151.54296875 1367.72460938 68.5126953125 1483.421875 -32 1581.20019531 c 4
  Spiro
    -32 -178.8 {
    212 161.2 o
    328 701.2 o
    212 1241.2 o
    -32 1581.2 o
    0 0 z
  EndSpiro
EndSplineSet
Fore
SplineSet
-39 -197 m 0
 -49 -197 -59 -191 -59 -183 c 0
 -59 -179 -57 -175 -53 -171 c 0
 152 30 301 311 301 697 c 0
 301 1085 152 1367 -55 1569 c 0
 -57 1571 -58 1574 -58 1577 c 0
 -58 1589 -40 1599 -25 1599 c 0
 -19 1599 -13 1598 -9 1594 c 0
 203 1389 355 1101 355 706 c 0
 355 309 202 21 -11 -186 c 0
 -18 -193 -29 -197 -39 -197 c 0
EndSplineSet
Validated: 1
EndChar

StartChar: quotedbl
Encoding: 34 34 74
AltUni2: 00030e.ffffffff.0 00030b.ffffffff.0 0002ba.ffffffff.0
Width: 482
VWidth: 0
Flags: W
HStem: 1167 280<114.168 194.129 284.168 364.129>
VStem: 101 110<1169.14 1443.96> 271 110<1169.14 1443.96>
LayerCount: 2
Back
SplineSet
298.045898438 1368 m 0
 298.045898438 1394.49609375 312.543945312 1429.20019531 328 1429.20019531 c 0
 343.456054688 1429.20019531 354.045898438 1394.49609375 354.045898438 1368 c 0
 354.045898438 1341.50390625 343.456054688 1185.20019531 328 1185.20019531 c 0
 312.543945312 1185.20019531 298.045898438 1341.50390625 298.045898438 1368 c 0
128.045898438 1368 m 4
 128.045898438 1394.49609375 142.543945312 1429.20019531 158 1429.20019531 c 4
 173.456054688 1429.20019531 184.045898438 1394.49609375 184.045898438 1368 c 4
 184.045898438 1341.50390625 173.456054688 1185.20019531 158 1185.20019531 c 4
 142.543945312 1185.20019531 128.045898438 1341.50390625 128.045898438 1368 c 4
EndSplineSet
Fore
SplineSet
271 1364 m 2
 271 1376 274 1389 278 1401 c 0
 281 1410 291 1447 335 1447 c 0
 379 1447 381 1402 381 1378 c 0
 381 1376 381 1374 381 1372 c 0
 381 1347 374 1232 360 1194 c 1
 360 1194 360 1167 321 1167 c 0
 275 1167 271 1289 271 1342 c 2
 271 1364 l 2
101 1364 m 2
 101 1376 104 1389 108 1401 c 0
 111 1410 121 1447 165 1447 c 0
 209 1447 211 1402 211 1378 c 0
 211 1376 211 1374 211 1372 c 0
 211 1347 204 1232 190 1194 c 1
 190 1194 190 1167 151 1167 c 0
 105 1167 101 1289 101 1342 c 2
 101 1364 l 2
EndSplineSet
Validated: 1
EndChar

StartChar: quotesingle
Encoding: 39 39 75
AltUni2: 0002c8.ffffffff.0 0002bc.ffffffff.0 0002b9.ffffffff.0
Width: 312
VWidth: 0
Flags: W
HStem: 1167 280<114.168 194.129>
VStem: 101 54<1345.61 1380.74> 157 54<1347.03 1380.31>
LayerCount: 2
Back
SplineSet
128.045898438 1368 m 0
 128.045898438 1394.49609375 142.543945312 1429.20019531 158 1429.20019531 c 0
 173.456054688 1429.20019531 184.045898438 1394.49609375 184.045898438 1368 c 0
 184.045898438 1341.50390625 173.456054688 1185.20019531 158 1185.20019531 c 0
 142.543945312 1185.20019531 128.045898438 1341.50390625 128.045898438 1368 c 0
EndSplineSet
Fore
SplineSet
155 1372 m 0
 155 1367 155 1358 156 1345 c 1
 156 1353 157 1361 157 1364 c 0
 157 1370 157 1374 156 1381 c 1
 156 1378 155 1375 155 1372 c 0
101 1364 m 2
 101 1376 104 1389 108 1401 c 0
 111 1410 121 1447 165 1447 c 0
 209 1447 211 1402 211 1378 c 0
 211 1376 211 1374 211 1372 c 0
 211 1347 204 1232 190 1194 c 1
 190 1194 190 1167 151 1167 c 0
 105 1167 101 1289 101 1342 c 2
 101 1364 l 2
EndSplineSet
Validated: 1
EndChar

StartChar: bracketleft
Encoding: 91 91 76
Width: 424
VWidth: 0
Flags: W
HStem: -198 36<255 407.804> 1560 36<255 409.043>
VStem: 201 54<-162 1560>
LayerCount: 2
Back
SplineSet
383 1578 m 21
 283 1578 328 1578 228 1578 c 13
 228 -180 l 29
 382 -180 l 29
EndSplineSet
Fore
SplineSet
410 1583 m 0
 410 1569 391 1560 376 1560 c 2
 255 1560 l 1
 255 -162 l 1
 389 -162 l 2
 403 -162 412 -170 408 -180 c 0
 404 -190 389 -198 375 -198 c 2
 221 -198 l 2
 210 -198 201 -192 201 -184 c 0
 201 403 201 990 201 1577 c 1
 204 1587 220 1596 235 1596 c 2
 390 1596 l 2
 402 1596 410 1591 410 1583 c 0
EndSplineSet
Validated: 1
EndChar

StartChar: bracketright
Encoding: 93 93 77
Width: 424
VWidth: 0
Flags: W
HStem: -198 36<16.1955 169> 1560 36<14.9567 169>
VStem: 169 54<-162 1560>
LayerCount: 2
Back
SplineSet
41 1578 m 21
 141 1578 96 1578 196 1578 c 13
 196 -180 l 29
 42 -180 l 29
EndSplineSet
Fore
SplineSet
14 1573 m 0
 14 1587 33 1596 48 1596 c 2
 203 1596 l 2
 215 1596 223 1589 223 1582 c 2
 223 -176 l 2
 223 -188 203 -198 189 -198 c 2
 35 -198 l 2
 21 -198 12 -190 16 -180 c 0
 20 -170 35 -162 49 -162 c 2
 169 -162 l 1
 169 1560 l 1
 34 1560 l 2
 22 1560 14 1565 14 1573 c 0
EndSplineSet
Validated: 1
EndChar

StartChar: bar
Encoding: 124 124 78
AltUni2: 0001c0.ffffffff.0
Width: 456
VWidth: 0
Flags: W
VStem: 201 54<-196.9 1594.9>
LayerCount: 2
Back
SplineSet
228 1578 m 13
 228 -180 l 29
EndSplineSet
Fore
SplineSet
228 1595 m 0
 230 1595 232 1595 234 1595 c 0
 246 1595 255 1590 255 1582 c 2
 255 -176 l 2
 255 -185 243 -195 228 -197 c 0
 226 -197 224 -197 222 -197 c 0
 210 -197 201 -192 201 -184 c 2
 201 1574 l 2
 201 1583 213 1593 228 1595 c 0
EndSplineSet
Validated: 1
EndChar

StartChar: ampersand
Encoding: 38 38 79
Width: 1210
VWidth: 0
Flags: W
HStem: -18 36<392.945 619.671> 471 36<822.196 993 1043.41 1174.04> 1350 36<492.218 667.867>
VStem: 94 54<222.338 461.677> 250 54<873.185 1158.54> 789 54<1018.34 1243.35> 993 53<372.795 471>
LayerCount: 2
Back
SplineSet
1148 489.200195312 m 17
 1048 489.200195312 948 489.200195312 848 489.200195312 c 9
  Spiro
    1148 489.2 {
    848 489.2 v
    0 0 z
  EndSpiro
1022 489.200012207 m 0
 1005.22821424 359.066383021 942.953015858 234.998681664 847.673181734 144.78888479 c 0
 752.636143134 54.808963789 625.188954743 -1.84862612787 492 0 c 0
 385.321478284 1.48066859528 277.737505821 43.8970673092 206.380554805 123.210905425 c 0
 156.157539038 179.034200641 121.009048358 247.931621064 121.009048358 344.077969667 c 0
 121.009048358 546.677600392 310.461914062 617.706054688 432 713.200195312 c 0
 544 801.200195312 680.268681186 852.054782412 762 969.200012207 c 0
 795.057442536 1016.58113561 816.308939175 1071.74113962 816.308939175 1131.44478884 c 0
 816.308939175 1185.69826994 800.669921875 1247.76367188 765.302734375 1288.89453125 c 0
 723.069335938 1338.01074219 664.258789062 1368 588 1368 c 3
 544.212890625 1368 500.416015625 1356.78222656 461.302734375 1336.89453125 c 0
 354.631835938 1282.65527344 277.312394619 1166.04820456 277.312394619 1019.83079386 c 0
 277.312394619 869.56317991 347.168844099 760.921114104 418 669.200012207 c 0
 510.580799142 549.314732857 623.205968999 446.672292196 729.600717754 338.858369106 c 0
 835.995466509 231.044446016 938.114797429 118.866535715 1032 0 c 0
1148 489.200195312 m 17
 1048 489.200195312 948 489.200195312 848 489.200195312 c 9
  Spiro
    1148 489.2 {
    848 489.2 v
    0 0 z
  EndSpiro
EndSplineSet
Fore
SplineSet
1175 494 m 0
 1175 480 1156 471 1141 471 c 2
 1046 471 l 1
 1029 366 982 266 912 183 c 1
 962 127 1011 70 1057 11 c 0
 1058.69077721 8.82614358974 1059.44809235 6.57936045583 1059.44809235 4.34243964946 c 0
 1059.44809235 -7.02172136411 1039.90243951 -18.1313441823 1023.90705854 -18.1313441823 c 0
 1016.98046283 -18.1313441823 1010.71961856 -16.0480537573 1007 -11 c 0
 965 43 923 93 877 145 c 1
 780 48 638 -18 492 -18 c 2
 485 -18 l 1
 283 -15 94 119 94 340 c 0
 94 526 254 612 369 691 c 1
 307 777 250 879 250 1015 c 0
 250 1164 329 1289 449 1350 c 0
 494 1373 545 1386 595 1386 c 0
 745 1386 843 1281 843 1136 c 0
 843 1074 821 1015 786 965 c 0
 700 841 556 787 451 704 c 0
 446 700 440 695 434 691 c 1
 527 567 643 462 753 351 c 0
 797 306 841 261 883 215 c 1
 940 289 978 378 993 471 c 1
 841 471 l 2
 827 471 818 479 822 489 c 0
 826 499 841 507 855 507 c 2
 1155 507 l 2
 1167 507 1175 502 1175 494 c 0
148 348 m 0
 148 147 322 20 499 18 c 1
 506 18 l 2
 634 18 766 80 849 175 c 1
 802 227 755 278 706 327 c 0
 600 434 486 537 393 658 c 0
 392 659 392 660 391 661 c 1
 273 582 148 513 148 348 c 0
412 722 m 1
 413 723 l 1
 532 816 661 863 738 973 c 0
 769 1018 789 1070 789 1127 c 0
 789 1179 774 1239 741 1277 c 0
 701 1324 647 1350 581 1350 c 0
 544 1350 508 1341 474 1324 c 0
 381 1277 304 1167 304 1024 c 0
 304 899 354 804 412 722 c 1
EndSplineSet
Validated: 1
EndChar

StartChar: braceright
Encoding: 125 125 80
Width: 464
VWidth: 0
Flags: W
HStem: -197 36<-58.3949 43.3519> 1563 36<-58.3482 24.918>
VStem: 179 54<248.161 620.283 784.416 1154.93>
LayerCount: 2
Back
SplineSet
-32 -178.799804688 m 4
 64.0388183594 -184.225708008 121.54296875 -115.32421875 182 11.2001953125 c 4
 253.827148438 161.51953125 200.0625 413.038085938 206.826171875 595.774414062 c 4
 207.612304688 617.000976562 308 678.783203125 308 701.200195312 c 4
 308 721.211914062 207.690429688 780.717773438 207.065429688 799.774414062 c 4
 200.959960938 985.836914062 254.721679688 1229.00683594 182 1381.20019531 c 4
 121.54296875 1507.72460938 64.0388183594 1579.77429199 -32 1581.20019531 c 4
EndSplineSet
Fore
SplineSet
-59 -183 m 0
 -59 -168 -38 -160 -23 -161 c 1
 -15 -161 l 2
 49 -161 95 -113 156 13 c 0
 184 72 192 150 192 233 c 0
 192 338 179 453 179 554 c 0
 179 567 180 580 180 592 c 0
 181 627 274 684 281 697 c 1
 272 714 181 764 180 795 c 1
 180 827 l 2
 180 930 193 1046 193 1152 c 0
 193 1234 185 1311 156 1372 c 0
 95 1500 38 1562 -39 1563 c 0
 -51 1563 -59 1569 -59 1577 c 0
 -59 1591 -40 1599 -25 1599 c 0
 90 1597 148 1515 208 1390 c 0
 239 1325 248 1244 248 1160 c 0
 248 1052 233 936 233 835 c 0
 233 825 234 815 234 805 c 1
 240 792 335 739 335 706 c 0
 335 670 241 611 234 599 c 1
 234 589 233 579 233 569 c 0
 233 470 248 353 248 243 c 0
 248 157 239 76 208 10 c 0
 152 -108 88 -197 -28 -197 c 2
 -41 -197 l 1
 -52 -196 -59 -190 -59 -183 c 0
EndSplineSet
Validated: 1
EndChar

StartChar: braceleft
Encoding: 123 123 81
Width: 464
VWidth: 0
Flags: W
HStem: -197 36<430.644 522.242> 1563 36<429.701 520.251>
VStem: 231 54<14.2365 614.205 777.27 1147.89>
LayerCount: 2
Back
SplineSet
496.024414062 -178.799804688 m 4
 399.986328125 -184.225585938 342.481445312 -115.32421875 282.024414062 11.2001953125 c 4
 210.197265625 161.51953125 263.961914062 413.038085938 257.198242188 595.774414062 c 4
 256.412109375 617.000976562 156.024414062 678.783203125 156.024414062 701.200195312 c 4
 156.024414062 721.211914062 256.333984375 780.717773438 256.958984375 799.774414062 c 4
 263.064453125 985.836914062 209.302734375 1229.00683594 282.024414062 1381.20019531 c 4
 342.481445312 1507.72460938 399.986328125 1579.77441406 496.024414062 1581.20019531 c 4
EndSplineSet
Fore
SplineSet
492 -197 m 1
 478 -197 l 2
 369 -197 314 -118 256 2 c 0
 225 66 217 147 217 233 c 0
 217 342 231 457 231 556 c 0
 231 568 230 580 230 591 c 1
 225 605 129 662 129 697 c 0
 129 731 222 786 230 797 c 1
 230 807 230 817 230 827 c 0
 230 929 216 1044 216 1153 c 0
 216 1237 225 1317 256 1383 c 0
 315 1506 379 1597 502 1599 c 0
 516.377674462 1599 522.022821986 1593.84637754 522.022821986 1587.43898032 c 0
 522.022821986 1576.91171295 506.784283935 1563 490 1563 c 0
 421 1562 370 1510 308 1380 c 0
 279 1320 272 1244 272 1161 c 0
 272 1055 285 939 285 837 c 0
 285 826 284 815 284 804 c 0
 283 771 193 719 183 705 c 1
 192 687 283 634 284 601 c 0
 284 589 285 577 285 564 c 0
 285 463 272 346 272 240 c 0
 272 157 280 80 308 20 c 0
 367 -104 422 -161 493 -161 c 2
 500 -161 l 1
 513 -160 523 -166 523 -175 c 0
 523 -187 506 -196 492 -197 c 1
EndSplineSet
Validated: 1
EndChar

StartChar: slash
Encoding: 47 47 82
Width: 1412
VWidth: 0
Flags: W
LayerCount: 2
Back
SplineSet
1168 1578 m 13
 228 -180 l 29
EndSplineSet
Fore
SplineSet
1178 1596 m 0
 1189 1595 1195 1590 1195 1583 c 0
 1195 1581 1194 1578 1193 1576 c 2
 253 -182 l 2
 248 -191 234 -198 221 -198 c 0
 220 -198 219 -198 218 -198 c 0
 207 -197 201 -192 201 -185 c 0
 201 -183 202 -180 203 -178 c 2
 1143 1580 l 2
 1148 1589 1162 1596 1175 1596 c 0
 1176 1596 1177 1596 1178 1596 c 0
EndSplineSet
Validated: 1
EndChar

StartChar: hyphen
Encoding: 45 45 83
Width: 564
VWidth: 0
Flags: W
HStem: 513 36<81.1955 482.804>
VStem: 81 402.954
LayerCount: 2
Back
SplineSet
107 531 m 29
 457 531 l 21
EndSplineSet
Fore
SplineSet
81 531 m 0
 85 541 100 549 114 549 c 2
 464 549 l 2
 475.733224844 549 483.954496493 543.380874888 483.954496493 535.674613506 c 0
 483.954496493 534.185818901 483.647650045 532.619125112 483 531 c 0
 479 521 464 513 450 513 c 2
 100 513 l 2
 88.2667751562 513 80.0455035072 518.619125112 80.0455035072 526.325386494 c 0
 80.0455035072 527.814181099 80.3523499554 529.380874888 81 531 c 0
EndSplineSet
Validated: 1
EndChar

StartChar: plus
Encoding: 43 43 84
Width: 824
VWidth: 0
Flags: W
HStem: 513 36<160.689 385 439 663.311>
VStem: 385 54<289.1 513 549 772.9>
LayerCount: 2
Back
SplineSet
412 306 m 29
 412 756 l 21
187 531 m 29
 637 531 l 21
EndSplineSet
Fore
SplineSet
664 535 m 0
 664 522 644 513 630 513 c 2
 439 513 l 1
 439 310 l 2
 439 301 427 291 412 289 c 0
 410 289 408 289 406 289 c 0
 394 289 385 294 385 302 c 2
 385 513 l 1
 180 513 l 2
 168 513 160 519 160 527 c 0
 160 540 180 549 194 549 c 2
 385 549 l 1
 385 752 l 2
 385 761 397 771 412 773 c 0
 414 773 416 773 418 773 c 0
 430 773 439 768 439 760 c 2
 439 549 l 1
 644 549 l 2
 656 549 664 543 664 535 c 0
EndSplineSet
Validated: 1
EndChar

StartChar: equal
Encoding: 61 61 85
Width: 924
VWidth: 0
Flags: W
HStem: 413 36<160.957 763.043> 613 36<160.957 763.043>
VStem: 160 604<413 449 613 649>
LayerCount: 2
Back
SplineSet
737 631 m 1
 187 630.44921875 l 1
187 431 m 13
 737 431 l 21
EndSplineSet
Fore
SplineSet
160 626 m 0
 160 640 179 649 194 649 c 2
 744 649 l 2
 756 649 764 644 764 636 c 0
 764 622 745 613 730 613 c 2
 180 613 l 2
 168 613 160 618 160 626 c 0
160 426 m 0
 160 440 179 449 194 449 c 2
 744 449 l 2
 756 449 764 444 764 436 c 0
 764 422 745 413 730 413 c 2
 180 413 l 2
 168 413 160 418 160 426 c 0
EndSplineSet
Validated: 1
EndChar

StartChar: asterisk
Encoding: 42 42 86
Width: 828
VWidth: 0
Flags: W
HStem: 513 36<160.957 371 453 663.043>
VStem: 160 504<513 549>
LayerCount: 2
Back
SplineSet
299.5 725.85546875 m 25
 524.5 336.14453125 l 17
299.5 336.14453125 m 25
 524.5 725.85546875 l 17
187 531 m 25
 637 531 l 17
EndSplineSet
Fore
SplineSet
160 526 m 0
 160 540 179 549 194 549 c 2
 371 549 l 1
 274 716 l 2
 272.752087952 717.975860743 272.185487864 719.962535962 272.185487864 721.915040608 c 0
 272.185487864 733.380487318 291.723233262 743.667649811 307.571084453 743.667649811 c 0
 314.976303906 743.667649811 321.575868534 741.421541487 325 736 c 2
 414 581 l 1
 500 728 l 2
 506 737 519 744 532 744 c 0
 533 744 534 744 535 744 c 0
 549 743 555 733 549 723 c 2
 449 549 l 1
 644 549 l 2
 656 549 664 544 664 536 c 0
 664 522 645 513 630 513 c 2
 453 513 l 1
 550 346 l 2
 551.247912048 344.024139257 551.814512136 342.037464038 551.814512136 340.084959392 c 0
 551.814512136 328.619512682 532.276766738 318.332350189 516.428915547 318.332350189 c 0
 509.023696094 318.332350189 502.424131466 320.578458513 499 326 c 2
 410 481 l 1
 324 334 l 2
 318 325 305 318 292 318 c 0
 291 318 290 318 289 318 c 0
 275 319 269 329 275 339 c 2
 375 513 l 1
 180 513 l 2
 168 513 160 518 160 526 c 0
EndSplineSet
Validated: 1
EndChar

StartChar: percent
Encoding: 37 37 87
Width: 1436
VWidth: 0
Flags: W
HStem: -89 36<972.937 1096.4> 639 36<960.427 1083.34> 756 36<314.937 438.238> 1484 36<302.594 425.344>
VStem: 97 54<982.557 1294.76> 593 54<979.749 1287.87> 755 54<137.961 450.263> 1251 54<135.152 443.296>
LayerCount: 2
Back
SplineSet
1028 -70.7998046875 m 3
 904 -70.7998046875 782 79.2001953125 782 292.200195312 c 3
 782 505.200195312 904 657.200195312 1028 657.200195312 c 3
 1152 657.200195312 1278 505.200195312 1278 292.200195312 c 3
 1278 79.2001953125 1152 -70.7998046875 1028 -70.7998046875 c 3
1168 1578 m 13
 228 -180 l 29
370 774 m 3
 246 774 124 924 124 1137 c 3
 124 1350 246 1502 370 1502 c 3
 494 1502 620 1350 620 1137 c 3
 620 924 494 774 370 774 c 3
EndSplineSet
Fore
SplineSet
1035 -53 m 0
 1097 -53 1180 5 1224 126 c 0
 1241 173 1251 228 1251 288 c 0
 1251 500 1120 639 1021 639 c 0
 960 639 880 582 837 463 c 0
 819 415 809 359 809 297 c 0
 809 85 936 -53 1035 -53 c 0
1305 297 m 0
 1305 97 1188 -89 1021 -89 c 0
 872 -89 755 74 755 288 c 0
 755 486 868 675 1035 675 c 0
 1184 675 1305 511 1305 297 c 0
1178 1596 m 0
 1188.71294066 1595.23478995 1194.74150999 1589.78520858 1194.74150999 1582.78771788 c 0
 1194.74150999 1580.64067274 1194.17394977 1578.34789953 1193 1576 c 2
 253 -182 l 2
 248 -191 234 -198 221 -198 c 0
 220 -198 219 -198 218 -198 c 0
 207 -197 201 -192 201 -185 c 0
 201 -183 202 -180 203 -178 c 2
 1143 1580 l 2
 1148 1589 1162 1596 1175 1596 c 0
 1176 1596 1177 1596 1178 1596 c 0
377 792 m 0
 439 792 522 850 566 971 c 0
 583 1018 593 1073 593 1133 c 0
 593 1345 462 1484 363 1484 c 0
 302 1484 222 1426 179 1307 c 0
 161 1259 151 1203 151 1141 c 0
 151 929 278 792 377 792 c 0
647 1141 m 0
 647 941 529 756 363 756 c 0
 214 756 97 919 97 1133 c 0
 97 1331 211 1520 377 1520 c 0
 526 1520 647 1355 647 1141 c 0
EndSplineSet
Validated: 1
EndChar

StartChar: at
Encoding: 64 64 88
Width: 1688
VWidth: 0
Flags: W
HStem: -381 36<820.936 1121.19> -18 36<728.661 980.017 1203.56 1317.82> 895 36<755.153 938.622> 1350 35<716.437 984.336>
VStem: 110 54<313.847 737.172> 424 54<277.369 590.813> 1135 54<70.0492 716.288 786 929.093> 1502 54<268.459 757.892>
LayerCount: 2
Back
SplineSet
920 -283 m 4
 748 -385 509 -390 298 -295 c 4
 137 -223 -5 -95 -96 57 c 4
 -166 174 -207 303 -219 429 c 4
 -231 555 -217 679 -182 793 c 4
 -147 909 -91 1016 -16 1107 c 4
 59 1198 153 1275 265 1321 c 4
 363 1362 475 1379 590 1360 c 4
 705 1341 819 1285 910 1201 c 4
 1021 1099 1091 961 1128 824 c 4
 1165 687 1175 547 1165 413 c 4
 1158 312 1138 212 1087 131 c 4
 1062 90 1028 55 986 31 c 4
 935 2 817 -36 802 69 c 6
 802 913 l 5
802 69 m 5
 714 41 610 0 453 0 c 7
 262 0 81 184 91 451 c 4
 101 718 300 913 491 913 c 15
 661.986328125 913 804 777 798 600 c 13
  Spiro
    802 69 {
    707.399 38.6973 o
    593.578 11.6453 o
    453 0 o
    272.201 57.4812 o
    137.866 215.608 o
    91 451 o
    156.59 689.239 o
    304.804 852.672 o
    491 913 o
    647.781 871.265 o
    759.15 759.676 o
    798 600 v
    0 0 z
  EndSpiro
EndSplineSet
Fore
SplineSet
1135 587 m 1
 1132 589 1131 593 1131 596 c 2
 1131 607 l 2
 1131 775 993 895 844 895 c 0
 719 895 573 792 509 615 c 0
 491 566 480 512 478 455 c 0
 478 448 478 441 478 434 c 0
 478 182 655 18 820 18 c 0
 959 18 1051 50 1135 78 c 1
 1135 587 l 1
424 447 m 1
 433 714 637 931 858 931 c 0
 977 931 1078 874 1135 786 c 1
 1135 909 l 2
 1135 920.64516129 1155.28511967 930.036420395 1170.98972844 930.036420395 c 0
 1180.90842872 930.036420395 1189 926.290322581 1189 917 c 2
 1189 74 l 1
 1196 29 1219 17 1245 17 c 0
 1277 17 1312 32 1332 43 c 0
 1463 116 1502 313 1502 506 c 0
 1502 609 1489 714 1461 817 c 0
 1424 953 1356 1088 1247 1188 c 0
 1158 1270 1047 1325 938 1343 c 0
 908 1348 880 1350 851 1350 c 0
 774 1350 701 1334 635 1306 c 0
 426 1220 273 1020 204 794 c 0
 178 709 164 618 164 525 c 0
 164 495 165 464 168 434 c 0
 200 102 418 -164 676 -279 c 0
 775 -324 878 -345 976 -345 c 0
 1083 -345 1183 -319 1265 -271 c 0
 1270.98424151 -267.409455097 1277.54146135 -265.881632226 1283.64300731 -265.881632226 c 0
 1296.04417345 -265.881632226 1306.56299373 -272.192924394 1306.56299373 -280.324542033 c 0
 1306.56299373 -284.906240666 1303.22361117 -290.065833301 1295 -295 c 0
 1197 -353 1083 -381 964 -381 c 0
 855 -381 743 -357 640 -311 c 0
 372 -191 146 80 114 424 c 0
 111 454 110 483 110 513 c 0
 110 609 124 703 152 792 c 1
 187 910 244 1019 321 1112 c 0
 438 1253 611 1385 860 1385 c 0
 894 1385 928 1383 962 1377 c 0
 1083 1357 1200 1300 1293 1214 c 0
 1406 1110 1478 969 1515 831 c 0
 1543 726 1556 619 1556 515 c 0
 1556 296 1510 107 1360 19 c 0
 1331 2 1286 -18 1237 -18 c 0
 1193 -18 1154 -1 1140 44 c 1
 1058 17 952 -18 806 -18 c 0
 599 -18 424 166 424 425 c 2
 424 447 l 1
EndSplineSet
Validated: 1
EndChar

StartChar: backslash
Encoding: 92 92 89
Width: 1236
VWidth: 0
Flags: W
LayerCount: 2
Back
SplineSet
92 1578 m 13
 1032 -180 l 29
EndSplineSet
Fore
SplineSet
65 1573 m 0
 65 1584 81 1595 98 1595 c 0
 107 1595 115 1592 118 1587 c 2
 1058 -171 l 2
 1059 -172 1059 -173 1059 -175 c 0
 1059 -186 1043 -197 1026 -197 c 0
 1017 -197 1009 -194 1006 -189 c 2
 66 1569 l 2
 65 1570 65 1571 65 1573 c 0
EndSplineSet
Validated: 1
EndChar

StartChar: exclam
Encoding: 33 33 90
Width: 406
VWidth: 0
Flags: W
HStem: -33 132<156.85 259.204>
VStem: 162 96<-31.7305 98.5896 727.937 1361.81>
LayerCount: 2
Back
SplineSet
162.018554688 1156.79980469 m 4
 162.018554688 1183.29589844 196.516601562 1368 211.97265625 1368 c 4
 227.428710938 1368 258.018554688 1183.29589844 258.018554688 1156.79980469 c 4
 258.018554688 1130.30371094 223.428710938 233.290039062 207.97265625 233.290039062 c 4
 192.516601562 233.290039062 162.018554688 1130.30371094 162.018554688 1156.79980469 c 4
EndSplineSet
Fore
SplineSet
162 1157 m 0
 162 1183 197 1368 212 1368 c 0
 227 1368 258 1183 258 1157 c 0
 258 1131 223 233 208 233 c 0
 193 233 162 1131 162 1157 c 0
153 29 m 0
 153 39 155 49 158 58 c 0
 162 70 175 99 214 99 c 0
 257 99 263 63 263 38 c 0
 263 28 261 17 258 8 c 0
 254 -4 240 -33 201 -33 c 0
 158 -33 153 4 153 29 c 0
EndSplineSet
Validated: 1
EndChar

StartChar: question
Encoding: 63 63 91
Width: 933
VWidth: 0
Flags: W
HStem: -33 132<406.85 509.204> 1350 36<332.9 559.257>
VStem: 403 110<-30.477 96.995> 434 54<210.035 400.501> 813 54<852.131 1125.43>
LayerCount: 2
Back
SplineSet
405.972381592 227.290328979 m 0
 396.676863387 278.181133553 400.856461521 331.471009761 417.972381592 380.290328979 c 0
 447.591141888 464.771192865 512.222667626 531.47320046 573.972381592 596.290328979 c 0
 637.157740124 662.614417652 699.710920315 731.743746295 738.730074206 814.621848956 c 0
 777.749228098 897.499951617 791.630464349 993.28353221 769.972381592 1082.2902832 c 0
 750.300572588 1163.13417993 701.905449617 1236.51487414 635.850321775 1287.10574083 c 0
 569.795193932 1337.69660752 487.137938603 1365.50884891 403.972381592 1368 c 0
 327.199444057 1370.29966579 250.025379854 1351.42657936 182.470739114 1314.87876253 c 0
 114.916098374 1278.3309457 57.0275490885 1224.13179483 16 1159.20019531 c 0
  Spiro
    405.972 227.29 {
    417.972 380.29 c
    573.972 596.29 o
    769.972 1082.29 o
    403.972 1368 o
    16 1159.2 o
    0 0 z
  EndSpiro
EndSplineSet
Fore
SplineSet
488 286 m 0xd8
 488 269.820224719 492.039893953 252.832470648 492.039893953 239.031239672 c 0
 492.039893953 222.124731726 485.97752809 210 459 210 c 0
 448 210 441 214 439 221 c 0
 436 239 434 258 434 276 c 0
 434 311 440 346 452 380 c 0
 483 469 550 538 612 603 c 0
 706 702 813 812 813 990 c 0
 813 1196 653 1345 456 1350 c 1
 445 1350 l 2
 286 1350 167 1261 101 1156 c 0
 94 1144 49 1132 49 1155 c 0
 49 1157 50 1160 51 1162 c 0
 126 1281 271 1386 456 1386 c 2
 472 1386 l 1
 665 1380 818 1252 857 1089 c 0
 864 1060 867 1030 867 1001 c 0
 867 812 752 692 656 590 c 0
 594 525 532 460 504 380 c 0
 494 350 488 318 488 286 c 0xd8
403 29 m 0xe8
 403 39 405 49 408 58 c 0
 412 70 425 99 464 99 c 0
 507 99 513 63 513 38 c 0
 513 28 511 17 508 8 c 0
 504 -4 490 -33 451 -33 c 0
 408 -33 403 4 403 29 c 0xe8
EndSplineSet
Validated: 1
EndChar

StartChar: asciitilde
Encoding: 126 126 92
AltUni2: 000303.ffffffff.0
Width: 932
VWidth: 0
Flags: W
HStem: 430.736 35.7645<561.909 680.387> 583.249 35.8558<247.511 369.76>
VStem: 161 601
LayerCount: 2
Back
SplineSet
187 521 m 4
 200.69935588 554.168038962 228.984969378 580.888432912 262.71976799 593.125855956 c 4
 296.454566602 605.363279 334.539829146 602.969979954 367.999816895 590 c 4
 406.170408218 575.204064986 437.891322353 547.874412044 469.009506044 521.274179363 c 4
 500.127689735 494.673946682 532.975552292 468.370145801 571.999816895 456 c 4
 602.791026812 446.239617327 636.872204381 445.82412269 667.072289461 457.283552837 c 4
 697.27237454 468.742982984 722.897720538 491.939900343 737 521 c 4
  Spiro
    187 521 {
    368 590 o
    572 456 o
    737 521 v
    0 0 z
  EndSpiro
EndSplineSet
Fore
SplineSet
180 503 m 0
 166 503 157 512 161 522 c 0
 181.933139681 572.239535235 240.162198231 619.104460772 317.213180064 619.104460772 c 0
 447.584384429 619.104460772 491.216861766 502.328223707 588 473 c 0
 601 468.5 613.75 466.5 625.625 466.5 c 0
 667.847298078 466.5 694.692470064 488.716288584 712 522 c 1
 719.92900243 541.822506074 774.932092628 543.27776673 762 520 c 1
 740.284612217 472.226146876 684.822758119 430.735533965 611.017494417 430.735533965 c 0
 534.253606604 430.735533965 488.150860883 473.752425533 446 508 c 1
 405.064287084 543.653685443 366.731829665 583.248641506 302.288811372 583.248641506 c 0
 258.240458823 583.248641506 228.461524932 558.65381233 213 520 c 0
 209 511 194 503 180 503 c 0
EndSplineSet
EndChar

StartChar: asciicircum
Encoding: 94 94 93
AltUni2: 000302.ffffffff.0 0002c6.ffffffff.0 0002c4.ffffffff.0
Width: 963
VWidth: 0
Flags: W
HStem: 1046 280
VStem: 165 567<1056 1064>
LayerCount: 2
Back
SplineSet
192 1064 m 29
 449 1308 l 29
 706 1064 l 29
EndSplineSet
Fore
SplineSet
186 1046 m 0
 176 1046 165 1051 165 1060 c 0
 165 1064 167 1068 171 1072 c 2
 428 1316 l 2
 435 1322 447 1326 457 1326 c 0
 465 1326 468 1324 472 1320 c 2
 729 1076 l 2
 731 1074 732 1071 732 1068 c 0
 732 1056 715 1046 701 1046 c 0
 694 1046 687 1048 683 1052 c 2
 445 1277 l 1
 213 1056 l 2
 207 1050 196 1046 186 1046 c 0
EndSplineSet
Validated: 1
EndChar

StartChar: grave
Encoding: 96 96 94
Width: 963
VWidth: 0
Flags: W
HStem: 1137 200
VStem: 281 305
LayerCount: 2
Back
SplineSet
560.01171875 1155 m 29
 308.011917114 1319.415802 l 29
EndSplineSet
Fore
SplineSet
586 1159 m 0
 586 1146 568 1137 554 1137 c 0
 548 1137 543 1138 539 1141 c 2
 287 1305 l 2
 283 1308 281 1311 281 1315 c 0
 281 1328 301 1337 315 1337 c 0
 320 1337 325 1336 329 1334 c 2
 581 1169 l 2
 585 1166 586 1163 586 1159 c 0
EndSplineSet
Validated: 1
EndChar

StartChar: less
Encoding: 60 60 95
Width: 924
VWidth: 0
Flags: W
HStem: 313 34<754 762.94> 716 32<745 763.24>
VStem: 160 604
LayerCount: 2
Back
SplineSet
737 731 m 9
 187 531 l 29
 737 331 l 21
EndSplineSet
Fore
SplineSet
743 748 m 0
 753 748 764 745 764 736 c 0
 764 729 757 720 745 716 c 2
 243 533 l 1
 754 347 l 2
 760 345 764 340 764 335 c 0
 764 321 745 313 731 313 c 0
 727 313 723 314 720 315 c 2
 170 515 l 2
 166 517 160 520 160 526 c 0
 160 533 167 542 179 546 c 2
 729 746 l 2
 734 748 738 748 743 748 c 0
EndSplineSet
Validated: 1
EndChar

StartChar: greater
Encoding: 62 62 96
Width: 924
VWidth: 0
Flags: W
HStem: 314 32<160.76 179> 715 34<161.06 170>
VStem: 160 604
LayerCount: 2
Back
SplineSet
219 731 m 9
 769 531 l 29
 219 331 l 21
EndSplineSet
Fore
SplineSet
160 727 m 0
 160 741 179 749 193 749 c 0
 197 749 201 748 204 747 c 2
 754 547 l 2
 760 545 764 540 764 535 c 0
 764 526 752 519 745 516 c 2
 195 316 l 2
 190 314 186 314 181 314 c 0
 171 314 160 317 160 326 c 0
 160 333 167 342 179 346 c 2
 681 529 l 1
 170 715 l 2
 164 717 160 722 160 727 c 0
EndSplineSet
Validated: 1
EndChar

StartChar: dotlessi
Encoding: 305 305 135
Width: 470
VWidth: 0
Flags: W
HStem: -18 36<98.1948 226 280 410.316> 896 36<90.9567 225>
VStem: 226 54<18 896>
LayerCount: 2
Fore
SplineSet
90 909 m 0
 90 923 109 932 123 932 c 2
 258 932 l 2
 270 932 279 925 279 918 c 2
 280 18 l 1
 390 18 l 2
 402 18 411 12 411 4 c 0
 411 -10 391 -18 377 -18 c 2
 117 -18 l 2
 103 -18 94 -10 98 0 c 0
 102 10 116 18 130 18 c 2
 226 18 l 1
 225 896 l 1
 110 896 l 2
 98 896 90 901 90 909 c 0
EndSplineSet
Validated: 1
EndChar

StartChar: onequarter
Encoding: 188 188 136
Width: 2048
VWidth: 0
Flags: W
HStem: -18 36<1010.2 1155 1209 1361.8> 319 36<777 1155 1209 1401.32> 599 36<178.196 323 377 529.804>
VStem: 323 54<635 1482> 1155 54<18 319 355 839>
LayerCount: 2
Back
SplineSet
1182 0 m 13
 1182 908 l 21
 736 337.200195312 l 13
 1375 336.200195312 l 29
1336 0 m 29
 1036 0 l 21
188.103515625 1406.15820312 m 1
 350 1525.20019531 l 9
 350 617.200195312 l 17
504 617.200195312 m 25
 204 617.200195312 l 17
1168 1578 m 9
 228 -180 l 25
EndSplineSet
Fore
SplineSet
1155 354 m 1
 1155 839 l 1
 777 355 l 1
 1155 354 l 1
1402 341 m 0
 1402 327 1382 318 1368 318 c 2
 1209 319 l 1
 1209 18 l 1
 1343 18 l 2
 1357 18 1366 10 1362 -0 c 0
 1358 -10 1343 -18 1329 -18 c 2
 1029 -18 l 2
 1015 -18 1006 -10 1010 0 c 0
 1014 10 1029 18 1043 18 c 2
 1155 18 l 1
 1155 319 l 1
 729 319 l 1
 729 319 726 320 724 320 c 0
 715 321 709 327 709 333 c 0
 709 336 710 339 713 342 c 2
 1159 913 l 2
 1164 920 1175 926 1188 926 c 0
 1200 926 1209 920 1209 912 c 2
 1209 355 l 1
 1382 354 l 2
 1394 354 1402 349 1402 341 c 0
221 -198 m 0
 209 -198 201 -193 201 -185 c 0
 201 -183 202 -180 203 -178 c 2
 1143 1580 l 2
 1148 1589 1162 1596 1175 1596 c 0
 1186.97456531 1596 1194.48810172 1590.26439143 1194.48810172 1582.35443307 c 0
 1194.48810172 1580.35594195 1194.00847823 1578.21865211 1193 1576 c 2
 253 -182 l 2
 248 -191 234 -198 221 -198 c 0
530 617 m 0
 526 607 511 599 497 599 c 2
 197 599 l 2
 183 599 174 607 178 617 c 0
 182 627 197 635 211 635 c 2
 323 635 l 1
 323 1482 l 1
 206 1396 l 2
 193 1387 161 1382 161 1401 c 0
 161 1406 164 1412 170 1416 c 2
 332 1535 l 2
 338.2473562 1539.32509275 348.882639798 1542.26452422 358.245687971 1542.26452422 c 0
 368.366021625 1542.26452422 377 1538.83038035 377 1530 c 2
 377 635 l 1
 511 635 l 2
 522.733224844 635 530.954496493 629.380874888 530.954496493 621.674613506 c 0
 530.954496493 620.185818901 530.647650045 618.619125112 530 617 c 0
EndSplineSet
Validated: 1
EndChar

StartChar: onehalf
Encoding: 189 189 137
Width: 2048
VWidth: 0
Flags: W
HStem: -21 36<886 1298> 599 36<177.957 323 377 529.804> 893 36<1009.57 1159.44>
VStem: 323 54<635 1482> 1309 54<531.001 756.273>
LayerCount: 2
Back
SplineSet
188.103515625 1406.15820312 m 1
 350 1525.20019531 l 9
 350 617.200195312 l 17
504 617.200195312 m 25
 204 617.200195312 l 17
1421.24707031 135.030273438 m 1
 1311.1953125 -2.9697265625 l 1
 846.763671875 -2.9697265625 l 1
 897.373046875 73.2177734375 955.750976562 142.646484375 1018.92089844 205.80859375 c 0
 1082.09179688 268.970703125 1150.78125 324.981445312 1212.4296875 390.025390625 c 0
 1269.87109375 450.62890625 1336.35546875 534.008789062 1336.35546875 651.196289062 c 0
 1336.35546875 797.666992188 1219.56445312 911 1091 911 c 0
 995.342773438 911 953.620117188 864.315429688 894 780 c 0
1168 1578 m 9
 228 -180 l 25
EndSplineSet
Fore
SplineSet
1175 1596 m 0
 1187 1596 1195 1591 1195 1583 c 0
 1195 1581 1194 1578 1193 1576 c 2
 253 -182 l 2
 248 -191 234 -198 221 -198 c 0
 209 -198 201 -193 201 -185 c 0
 201 -183 202 -180 203 -178 c 2
 1143 1580 l 2
 1148 1589 1162 1596 1175 1596 c 0
1398 140 m 2
 1406 150 1448 162 1448 139 c 0
 1448 136 1446 133 1444 130 c 2
 1334 -8 l 2
 1328 -16 1316 -21 1305 -21 c 2
 840 -21 l 2
 823 -21 815 -9 822 1 c 0
 873 78 934 149 998 213 c 0
 1062 277 1131 334 1191 397 c 0
 1247 456 1309 534 1309 647 c 0
 1309 790 1193 893 1084 893 c 0
 1009 893 979 862 918 776 c 0
 911 767 895 761 882 763 c 0
 869 765 863 775 870 784 c 0
 928 866 982 929 1098 929 c 0
 1247 929 1363 806 1363 656 c 0
 1363 534 1293 445 1234 383 c 0
 1171 316 1102 261 1040 199 c 0
 984 143 933 82 886 15 c 1
 1298 15 l 1
 1398 140 l 2
177 612 m 0
 177 626 197 635 211 635 c 2
 323 635 l 1
 323 1482 l 1
 206 1396 l 2
 193 1387 161 1382 161 1401 c 0
 161 1406 164 1412 170 1416 c 2
 332 1535 l 2
 338.2473562 1539.32509275 348.882639798 1542.26452422 358.245687971 1542.26452422 c 0
 368.366021625 1542.26452422 377 1538.83038035 377 1530 c 2
 377 635 l 1
 511 635 l 2
 522.733224844 635 530.954496493 629.380874888 530.954496493 621.674613506 c 0
 530.954496493 620.185818901 530.647650045 618.619125112 530 617 c 0
 526 607 511 599 497 599 c 2
 197 599 l 2
 185 599 177 604 177 612 c 0
EndSplineSet
Validated: 1
EndChar

StartChar: threequarters
Encoding: 190 190 138
Width: 2048
VWidth: 0
Flags: W
HStem: -18 36<1010.2 1155 1209 1362.04> 319 35<816 1155 1209 1401.11> 602 36<205.094 386.172> 1101 35<278.94 366.061> 1515 36<169.16 376.563>
VStem: 524 54<762.884 968.793 1257.53 1402.75> 1155 54<18 319 354 832>
LayerCount: 2
Back
SplineSet
31.3095703125 1393.640625 m 0
 66.2548828125 1481.71679688 164.473632812 1533.29492188 276.340820312 1533.29492188 c 0
 404.833007812 1533.29492188 542.651367188 1466.85839844 542.651367188 1334.24609375 c 0
 542.651367188 1207.265625 420.8046875 1133.82714844 304.688476562 1118.7265625 c 1
 438.228515625 1110.02050781 551.2890625 1003.49707031 551.2890625 865.068359375 c 0
 551.2890625 728.833007812 432.94921875 619.674804688 293.134765625 619.674804688 c 0
 178.375976562 619.674804688 80.7919921875 686.370117188 21.005859375 753.065429688 c 0
  Spiro
    31.3091 1393.64 {
    84.1571 1468.85 o
    260.728 1532.97 o
    542.349 1318.11 o
    427.255 1159.07 o
    304.688 1118.73 v
    549.218 896.394 o
    277.213 620.146 o
    97.2724 685.745 o
    21.0059 753.065 v
    0 0 z
  EndSpiro
1182 0 m 9
 1182 908 l 17
 776 337.200195312 l 9
 1375 336.200195312 l 25
1336 0 m 25
 1036 0 l 17
1168 1578 m 13
 228 -180 l 29
EndSplineSet
Fore
SplineSet
1175 1596 m 0
 1187 1596 1195 1591 1195 1583 c 0
 1195 1581 1194 1578 1193 1576 c 2
 253 -182 l 2
 248 -191 234 -198 221 -198 c 0
 209 -198 201 -193 201 -185 c 0
 201 -183 202 -180 203 -178 c 2
 1143 1580 l 2
 1148 1589 1162 1596 1175 1596 c 0
1363 5 m 0
 1363 -9 1343 -18 1329 -18 c 2
 1029 -18 l 2
 1015 -18 1006 -10 1010 0 c 0
 1014 10 1029 18 1043 18 c 2
 1155 18 l 1
 1155 319 l 1
 769 319 l 1
 769 319 768 320 766 320 c 0
 752 322 745 331 752 341 c 2
 1158 912 l 2
 1166 922 1209 936 1209 912 c 2
 1209 354 l 1
 1382 354 l 2
 1394 354 1402 349 1402 341 c 0
 1402 327 1382 318 1368 318 c 2
 1209 319 l 1
 1209 18 l 1
 1343 18 l 2
 1355 18 1363 13 1363 5 c 0
1155 354 m 1
 1155 832 l 1
 816 355 l 1
 1155 354 l 1
300 638 m 0
 411 638 524 724 524 861 c 0
 524 995 414 1093 296 1101 c 0
 286 1102 278 1107 278 1114 c 0
 278 1124 291 1134 306 1136 c 0
 403 1149 507 1207 515 1317 c 0
 515 1321 516 1326 516 1330 c 0
 516 1455 386 1515 270 1515 c 0
 172 1515 89 1473 57 1393 c 0
 53 1383 38 1376 24 1376 c 0
 10 1376 1 1384 5 1394 c 0
 43 1490 157 1551 283 1551 c 0
 424 1551 570 1480 570 1339 c 0
 570 1234 488 1158 389 1122 c 1
 499 1085 578 988 578 869 c 0
 578 840 573 812 563 786 c 0
 526 684 418 602 287 602 c 0
 158 602 58 673 -3 741 c 0
 -5 743 -6 745 -6 748 c 0
 -6 765 30 780 45 765 c 1
 104 699 199 638 300 638 c 0
EndSplineSet
Validated: 1
EndChar

StartChar: copyright
Encoding: 169 169 139
Width: 1474
VWidth: 0
Flags: W
HStem: -17 36<607.117 858.781> 206 36<638.607 860.467> 1120 36<628.671 851.115> 1350 36<596.831 848.908>
VStem: 97 54<504.081 886.812> 350 54<510.433 849.263> 1305 54<496.491 881.506>
LayerCount: 2
Fore
SplineSet
350 674 m 0
 350 932 510 1156 725 1156 c 0
 878 1156 983 1112 1054 1019 c 0
 1055 1017 1056 1015 1056 1013 c 0
 1056 1009 1053 1004 1050 1001 c 2
 957 907 l 2
 948 898 932 894 920 898 c 0
 908 902 906 912 915 921 c 2
 998 1005 l 1
 933 1086 845 1120 712 1120 c 0
 609 1120 494 1035 437 879 c 0
 416 821 404 754 404 682 c 0
 404 417 571 242 725 242 c 0
 868 242 927 276 1008 342 c 0
 1018 350 1036 353 1046 348 c 0
 1056 343 1056 332 1046 324 c 0
 959 254 874 206 712 206 c 0
 512 206 350 406 350 674 c 0
97 689 m 0
 97 783 114 872 143 953 c 0
 234 1204 461 1386 735 1386 c 0
 1089 1386 1359 1083 1359 698 c 0
 1359 602 1342 511 1312 427 c 0
 1220 174 995 -17 721 -17 c 0
 366 -17 97 304 97 689 c 0
721 1350 m 0
 416 1350 151 1076 151 698 c 0
 151 319 423 19 735 19 c 0
 1038 19 1305 308 1305 689 c 0
 1305 1068 1034 1350 721 1350 c 0
EndSplineSet
Validated: 1
EndChar

StartChar: acute
Encoding: 180 180 140
AltUni2: 000341.ffffffff.0 000301.ffffffff.0
Width: 828
VWidth: 0
Flags: W
HStem: 1137 200
VStem: 245 306
LayerCount: 2
Back
SplineSet
271.98828125 1155 m 29
 523.98828125 1319.41601562 l 29
EndSplineSet
Fore
SplineSet
266 1137 m 0
 256 1137 245 1142 245 1151 c 0
 245 1156 249 1161 256 1166 c 2
 508 1331 l 2
 514 1335 523 1337 530 1337 c 0
 540 1337 551 1333 551 1324 c 0
 551 1319 547 1313 540 1308 c 2
 288 1144 l 2
 281 1139 273 1137 266 1137 c 0
EndSplineSet
Validated: 1
EndChar

StartChar: uni00B5
Encoding: 181 181 153
Width: 1160
VWidth: 0
Flags: W
HStem: -427 36<93.1955 220 274 404.804> -18 36<474.815 730.637 915 1045.32> 896 36<85.9567 220 726.196 860 914 1046.81>
VStem: 220 54<-391 134 203.252 896> 861 54<19 39 66.0761 896>
LayerCount: 2
Back
SplineSet
-1 -408.700195312 m 29
 259 -408.700195312 l 29
126.44140625 328.798828125 m 5
 126.627929688 82.7265625 126.813476562 -163.454101562 127 -408.700195312 c 12
901.129882812 4 m 5
 768 0 l 5
 767 914 l 5
632 914 m 21
 901.129882812 914 l 5
-8 914 m 29
 127 914 l 21
 127.129882812 331.200195312 l 6
 127.170898438 148.17578125 255.76171875 0 447.129882812 0 c 7
 604.237304688 0 683.91796875 39.3759765625 771.129882812 67.2001953125 c 5
EndSplineSet
Fore
SplineSet
85 909 m 0
 85 923 105 932 119 932 c 2
 254 932 l 2
 266 932 274 925 274 918 c 2
 274 336 l 2
 274 156 402 18 574 18 c 0
 711 18 780 48 861 75 c 1
 860 896 l 1
 745 896 l 2
 731 896 722 904 726 914 c 0
 730 924 745 932 759 932 c 2
 1028 932 l 2
 1042 932 1051 924 1047 914 c 0
 1043 904 1029 896 1015 896 c 2
 914 896 l 1
 915 79 l 1
 919 75 919 68 915 63 c 1
 915 19 l 1
 1026 22 l 2
 1038 22 1048 16 1048 8 c 0
 1048 -5 1030 -14 1016 -14 c 2
 883 -18 l 2
 871 -18 861 -12 861 -4 c 2
 861 39 l 1
 787 13 701 -18 561 -18 c 0
 430 -18 331 43 274 134 c 1
 274 -391 l 1
 386 -391 l 2
 400 -391 409 -399 405 -409 c 0
 401 -419 386 -427 372 -427 c 2
 112 -427 l 2
 98 -427 89 -419 93 -409 c 0
 97 -399 112 -391 126 -391 c 2
 220 -391 l 1
 220 896 l 1
 105 896 l 2
 93 896 85 901 85 909 c 0
EndSplineSet
Validated: 1
EndChar

StartChar: thorn
Encoding: 254 254 154
Width: 1048
VWidth: 0
Flags: W
HStem: -425 36<64.1948 192 246 375.804> -18 36<482.117 659.933> 896 36<456.316 646.177> 1334 36<56.9567 191>
VStem: 191 54<-389 172 248.064 713.78 762 1334> 921 54<292.945 612.072>
LayerCount: 2
Fore
SplineSet
56 1347 m 0
 56 1361 75 1370 89 1370 c 2
 224 1370 l 2
 236 1370 245 1364 245 1357 c 2
 245 762 l 1
 315 868 444 932 569 932 c 0
 782 932 975 728 975 459 c 0
 975 189 777 -18 556 -18 c 0
 433 -18 312 59 245 172 c 1
 246 -389 l 1
 356 -389 l 2
 370 -389 380 -397 376 -407 c 0
 372 -417 357 -425 343 -425 c 2
 83 -425 l 2
 69 -425 60 -417 64 -407 c 0
 68 -397 82 -389 96 -389 c 2
 192 -389 l 1
 191 1334 l 1
 76 1334 l 2
 64 1334 56 1339 56 1347 c 0
556 896 m 0
 414 896 246 786 246 591 c 0
 246 589 246 588 245 586 c 1
 245 350 l 1
 261 158 431 18 569 18 c 0
 692 18 830 112 891 279 c 0
 910 330 921 388 921 450 c 0
 921 714 726 896 556 896 c 0
EndSplineSet
Validated: 1
EndChar

StartChar: exclamdown
Encoding: 161 161 155
Width: 406
VWidth: 0
Flags: W
HStem: 856 132<156.796 259.15>
VStem: 158 96<-406.811 227.063 856.41 986.73>
LayerCount: 2
Fore
SplineSet
254 -202 m 0
 254 -228 219 -413 204 -413 c 0
 189 -413 158 -228 158 -202 c 0
 158 -176 193 722 208 722 c 0
 223 722 254 -176 254 -202 c 0
263 926 m 0
 263 916 261 906 258 897 c 0
 254 885 241 856 202 856 c 0
 159 856 153 892 153 917 c 0
 153 927 155 938 158 947 c 0
 162 959 176 988 215 988 c 0
 258 988 263 951 263 926 c 0
EndSplineSet
Validated: 1
EndChar

StartChar: questiondown
Encoding: 191 191 156
Width: 933
VWidth: 0
Flags: W
HStem: -427 36<356.743 583.1> 860 132<406.796 509.15>
VStem: 49 54<-166.426 106.869> 403 110<862.005 989.477> 428 54<558.499 748.965>
LayerCount: 2
Fore
SplineSet
428 673 m 0xe8
 428 689.179775281 423.960106047 706.167529352 423.960106047 719.968760328 c 0
 423.960106047 736.875268274 430.02247191 749 457 749 c 0
 468 749 475 745 477 738 c 0
 480 720 482 702 482 684 c 0
 482 649 476 613 464 579 c 0
 433 490 366 421 304 356 c 0
 210 257 103 147 103 -31 c 0
 103 -237 263 -386 460 -391 c 1
 471 -391 l 2
 630 -391 749 -302 815 -197 c 0
 822 -185 867 -173 867 -196 c 0
 867 -198 866 -201 865 -203 c 0
 790 -322 645 -427 460 -427 c 2
 444 -427 l 1
 251 -421 98 -293 59 -130 c 0
 52 -101 49 -71 49 -42 c 0
 49 147 164 267 260 369 c 0
 322 434 384 499 412 579 c 0
 422 609 428 641 428 673 c 0xe8
513 930 m 0xf0
 513 920 511 910 508 901 c 0
 504 889 491 860 452 860 c 0
 409 860 403 896 403 921 c 0
 403 931 405 942 408 951 c 0
 412 963 426 992 465 992 c 0
 508 992 513 955 513 930 c 0xf0
EndSplineSet
Validated: 1
EndChar

StartChar: cent
Encoding: 162 162 157
Width: 818
VWidth: 0
Flags: W
HStem: -17 38<353.65 414 468 588.588> 896 35<351.347 414 468 572.105>
VStem: 72 54<290.235 628.515> 414 54<-344.9 -17 21 896 933 1296.9>
LayerCount: 2
Fore
SplineSet
414 896 m 1
 316 886 212 801 159 655 c 0
 138 597 126 531 126 459 c 0
 126 213 270 44 414 21 c 1
 414 896 l 1
72 450 m 0
 72 699 217 908 414 931 c 1
 414 1276 l 2
 414 1285 426 1295 441 1297 c 0
 443 1297 445 1297 447 1297 c 0
 459 1297 468 1292 468 1284 c 2
 468 933 l 1
 610 929 708 884 776 795 c 0
 777 793 778 791 778 789 c 0
 778 785 776 780 773 777 c 2
 680 683 l 2
 671 674 654 670 642 674 c 0
 630 678 628 688 637 697 c 2
 720 781 l 1
 661 855 582 890 468 896 c 1
 468 18 l 1
 596 21 653 55 730 118 c 0
 743 128 776 134 776 113 c 0
 776 109 774 104 769 100 c 0
 688 35 608 -11 468 -17 c 1
 468 -324 l 2
 468 -333 456 -343 441 -345 c 0
 439 -345 437 -345 435 -345 c 0
 423 -345 414 -340 414 -332 c 2
 414 -17 l 1
 223 -4 72 191 72 450 c 0
EndSplineSet
Validated: 1
EndChar

StartChar: uni00B2
Encoding: 178 178 158
Width: 888
VWidth: 0
Flags: W
HStem: 564 36<155 568> 1478 36<279.172 432.193>
VStem: 579 54<1116.16 1341.27>
LayerCount: 2
Fore
SplineSet
668 725 m 2
 676 735 718 747 718 724 c 0
 718 721 716 718 714 715 c 2
 604 577 l 2
 598 569 585 564 574 564 c 2
 110 564 l 2
 97 564 89 570 89 578 c 0
 89 580 90 584 92 586 c 0
 143 663 203 734 267 798 c 0
 331 862 400 919 460 982 c 0
 516 1041 579 1119 579 1232 c 0
 579 1375 463 1478 354 1478 c 0
 279 1478 249 1447 188 1361 c 0
 181 1352 164 1346 151 1348 c 0
 138 1350 133 1360 140 1369 c 0
 198 1451 251 1514 367 1514 c 0
 516 1514 633 1391 633 1241 c 0
 633 1119 563 1031 504 969 c 0
 441 902 372 846 310 784 c 0
 254 728 202 667 155 600 c 1
 568 600 l 1
 668 725 l 2
EndSplineSet
Validated: 1
EndChar

StartChar: uni00B3
Encoding: 179 179 159
Width: 888
VWidth: 0
Flags: W
HStem: 565 36<289.22 470.346> 1064 35<362.94 450.168> 1478 36<253.434 460.563>
VStem: 609 54<725.884 931.793 1223.85 1362.03>
LayerCount: 2
Fore
SplineSet
384 601 m 0
 495 601 609 687 609 824 c 0
 609 958 498 1056 380 1064 c 0
 370 1065 362 1070 362 1077 c 0
 362 1087 375 1097 390 1099 c 0
 487 1112 592 1170 600 1280 c 1
 600 1293 l 2
 600 1418 470 1478 354 1478 c 0
 256 1478 174 1436 142 1356 c 0
 138 1346 123 1339 109 1339 c 0
 95 1339 86 1347 90 1357 c 0
 128 1453 241 1514 367 1514 c 0
 508 1514 654 1442 654 1301 c 0
 654 1196 572 1121 473 1085 c 1
 583 1048 663 951 663 832 c 0
 663 803 658 775 648 749 c 0
 611 647 502 565 371 565 c 0
 242 565 142 636 81 704 c 0
 79 706 78 708 78 711 c 0
 78 727 116 742 130 728 c 1
 189 662 283 601 384 601 c 0
EndSplineSet
Validated: 1
EndChar

StartChar: uni00B9
Encoding: 185 185 160
Width: 672
VWidth: 0
Flags: W
HStem: 566 36<131.195 276 330 483.316>
VStem: 276 54<602 1449>
LayerCount: 2
Fore
SplineSet
484 588 m 0
 484 574 464 566 450 566 c 2
 150 566 l 2
 136 566 127 574 131 584 c 0
 135 594 149 602 163 602 c 2
 276 602 l 1
 276 1449 l 1
 159 1363 l 2
 146 1354 114 1349 114 1368 c 0
 114 1373 117 1379 123 1383 c 2
 285 1502 l 2
 292 1507 302 1509 310 1509 c 0
 320 1509 330 1504 330 1496 c 2
 330 602 l 1
 463 602 l 2
 475 602 484 596 484 588 c 0
EndSplineSet
Validated: 1
EndChar

StartChar: multiply
Encoding: 215 215 161
Width: 824
VWidth: 0
Flags: W
HStem: 354 354<244 255 569 580>
VStem: 226 372<366 371 691 696>
LayerCount: 2
Back
SplineSet
571.098632812 371.901367188 m 29
 252.901367188 690.098632812 l 21
252.901367188 371.901367188 m 29
 571.098632812 690.098632812 l 21
EndSplineSet
Fore
SplineSet
245 354 m 0
 235 354 226 359 226 367 c 0
 226 371 228 375 232 379 c 2
 380 527 l 1
 229 678 l 2
 227 680 226 682 226 685 c 0
 226 696 244 708 259 708 c 0
 266 708 272 706 276 702 c 2
 416 563 l 1
 550 697 l 2
 557 704 569 708 579 708 c 0
 589 708 598 703 598 695 c 0
 598 691 596 687 592 683 c 2
 444 535 l 1
 595 384 l 2
 597 382 598 380 598 377 c 0
 598 366 580 354 565 354 c 0
 558 354 552 356 548 360 c 2
 408 499 l 1
 274 365 l 2
 267 358 255 354 245 354 c 0
EndSplineSet
Validated: 1
EndChar

StartChar: ordmasculine
Encoding: 186 186 162
Width: 888
VWidth: 0
Flags: W
HStem: 658 36<387.627 565.143> 1351 36<376.307 550.662>
VStem: 120 54<893.049 1156.36> 770 54<892.343 1143.37>
LayerCount: 2
Back
SplineSet
369.958984375 561.904296875 m 4
 207.75 561.904296875 47.72265625 704.028320312 47.72265625 906.033203125 c 4
 47.72265625 1108.03710938 207.634765625 1254.40527344 369.845703125 1254.40527344 c 5
 532.053710938 1254.40527344 696.7734375 1108.03710938 696.7734375 906.033203125 c 4
 696.7734375 704.028320312 532.168945312 561.904296875 369.958984375 561.904296875 c 4
EndSplineSet
Fore
SplineSet
824 1024 m 0
 824 809 645 658 462 658 c 0
 280 658 120 810 120 1016 c 0
 120 1231 291 1387 476 1387 c 0
 658 1387 824 1230 824 1024 c 0
462 1351 m 0
 325 1351 174 1217 174 1024 c 0
 174 826 333 694 476 694 c 0
 613 694 770 823 770 1016 c 0
 770 1214 604 1351 462 1351 c 0
EndSplineSet
Validated: 1
EndChar

StartChar: AE
Encoding: 198 198 163
Width: 1764
VWidth: 0
Flags: W
HStem: -18 36<96.9567 245 297 448.804 826.196 967 1023 1379> 453 36<460 877> 711 36<891 1291.8> 1350 36<566.196 706 769 1425>
VStem: 1425 54<1217.91 1350>
LayerCount: 2
Back
SplineSet
908.513671875 471.166992188 m 29
 428 471 l 29
738 1368 m 29
 998 0 l 21
423 0 m 21
 323 0 223 0 123 0 c 5
265 0 m 13
 738 1368 l 21
 638 1368 692 1368 592 1368 c 5
 693 1368 1352 1368 1452 1368 c 13
 1452 1234 l 29
1266 729 m 29
 855 729 l 29
1566 214 m 21
 1392 0 l 13
 852 0 l 21
EndSplineSet
Fore
SplineSet
729 1267 m 1
 460 489 l 1
 877 489 l 1
 834 715 l 1
 829 718 827 723 829 729 c 0
 829 730 830 732 831 733 c 1
 729 1267 l 1
96 -5 m 0
 96 9 116 18 130 18 c 2
 245 18 l 1
 706 1350 l 1
 585 1350 l 2
 570 1350 561 1359 566 1369 c 0
 570 1378 586 1386 599 1386 c 2
 1459 1386 l 2
 1471 1386 1479 1379 1479 1372 c 2
 1479 1238 l 2
 1479 1226.35483871 1458.71488033 1216.9635796 1443.01027156 1216.9635796 c 0
 1433.09157128 1216.9635796 1425 1220.70967742 1425 1230 c 2
 1425 1350 l 1
 769 1350 l 1
 884 747 l 1
 1273 747 l 2
 1287 747 1296 739 1292 729 c 0
 1288 719 1273 711 1259 711 c 2
 891 711 l 1
 935 478 l 1
 935 477 l 1
 1023 18 l 1
 1379 18 l 1
 1543 219 l 2
 1552 229 1593 241 1593 218 c 0
 1593 215 1592 212 1589 209 c 2
 1415 -5 l 2
 1409 -13 1396 -18 1385 -18 c 2
 845 -18 l 2
 831 -18 822 -10 826 -0 c 0
 830 10 845 18 859 18 c 2
 967 18 l 1
 884 453 l 1
 448 453 l 1
 297 18 l 1
 430 18 l 2
 444 18 453 10 449 0 c 0
 445 -10 430 -18 416 -18 c 2
 116 -18 l 2
 104 -18 96 -13 96 -5 c 0
EndSplineSet
Validated: 1
EndChar

StartChar: divide
Encoding: 247 247 164
Width: 826
VWidth: 0
Flags: W
HStem: 245 132<354.85 457.204> 513 36<160.957 663.043> 673 132<370.85 473.204>
VStem: 351 110<247.523 374.995> 367 110<675.523 802.995>
LayerCount: 2
Fore
SplineSet
160 526 m 0xe0
 160 540 180 549 194 549 c 2
 644 549 l 2
 656 549 664 544 664 536 c 0
 664 522 644 513 630 513 c 2
 180 513 l 2
 168 513 160 518 160 526 c 0xe0
351 307 m 0xf0
 351 317 353 327 356 336 c 0
 360 348 373 377 412 377 c 0
 455 377 461 341 461 316 c 0
 461 306 459 295 456 286 c 0
 452 274 438 245 399 245 c 0
 356 245 351 282 351 307 c 0xf0
367 735 m 0xe8
 367 745 369 755 372 764 c 0
 376 776 389 805 428 805 c 0
 471 805 477 769 477 744 c 0
 477 734 475 723 472 714 c 0
 468 702 454 673 415 673 c 0
 372 673 367 710 367 735 c 0xe8
EndSplineSet
Validated: 1
EndChar

StartChar: plusminus
Encoding: 177 177 165
Width: 824
VWidth: 0
Flags: W
HStem: 233 36<160.689 663.311> 663 36<160.689 385 439 663.311>
VStem: 385 54<439.1 663 699 922.9>
LayerCount: 2
Fore
SplineSet
664 685 m 0
 664 672 644 663 630 663 c 2
 439 663 l 1
 439 460 l 2
 439 451 427 441 412 439 c 0
 410 439 408 439 406 439 c 0
 394 439 385 444 385 452 c 2
 385 663 l 1
 180 663 l 2
 168 663 160 669 160 677 c 0
 160 690 180 699 194 699 c 2
 385 699 l 1
 385 902 l 2
 385 911 397 921 412 923 c 0
 414 923 416 923 418 923 c 0
 430 923 439 918 439 910 c 2
 439 699 l 1
 644 699 l 2
 656 699 664 693 664 685 c 0
664 255 m 0
 664 242 644 233 630 233 c 0
 480 233 330 233 180 233 c 0
 168 233 160 239 160 247 c 0
 160 260 180 269 194 269 c 0
 344 269 494 269 644 269 c 0
 656 269 664 263 664 255 c 0
EndSplineSet
Validated: 1
EndChar

StartChar: periodcentered
Encoding: 183 183 167
Width: 406
VWidth: 0
Flags: W
HStem: 437 132<156.85 259.204>
VStem: 153 110<439.523 566.995>
LayerCount: 2
Fore
SplineSet
153 499 m 0
 153 509 155 519 158 528 c 0
 162 540 175 569 214 569 c 0
 257 569 263 533 263 508 c 0
 263 498 261 487 258 478 c 0
 254 466 240 437 201 437 c 0
 158 437 153 474 153 499 c 0
EndSplineSet
Validated: 1
EndChar

StartChar: Eth
Encoding: 208 208 168
AltUni2: 000189.ffffffff.0 000110.ffffffff.0
Width: 1238
VWidth: 0
Flags: W
HStem: -18 36<74.9567 220 274 685.205> 663 36<74.9567 219 274 677.043> 1350 36<74.9567 219 273 681.847>
VStem: 219 54<18 663 699 1350> 1133 54<519.553 908.412>
LayerCount: 2
Fore
SplineSet
567 18 m 2
 894 18 1133 342 1133 726 c 0
 1133 1064 875 1350 554 1350 c 2
 273 1350 l 1
 273 699 l 1
 658 699 l 2
 670 699 678 694 678 686 c 0
 678 672 659 663 644 663 c 2
 274 663 l 1
 274 18 l 1
 567 18 l 2
74 676 m 0
 74 690 93 699 108 699 c 2
 219 699 l 1
 219 1350 l 1
 94 1350 l 2
 82 1350 74 1355 74 1363 c 0
 74 1377 93 1386 107 1386 c 2
 567 1386 l 2
 929 1386 1187 1079 1187 735 c 0
 1187 630 1168 525 1133 428 c 0
 1044 185 843 -18 554 -18 c 2
 94 -18 l 2
 82 -18 74 -13 74 -5 c 0
 74 9 93 18 107 18 c 2
 220 18 l 1
 220 663 l 1
 94 663 l 2
 82 663 74 668 74 676 c 0
EndSplineSet
Validated: 1
EndChar

StartChar: ring
Encoding: 730 730 169
Width: 641
VWidth: 0
Flags: W
HStem: 979 36<293.442 387.496> 1203 36<284.927 378.775>
VStem: 197 54<1046.32 1179.15> 421 54<1037.91 1172.33>
LayerCount: 2
Fore
SplineSet
475 1114 m 0
 475 1038 411 979 329 979 c 0
 248 979 197 1039 197 1105 c 0
 197 1181 262 1239 343 1239 c 0
 424 1239 475 1180 475 1114 c 0
329 1203 m 0
 293 1203 251 1168 251 1114 c 0
 251 1056 301 1015 343 1015 c 0
 380 1015 421 1050 421 1105 c 0
 421 1163 372 1203 329 1203 c 0
EndSplineSet
Validated: 1
EndChar

StartChar: macron
Encoding: 175 175 170
Width: 564
VWidth: 0
Flags: W
HStem: 1143 36<80.9567 483.043>
VStem: 80 404<1143 1179>
LayerCount: 2
Fore
SplineSet
80 1156 m 0
 80 1170 99 1179 114 1179 c 2
 464 1179 l 2
 476 1179 484 1174 484 1166 c 0
 484 1152 465 1143 450 1143 c 2
 100 1143 l 2
 88 1143 80 1148 80 1156 c 0
EndSplineSet
Validated: 1
EndChar

StartChar: approxequal
Encoding: 8776 8776 176
Width: 2048
VWidth: 0
Flags: W
HStem: 330 37<563.045 683.128> 483 36<247.228 358.218> 530 37<563.045 683.128> 683 36<247.228 358.218>
VStem: 160 604<417 426 617 626>
LayerCount: 2
Fore
SplineSet
180 403 m 0
 168 403 160 409 160 417 c 0
 160 419 160 420 161 422 c 0
 181 472 240 519 316 519 c 0
 446 519 492 405 588 373 c 0
 601 369 615 367 627 367 c 0
 668 367 696 388 712 422 c 0
 715.746284851 429.492569702 735.086625464 439.324247769 749.087269178 439.324247769 c 0
 757.509870258 439.324247769 764 435.766098979 764 426 c 0
 764 424 763 422 762 420 c 0
 739 373 686 330 613 330 c 0
 486 330 440 439 351 474 c 0
 334 480 317 483 302 483 c 0
 258 483 229 458 213 420 c 0
 209 410 194 403 180 403 c 0
180 603 m 0
 168 603 160 609 160 617 c 0
 160 619 160 620 161 622 c 0
 181 672 240 719 316 719 c 0
 446 719 492 605 588 573 c 0
 601 569 615 567 627 567 c 0
 668 567 696 588 712 622 c 0
 715.746284851 629.492569702 735.086625464 639.324247769 749.087269178 639.324247769 c 0
 757.509870258 639.324247769 764 635.766098979 764 626 c 0
 764 624 763 622 762 620 c 0
 739 573 686 530 613 530 c 0
 486 530 440 639 351 674 c 0
 334 680 317 683 302 683 c 0
 258 683 229 658 213 620 c 0
 209 610 194 603 180 603 c 0
EndSplineSet
Validated: 1
EndChar

StartChar: integral
Encoding: 8747 8747 177
Width: 968
VWidth: 0
Flags: W
HStem: -429 37<199.532 320.944> 1350 36<597.367 730.041>
VStem: 55 55<-319.312 -240.994> 443 54<-281.746 1243.04> 833 54<1201.16 1274.15>
LayerCount: 2
Back
SplineSet
82 -257.200195312 m 4
 82 -329.642578125 182.340820312 -428.276367188 276 -408 c 28
 392.095703125 -382.866210938 469.89453125 -293.2109375 470 -173.200195312 c 4
 472.22265625 260.709960938 471.14453125 697.921875 472 1133.20019531 c 4
 472.10546875 1253.20996094 547.21484375 1368 666 1368 c 31
 761.829101562 1368 860 1289.64257812 860 1217.20019531 c 4
EndSplineSet
Fore
SplineSet
241 -429 m 0
 140 -429 55 -336 55 -262 c 0
 55 -249.683014396 75.4805981392 -240.020921144 91.2158711738 -240.020921144 c 0
 101.031124121 -240.020921144 109 -243.780382725 109 -253 c 0
 109 -256 110 -260 110 -263 c 0
 118 -326 199 -392 259 -392 c 0
 264 -392 269 -392 274 -391 c 0
 369 -370 443 -295 443 -178 c 0
 445 256 444 694 445 1129 c 0
 445 1164 451 1198 463 1230 c 0
 492 1310 563 1386 673 1386 c 0
 785 1386 887 1302 887 1222 c 0
 887 1209.6830144 866.519401861 1200.02092114 850.784128826 1200.02092114 c 0
 840.968875879 1200.02092114 833 1203.78038272 833 1213 c 0
 833 1278 738 1350 659 1350 c 0
 571 1350 499 1254 499 1138 c 0
 498 703 499 265 497 -169 c 0
 497 -292 415 -395 278 -425 c 0
 265 -428 253 -429 241 -429 c 0
EndSplineSet
Validated: 1
EndChar

StartChar: florin
Encoding: 402 402 178
Width: 968
VWidth: 0
Flags: W
HStem: -429 37<199.532 320.944> 896 36<259.957 445 499 699.804> 1350 36<597.367 730.041>
VStem: 55 55<-319.312 -240.994> 445 54<-276.836 896 932 1247.45> 833 54<1201.16 1274.15>
LayerCount: 2
Fore
SplineSet
241 -429 m 0
 140 -429 55 -336 55 -262 c 0
 55 -249.683014396 75.4805981392 -240.020921144 91.2158711738 -240.020921144 c 0
 101.031124121 -240.020921144 109 -243.780382725 109 -253 c 0
 109 -256 110 -260 110 -263 c 0
 118 -326 199 -392 259 -392 c 0
 264 -392 269 -392 274 -391 c 0
 369 -370 443 -295 443 -178 c 0
 445 179 445 538 445 896 c 1
 279 896 l 2
 267 896 259 901 259 909 c 0
 259 923 278 932 292 932 c 2
 445 932 l 1
 445 1129 l 2
 445 1164 451 1198 463 1230 c 0
 492 1310 563 1386 673 1386 c 0
 785 1386 887 1302 887 1222 c 0
 887 1209.6830144 866.519401861 1200.02092114 850.784128826 1200.02092114 c 0
 840.968875879 1200.02092114 833 1203.78038272 833 1213 c 0
 833 1278 738 1350 659 1350 c 0
 571 1350 499 1254 499 1138 c 2
 499 932 l 1
 680 932 l 2
 694 932 704 924 700 914 c 0
 696 904 681 896 667 896 c 2
 499 896 l 1
 499 541 499 185 497 -169 c 0
 497 -292 415 -395 278 -425 c 0
 265 -428 253 -429 241 -429 c 0
EndSplineSet
Validated: 1
EndChar

StartChar: uniF6BE
Encoding: 63166 63166 179
Width: 406
VWidth: 0
Flags: W
HStem: -424 33<24.3804 75.0235> 896 36<68.1948 202>
VStem: 203 54<-242.375 896>
LayerCount: 2
Fore
SplineSet
46 -424 m 0
 35 -424 24 -419 24 -410 c 0
 24 -403 32 -395 44 -391 c 0
 186 -345 203 -165 203 -18 c 2
 203 -4 l 1
 202 896 l 1
 87 896 l 2
 73 896 64 904 68 914 c 0
 72 924 86 932 100 932 c 2
 235 932 l 2
 247 932 256 925 256 918 c 2
 257 4 l 1
 257 -35 l 2
 257 -172 245 -361 58 -422 c 0
 54 -423 50 -424 46 -424 c 0
EndSplineSet
Validated: 1
EndChar

StartChar: perthousand
Encoding: 8240 8240 180
Width: 2124
VWidth: 0
Flags: W
HStem: -89 36<972.937 1096.4 1632.94 1756.4> 639 36<960.427 1083.34 1620.43 1743.34> 756 36<314.937 438.238> 1484 36<302.594 425.344>
VStem: 97 54<982.557 1294.76> 593 54<979.749 1287.87> 755 54<137.961 450.263> 1251 54<135.152 443.296> 1415 54<137.961 450.263> 1911 54<135.152 443.296>
LayerCount: 2
Fore
SplineSet
1035 -53 m 0
 1097 -53 1180 5 1224 126 c 0
 1241 173 1251 228 1251 288 c 0
 1251 500 1120 639 1021 639 c 0
 960 639 880 582 837 463 c 0
 819 415 809 359 809 297 c 0
 809 85 936 -53 1035 -53 c 0
1305 297 m 0
 1305 97 1188 -89 1021 -89 c 0
 872 -89 755 74 755 288 c 0
 755 486 868 675 1035 675 c 0
 1184 675 1305 511 1305 297 c 0
1178 1596 m 0
 1192 1595 1198 1586 1193 1576 c 2
 253 -182 l 2
 248 -191 234 -198 221 -198 c 0
 220 -198 219 -198 218 -198 c 0
 207 -197 201 -192 201 -185 c 0
 201 -183 202 -180 203 -178 c 2
 1143 1580 l 2
 1148 1589 1162 1596 1175 1596 c 0
 1176 1596 1177 1596 1178 1596 c 0
377 792 m 0
 439 792 522 850 566 971 c 0
 583 1018 593 1073 593 1133 c 0
 593 1345 462 1484 363 1484 c 0
 302 1484 222 1426 179 1307 c 0
 161 1259 151 1203 151 1141 c 0
 151 929 278 792 377 792 c 0
647 1141 m 0
 647 941 529 756 363 756 c 0
 214 756 97 919 97 1133 c 0
 97 1331 211 1520 377 1520 c 0
 526 1520 647 1355 647 1141 c 0
1695 -53 m 0
 1757 -53 1840 5 1884 126 c 0
 1901 173 1911 228 1911 288 c 0
 1911 500 1780 639 1681 639 c 0
 1620 639 1540 582 1497 463 c 0
 1479 415 1469 359 1469 297 c 0
 1469 85 1596 -53 1695 -53 c 0
1965 297 m 0
 1965 97 1848 -89 1681 -89 c 0
 1532 -89 1415 74 1415 288 c 0
 1415 486 1528 675 1695 675 c 0
 1844 675 1965 511 1965 297 c 0
EndSplineSet
Validated: 1
EndChar

StartChar: Euro
Encoding: 8364 8364 181
Width: 1360
VWidth: 0
Flags: W
HStem: -18 36<618.642 922.364> 592 36<51.6887 191 246 739.043> 792 36<51.6887 194 250 894.043> 1351 36<605.728 901.796>
VStem: 190 54<399.007 592 628 792 828 963.713> 1132 54<1013.16 1227.86 1269 1345.84>
LayerCount: 2
Back
SplineSet
1027.95758057 1155.49996948 m 25
 127.957580566 21.5000038147 l 29
EndSplineSet
Fore
SplineSet
51 806 m 0
 51 819 71 828 85 828 c 2
 196 828 l 1
 209 970 242 1105 313 1198 c 0
 425 1344 617 1387 770 1387 c 0
 904 1387 1025 1352 1132 1269 c 1
 1132 1325 l 2
 1132 1337.3169856 1152.48059814 1346.97907886 1168.21587117 1346.97907886 c 0
 1178.03112412 1346.97907886 1186 1343.21961728 1186 1334 c 2
 1186 1034 l 2
 1186 1021.6830144 1165.51940186 1012.02092114 1149.78412883 1012.02092114 c 0
 1139.96887588 1012.02092114 1132 1015.78038272 1132 1025 c 2
 1132 1204 l 1
 1019 1311 894 1351 757 1351 c 0
 616 1351 456 1314 360 1188 c 0
 296 1104 263 970 250 828 c 1
 875 828 l 2
 887 828 895 823 895 815 c 0
 895 801 876 792 861 792 c 2
 247 792 l 1
 245 756 244 721 244 685 c 0
 244 666 244 647 245 628 c 1
 720 628 l 2
 732 628 740 623 740 615 c 0
 740 601 721 592 706 592 c 2
 246 592 l 1
 254 426 287 273 369 176 c 1
 468 57 637 18 770 18 c 0
 904 18 1029 47 1143 146 c 0
 1154 156 1190 162 1190 142 c 0
 1190 138 1188 133 1183 129 c 0
 1054 17 903 -18 757 -18 c 0
 610 -18 428 27 321 154 c 0
 232 260 200 420 192 592 c 1
 71 592 l 2
 59 592 51 598 51 606 c 0
 51 619 71 628 85 628 c 2
 191 628 l 1
 191 644 190 661 190 677 c 0
 190 715 192 754 194 792 c 1
 71 792 l 2
 59 792 51 798 51 806 c 0
EndSplineSet
Validated: 1
EndChar

StartChar: sterling
Encoding: 163 163 182
Width: 968
VWidth: 0
Flags: W
HStem: -18 36<144 675> 614 36<35.9567 205 258 637.804> 1350 36<355.031 490.041>
VStem: 205 53<184.137 614 650 1251.19> 593 54<1201.16 1274.15>
LayerCount: 2
Back
SplineSet
62 603 m 13
 612 603 l 21
620 1217.20019531 m 4
 620 1289.64257812 521.829101562 1368 426 1368 c 31
 307.21484375 1368 232.10590384 1253.2104472 232 1133.20019531 c 6
 231.309742269 351 l 5
 231 198 177.307827075 87.1548905771 102 0 c 13
 362 0 l 29
 802 0 l 21
 918 141.599609375 l 13
EndSplineSet
Fore
SplineSet
205 1129 m 2
 205 1246 277 1386 433 1386 c 0
 545 1386 647 1302 647 1222 c 0
 647 1209.6830144 626.519401861 1200.02092114 610.784128826 1200.02092114 c 0
 600.968875879 1200.02092114 593 1203.78038272 593 1213 c 0
 593 1278 498 1350 419 1350 c 0
 329 1350 259 1254 259 1138 c 2
 258 650 l 1
 619 650 l 2
 633 650 642 642 638 632 c 0
 634 622 619 614 605 614 c 2
 258 614 l 1
 258 355 l 2
 258 213 211 104 144 18 c 1
 675 18 l 1
 781 147 l 2
 790 157 831 170 831 146 c 0
 831 143 830 139 827 136 c 2
 711 -5 l 2
 705 -12 693 -18 681 -18 c 2
 95 -18 l 2
 94 -18 91 -17 89 -17 c 0
 75 -14 71 -4 79 6 c 0
 151 90 204 197 204 347 c 2
 205 614 l 1
 55 614 l 2
 43 614 35 619 35 627 c 0
 35 641 55 650 69 650 c 2
 205 650 l 1
 205 1129 l 2
EndSplineSet
Validated: 1
EndChar

StartChar: circumflex
Encoding: 710 710 183
Width: 815
VWidth: 0
Flags: W
HStem: 1126 191
VStem: 264 355<1137 1144>
LayerCount: 2
Fore
SplineSet
285 1126 m 0
 274 1126 264 1132 264 1140 c 0
 264 1144 266 1147 270 1151 c 2
 423 1306 l 2
 430 1313 441 1317 451 1317 c 0
 458 1317 465 1314 468 1311 c 2
 616 1156 l 2
 618 1154 619 1152 619 1149 c 0
 619 1137 601 1126 586 1126 c 0
 579 1126 572 1128 568 1132 c 2
 440 1266 l 1
 312 1137 l 2
 305 1130 295 1126 285 1126 c 0
EndSplineSet
Validated: 1
EndChar

StartChar: lessequal
Encoding: 8804 8804 184
Width: 2048
VWidth: 0
Flags: W
HStem: 123 34<754 757.715> 325 33.7384<166.302 170 754 761.178> 716 32<745 763.24>
VStem: 160 604<331.905 340>
LayerCount: 2
Fore
SplineSet
743 748 m 0
 753 748 764 745 764 736 c 0
 764 729 757 720 745 716 c 2
 243 533 l 1
 754 347 l 2
 760 345 764 340 764 335 c 0
 764 321 745 313 731 313 c 0
 727 313 723 314 720 315 c 2
 170 515 l 2
 166 517 160 520 160 526 c 0
 160 533 167 542 179 546 c 2
 729 746 l 2
 734 748 738 748 743 748 c 0
166 349 m 0
 172.373835392 355.373835392 183.261646075 358.738353925 192.980205289 358.738353925 c 0
 196.9844719 358.738353925 200.790243257 358.16718427 204 357 c 2
 754 157 l 2
 760.318903608 154.70221687 763.667915602 150.09451804 763.667915602 144.882945223 c 0
 763.667915602 141.022168698 761.829987957 136.829987957 758 133 c 0
 752 127 741 123 731 123 c 0
 727 123 723 124 720 125 c 2
 170 325 l 2
 163.681096392 327.29778313 160.332084398 331.90548196 160.332084398 337.117054777 c 0
 160.332084398 340.977831302 162.170012043 345.170012043 166 349 c 0
EndSplineSet
Validated: 1
EndChar

StartChar: greaterequal
Encoding: 8805 8805 185
Width: 2048
VWidth: 0
Flags: W
HStem: 114 32<192.76 211> 314 32<192.76 211 777 794.383> 715 34<193.06 202>
VStem: 192 604<329 333>
LayerCount: 2
Fore
SplineSet
192 727 m 0
 192 741 211 749 225 749 c 0
 229 749 233 748 236 747 c 2
 786 547 l 2
 792 545 796 540 796 535 c 0
 796 526 784 519 777 516 c 2
 227 316 l 2
 222 314 218 314 213 314 c 0
 203 314 192 317 192 326 c 0
 192 333 199 342 211 346 c 2
 713 529 l 1
 202 715 l 2
 196 717 192 722 192 727 c 0
213 114 m 0
 203 114 192 117 192 126 c 0
 192 133 199 142 211 146 c 2
 761 346 l 2
 765.899839486 347.633279829 771.333199572 348.519630818 776.428691823 348.519630818 c 0
 786.93215623 348.519630818 796 344.753472446 796 336 c 0
 796 329 789 320 777 316 c 2
 227 116 l 2
 222 114 218 114 213 114 c 0
EndSplineSet
Validated: 1
EndChar

StartChar: summation
Encoding: 8721 8721 186
Width: 1322
VWidth: 0
Flags: W
HStem: -18 36<201 929> 1350 36<198 1012>
VStem: 1012 54<1051.91 1350>
LayerCount: 2
Back
SplineSet
1116 214 m 21
 942 0 l 13
 162 0 l 29
 616 681.200195312 l 21
 154 1368 l 5
 1039 1368 l 5
 1039 1268 1039 1168 1039 1068 c 13
EndSplineSet
Fore
SplineSet
127 1364 m 0
 127 1375 145 1386 161 1386 c 2
 1046 1386 l 2
 1058 1386 1066 1379 1066 1372 c 2
 1066 1072 l 2
 1066 1060.35483871 1045.71488033 1050.9635796 1030.01027156 1050.9635796 c 0
 1020.09157128 1050.9635796 1012 1054.70967742 1012 1064 c 2
 1012 1350 l 1
 198 1350 l 1
 641 692 l 2
 643 688 643 683 640 678 c 2
 201 18 l 1
 929 18 l 1
 1093 219 l 2
 1102 229 1143 241 1143 218 c 0
 1143 215 1142 212 1139 209 c 2
 965 -5 l 2
 959 -13 946 -18 935 -18 c 2
 155 -18 l 2
 138 -18 131 -6 138 4 c 2
 587 677 l 1
 129 1358 l 2
 128 1360 127 1362 127 1364 c 0
EndSplineSet
Validated: 1
EndChar

StartChar: breve
Encoding: 728 728 187
Width: 564
VWidth: 0
Flags: W
HStem: 1033 36<202.05 374.936>
VStem: 80 54<1115.02 1177.43> 430 54<1106.14 1178.55>
LayerCount: 2
Back
SplineSet
107 1161 m 21
 129 1014 436 1014 457 1161 c 5
EndSplineSet
Fore
SplineSet
484 1165 m 0
 484 1081 369 1033 277 1033 c 0
 191 1033 80 1074 80 1156 c 0
 80 1168.14287802 100.830813885 1178.65196671 116.649658201 1178.65196671 c 0
 125.58261009 1178.65196671 132.917296529 1175.30072661 134 1167 c 0
 144 1101 218 1069 289 1069 c 0
 360 1069 421 1096 430 1158 c 0
 431 1169 446 1179 463 1179 c 0
 476 1179 484 1173 484 1165 c 0
EndSplineSet
Validated: 1
EndChar

StartChar: bullet
Encoding: 8226 8226 189
Width: 576
VWidth: 0
Flags: W
HStem: 361 296<203.125 400.875>
VStem: 162 280<401.772 616.228>
LayerCount: 2
Fore
SplineSet
162 509 m 0
 162 591 225 657 302 657 c 0
 379 657 442 591 442 509 c 0
 442 427 379 361 302 361 c 0
 225 361 162 427 162 509 c 0
EndSplineSet
Validated: 1
EndChar

StartChar: quoteleft
Encoding: 8216 8216 192
Width: 406
VWidth: 0
Flags: W
HStem: 1224 277<180.333 200.536>
VStem: 97.9984 103.002<1224.92 1401.14>
LayerCount: 2
Fore
SplineSet
208 1307 m 0
 208 1295 205 1282 201 1270 c 0
 198 1261 189 1224 145 1224 c 0
 98.92 1224 97.9984 1272.8448 97.9984 1296.216576 c 0
 97.9984 1297.1904 98 1298.12 98 1299 c 0
 98 1305 100 1310 102 1316 c 0
 114 1350 183 1501 242 1501 c 0
 256 1501 261 1490 261 1473 c 0
 261 1420 208 1309 208 1307 c 0
EndSplineSet
Validated: 1
EndChar

StartChar: fraction
Encoding: 8260 8260 193
Width: 2048
VWidth: 0
Flags: W
LayerCount: 2
Fore
SplineSet
1175 1596 m 0
 1187 1596 1195 1591 1195 1583 c 0
 1195 1581 1194 1578 1193 1576 c 2
 253 -182 l 2
 248 -191 234 -198 221 -198 c 0
 209 -198 201 -193 201 -185 c 0
 201 -183 202 -180 203 -178 c 2
 1143 1580 l 2
 1148 1589 1162 1596 1175 1596 c 0
EndSplineSet
Validated: 1
EndChar

StartChar: notequal
Encoding: 8800 8800 194
Width: 924
VWidth: 0
Flags: W
HStem: 413 36<160.957 372 440 763.043> 613 36<160.957 460 528 763.043>
VStem: 160 604<413 449 613 649>
LayerCount: 2
Fore
SplineSet
160 626 m 0
 160 640 179 649 194 649 c 2
 476 649 l 1
 548 813 l 2
 552 822 567 830 580 830 c 0
 595 830 604 823 600 812 c 2
 528 649 l 1
 744 649 l 2
 756 649 764 644 764 636 c 0
 764 622 745 613 730 613 c 2
 512 613 l 1
 440 449 l 1
 744 449 l 2
 756 449 764 444 764 436 c 0
 764 422 745 413 730 413 c 2
 424 413 l 1
 344 230 l 2
 340 221 325 213 312 213 c 0
 297 213 288 220 292 231 c 2
 372 413 l 1
 180 413 l 2
 168 413 160 418 160 426 c 0
 160 440 179 449 194 449 c 2
 388 449 l 1
 460 613 l 1
 180 613 l 2
 168 613 160 618 160 626 c 0
EndSplineSet
Validated: 1
EndChar

StartChar: radical
Encoding: 8730 8730 195
Width: 1369
VWidth: 0
Flags: W
HStem: -18 21G<414 426.5> 469 35<64.8867 189> 1480 35<828 1313.16>
LayerCount: 2
Back
SplineSet
1287 1498 m 25
 806.22265625 1497.59960938 l 25
 425.22265625 0 l 25
 211 486.599609375 l 25
 91 486.599609375 l 25
EndSplineSet
Fore
SplineSet
1314 1502 m 0
 1314 1488 1295 1480 1281 1480 c 2
 828 1480 l 1
 452 1 l 2
 449 -9 434 -18 419 -18 c 0
 409 -18 401 -14 399 -9 c 2
 189 469 l 1
 84 469 l 2
 72 469 64 474 64 482 c 0
 64 496 84 504 98 504 c 2
 218 504 l 2
 226 504 234 501 237 495 c 2
 420 81 l 1
 780 1496 l 2
 783 1506 798 1515 813 1515 c 2
 1293 1516 l 2
 1305 1516 1314 1510 1314 1502 c 0
EndSplineSet
Validated: 1
EndChar

StartChar: germandbls
Encoding: 223 223 196
Width: 994
VWidth: 0
Flags: W
HStem: -18 36<75.9567 204 532.724 732.709> 1350 36<352.275 494.715>
VStem: 204 54<18 1252.08> 337 54<623.426 807.801> 606 54<1032.66 1258.04> 849 54<114.231 310.712>
LayerCount: 2
Fore
SplineSet
903 220 m 0
 903 81 783 -18 620 -18 c 0
 469 -18 366 64 303 146 c 0
 301.309222792 148.17385641 300.551907647 150.420639544 300.551907647 152.657560351 c 0
 300.551907647 164.021721364 320.097560493 175.131344182 336.092941457 175.131344182 c 0
 343.019537171 175.131344182 349.280381442 173.048053757 353 168 c 0
 414 88 511 18 634 18 c 0
 754 18 849 85 849 212 c 0
 849 467 513 421 383 582 c 0
 353 618 337 663 337 713 c 0
 337 853 473 901 530 959 c 0
 571 1001 606 1066 606 1147 c 0
 606 1242 562 1301 500 1330 c 0
 473 1343 443 1350 417 1350 c 0
 324 1350 259 1256 259 1137 c 2
 258 4 l 2
 258 -8 238 -18 224 -18 c 2
 95 -18 l 2
 83 -18 75 -13 75 -5 c 0
 75 9 95 18 109 18 c 2
 204 18 l 1
 205 1129 l 2
 205 1248 273 1386 431 1386 c 0
 471 1386 507 1375 538 1360 c 0
 612 1325 660 1256 660 1155 c 0
 660 1068 623 995 574 945 c 0
 497 867 391 845 391 721 c 0
 391 675 405 636 431 604 c 0
 539 471 903 495 903 220 c 0
EndSplineSet
Validated: 1
EndChar

StartChar: ae
Encoding: 230 230 197
Width: 1505
VWidth: 0
Flags: W
HStem: -18 36<238.387 544.678 940.108 1175.58> 517 36<283.209 479.349 749 1369> 896 36<279.1 435.597 945.321 1142.38>
VStem: 25 54<112 319.633> 695 54<-16.2404 60 85.375 120 201.846 264.275 352 513 549 678.095>
LayerCount: 2
Back
SplineSet
723 0 m 21
 721.997070312 555.202148438 l 21
 721.639648438 753.388671875 554.78515625 908.360351562 356.599609375 908.360351562 c 23
 248.434570312 908.360351562 120.502929688 829.823242188 78 745.200195312 c 5
722 531 m 29
 1397 531 l 21
 1393 753 1277 912 1033 914 c 5
 875.791078103 914 722 753.62646451 722 555.200195312 c 28
1342 109 m 5
 1258 41 1186 0 1034 0 c 4
 650.818597204 0 750.928817254 535.156895036 390.232650758 535.156895036 c 7
 189.137648135 535.156895036 52 374.501007689 52 188.1796875 c 31
 52 32.513671875 245.600585938 0 404 0 c 15
 534.520507812 0 646.200195312 39.7607421875 723 101.200195312 c 4
EndSplineSet
Fore
SplineSet
384 517 m 0
 204 517 79 373 79 193 c 0
 79 49 256 18 411 18 c 0
 529 18 626 52 696 104 c 1
 696 216 l 1
 616 363 566 517 384 517 c 0
749 549 m 1
 1369 549 l 1
 1358 757 1243 894 1026 896 c 0
 1016 896 1005 896 995 894 c 0
 878 875 749 741 749 560 c 2
 749 549 l 1
25 184 m 0
 25 369 162 553 397 553 c 0
 557 553 635 457 695 352 c 1
 695 551 l 2
 695 745 530 890 350 890 c 0
 260 890 142 822 103 744 c 0
 98 734 83 726 69 727 c 0
 55 728 48 737 53 747 c 0
 99 838 236 926 363 926 c 0
 529 926 666 831 722 695 c 1
 769 815 871 908 995 928 c 0
 1010 930 1025 932 1040 932 c 0
 1303 930 1420 760 1424 536 c 1
 1424 532 l 1
 1421 522 1405 513 1390 513 c 2
 749 513 l 1
 749 247 l 1
 812 124 878 18 1041 18 c 0
 1183 18 1242 52 1323 118 c 0
 1333 126 1351 129 1361 124 c 0
 1371 119 1371 108 1361 100 c 0
 1274 30 1189 -18 1027 -18 c 0
 889 -18 809 41 750 120 c 1
 750 81 750 43 750 4 c 0
 750 -7.64516129032 729.714880333 -17.0364203954 714.010271559 -17.0364203954 c 0
 704.09157128 -17.0364203954 696 -13.2903225806 696 -4 c 2
 696 60 l 1
 616 12 512 -18 397 -18 c 0
 235 -18 25 16 25 184 c 0
EndSplineSet
Validated: 1
EndChar

StartChar: endash
Encoding: 8211 8211 198
Width: 924
VWidth: 0
Flags: W
HStem: 513 36<160.957 763.043>
VStem: 160 604<513 549>
LayerCount: 2
Fore
SplineSet
160 526 m 0
 160 540 180 549 194 549 c 2
 744 549 l 2
 756 549 764 544 764 536 c 0
 764 522 744 513 730 513 c 2
 180 513 l 2
 168 513 160 518 160 526 c 0
EndSplineSet
Validated: 1
EndChar

StartChar: emdash
Encoding: 8212 8212 199
Width: 1134
VWidth: 0
Flags: W
HStem: 513 36<160.957 973.043>
LayerCount: 2
Fore
SplineSet
160 526 m 0
 160 540 180 549 194 549 c 2
 954 549 l 2
 966 549 974 544 974 536 c 0
 974 522 954 513 940 513 c 2
 180 513 l 2
 168 513 160 518 160 526 c 0
EndSplineSet
Validated: 1
EndChar

StartChar: quotedblleft
Encoding: 8220 8220 201
Width: 616
VWidth: 0
Flags: W
HStem: 1224 277<180.333 200.536 390.333 410.536>
VStem: 97.9984 103.002<1224.92 1401.14> 307.998 103.002<1224.92 1401.14>
LayerCount: 2
Fore
SplineSet
208 1307 m 0
 208 1295 205 1282 201 1270 c 0
 198 1261 189 1224 145 1224 c 0
 98.92 1224 97.9984 1272.8448 97.9984 1296.216576 c 0
 97.9984 1297.1904 98 1298.12 98 1299 c 0
 98 1305 100 1310 102 1316 c 0
 114 1350 183 1501 242 1501 c 0
 256 1501 261 1490 261 1473 c 0
 261 1420 208 1309 208 1307 c 0
418 1307 m 0
 418 1295 415 1282 411 1270 c 0
 408 1261 399 1224 355 1224 c 0
 308.92 1224 307.9984 1272.8448 307.9984 1296.216576 c 0
 307.9984 1297.1904 308 1298.12 308 1299 c 0
 308 1305 310 1310 312 1316 c 0
 324 1350 393 1501 452 1501 c 0
 466 1501 471 1490 471 1473 c 0
 471 1420 418 1309 418 1307 c 0
EndSplineSet
Validated: 1
EndChar

StartChar: registered
Encoding: 174 174 202
Width: 1474
VWidth: 0
Flags: W
HStem: -17 36<606.296 862.039> 220 35<322.032 434 488 622.593 895.195 1013 1074 1141> 676 35<488 755.844> 1163 36<353 434 488 832.372> 1350 36<593.535 848.908>
VStem: 97 54<498.04 889.578> 434 54<255 676 712 1163> 1011 54<858.54 1045.08> 1305 54<493.086 881.506>
LayerCount: 2
Fore
SplineSet
1169 255 m 1
 1247 362 1305 512 1305 689 c 0
 1305 1068 1034 1350 721 1350 c 0
 583 1350 454 1295 353 1199 c 1
 688 1199 l 2
 940 1199 1065 1104 1065 956 c 0
 1065 933 1061 909 1052 886 c 0
 1021 802 931 719 799 688 c 1
 871 651 902 578 941 511 c 1
 1074 255 l 1
 1169 255 l 1
488 1163 m 1
 488 712 l 1
 698 711 l 1
 700 711 l 2
 860 711 965 793 1000 886 c 0
 1008 906 1011 928 1011 948 c 0
 1011 1082 905 1163 675 1163 c 2
 488 1163 l 1
320 1164 m 1
 224 1055 151 897 151 698 c 0
 151 520 211 359 307 239 c 1
 311 248 325 255 339 255 c 2
 434 255 l 1
 434 1163 l 1
 329 1163 l 2
 326 1163 323 1163 320 1164 c 1
623 238 m 0
 619 228 604 220 590 220 c 0
 501 220 411 220 322 220 c 1
 429 96 577 19 735 19 c 0
 891 19 1036 94 1141 220 c 1
 914 220 l 2
 900 220 891 228 895 238 c 0
 899 248 913 255 927 255 c 2
 1013 255 l 1
 890 492 l 1
 833 589 797 672 684 676 c 1
 488 676 l 1
 488 255 l 1
 603 255 l 2
 617 255 627 248 623 238 c 0
97 689 m 0
 97 783 114 872 143 953 c 0
 234 1204 461 1386 735 1386 c 0
 1089 1386 1359 1083 1359 698 c 0
 1359 602 1342 511 1312 427 c 0
 1225 188 1003 -17 721 -17 c 0
 366 -17 97 304 97 689 c 0
EndSplineSet
Validated: 1
EndChar

StartChar: brokenbar
Encoding: 166 166 203
Width: 456
VWidth: 0
Flags: W
VStem: 201 54<-196.093 564.552 801.448 1594.09>
LayerCount: 2
Fore
SplineSet
201 544 m 2
 201 555.822773416 221.908616197 565.70956385 237.705024198 565.70956385 c 0
 247.294516904 565.70956385 255 562.065970422 255 553 c 2
 255 -176 l 2
 255 -187.64516129 234.714880333 -197.036420395 219.010271559 -197.036420395 c 0
 209.09157128 -197.036420395 201 -193.290322581 201 -184 c 2
 201 544 l 2
201 1574 m 2
 201 1585.64516129 221.285119667 1595.0364204 236.989728441 1595.0364204 c 0
 246.90842872 1595.0364204 255 1591.29032258 255 1582 c 2
 255 822 l 2
 255 810.177226584 234.091383803 800.29043615 218.294975802 800.29043615 c 0
 208.705483096 800.29043615 201 803.934029578 201 813 c 2
 201 1574 l 2
EndSplineSet
Validated: 1
EndChar

StartChar: Thorn
Encoding: 222 222 204
Width: 1096
VWidth: 0
Flags: W
HStem: -18 36<55.9567 201 255 407.804> 273 36<267.26 546.03> 1150 36<255 551.628> 1350 36<57.1955 201 255 408.804>
VStem: 201 54<18 289 323.616 1150 1186 1350> 887 54<614.012 893.663>
LayerCount: 2
Back
SplineSet
383 1368 m 21
 283 1368 183 1368 83 1368 c 13
228 1168 m 13
 228 1368 l 29
229 316.72265625 m 21
 595.010742188 208.72265625 914 444.724609375 914 763.723632812 c 31
 914 1014.79394531 691.010742188 1168 413 1168 c 5
 313 1168 328 1168 228 1168 c 13
 228 0 l 21
382 0 m 29
 82 0 l 21
EndSplineSet
Fore
SplineSet
255 330 m 1
 310 315 362 309 412 309 c 0
 442 309 470 311 498 315 c 0
 716 350 887 526 887 759 c 0
 887 1004 670 1150 406 1150 c 2
 255 1150 l 1
 255 330 l 1
941 768 m 0
 941 504 723 273 401 273 c 0
 353 273 305 278 255 289 c 1
 255 18 l 1
 389 18 l 2
 403 18 412 10 408 0 c 0
 404 -10 389 -18 375 -18 c 2
 75 -18 l 2
 63 -18 55 -13 55 -5 c 0
 55 9 75 18 89 18 c 2
 201 18 l 1
 201 462 201 906 201 1350 c 1
 76 1350 l 2
 62 1350 53 1358 57 1368 c 0
 61 1378 76 1386 90 1386 c 2
 390 1386 l 2
 404 1386 413 1378 409 1368 c 0
 405 1358 390 1350 376 1350 c 2
 255 1350 l 1
 255 1186 l 1
 420 1186 l 2
 712 1186 941 1025 941 768 c 0
EndSplineSet
Validated: 1
EndChar

StartChar: minus
Encoding: 8722 8722 205
Width: 924
VWidth: 0
Flags: W
HStem: 503 36<160.957 763.043>
VStem: 160 604<503 539>
LayerCount: 2
Fore
SplineSet
160 516 m 0
 160 530 180 539 194 539 c 2
 744 539 l 2
 756 539 764 534 764 526 c 0
 764 512 744 503 730 503 c 2
 180 503 l 2
 168 503 160 508 160 516 c 0
EndSplineSet
Validated: 1
EndChar

StartChar: tilde
Encoding: 732 732 206
Width: 2048
VWidth: 0
Flags: W
HStem: 1071.85 35.0694<546.205 625.409> 1194.54 36.7924<294 389.385>
VStem: 223.046 472.633
LayerCount: 2
Fore
SplineSet
243 1130 m 0
 231.266775156 1130 223.045503507 1135.61912511 223.045503507 1143.32538649 c 0
 223.045503507 1144.8141811 223.352349955 1146.38087489 224 1148 c 0
 236 1178 260 1206 298 1220 c 0
 318.616758738 1227.92952259 337.120839237 1231.33187753 354.002851299 1231.33187753 c 0
 443.571207893 1231.33187753 487.480188405 1135.55946735 559 1112 c 0
 569.206481142 1108.52051779 578.336802602 1106.92431503 586.528261922 1106.92431503 c 0
 613.650071207 1106.92431503 630.479482208 1124.42289538 642 1149 c 0
 646.090490361 1158.20360331 662.730064263 1164.0084965 676.41220866 1164.0084965 c 0
 686.917066891 1164.0084965 695.678567624 1160.5866046 695.678567624 1152.65379858 c 0
 695.678567624 1150.71159053 695.153377764 1148.49898516 694 1146 c 0
 676.345471546 1108.28350739 627.136322488 1071.85495848 569.627365098 1071.85495848 c 0
 555.472156217 1071.85495848 540.814107542 1074.06196415 526 1079 c 0
 462 1100 426 1164 369 1187 c 0
 356.317262488 1192.17662756 344.974398618 1194.53952046 334.867367989 1194.53952046 c 0
 305.925691637 1194.53952046 287.117529333 1175.16440764 276 1147 c 0
 272 1137 257 1130 243 1130 c 0
EndSplineSet
Validated: 1
EndChar

StartChar: Oslash
Encoding: 216 216 207
Width: 1261
VWidth: 0
Flags: W
HStem: -18 36<488.082 789.663> 1351 36<475.728 786.461>
VStem: 60 54<399.78 964> 1154 54<392.25 956.91>
LayerCount: 2
Fore
SplineSet
238 177 m 1
 338 58 506 18 640 18 c 0
 773 18 935 58 1030 171 c 0
 1124 283 1154 477 1154 677 c 0
 1154 854 1128 1039 1053 1157 c 1
 238 177 l 1
50 -17 m 0
 42 -15 37.1111111111 -9.88888888889 37.1111111111 -4.03703703704 c 0
 37.1111111111 -1.11111111111 38.3333333333 2 41 5 c 2
 178 170 l 1
 86 294 60 484 60 677 c 0
 60 869 87 1072 183 1198 c 0
 295 1344 487 1387 640 1387 c 0
 783 1387 951 1351 1061 1233 c 1
 1166 1359 l 2
 1174 1368 1191 1374 1203 1371 c 0
 1211 1369 1215.88888889 1363.44444444 1215.88888889 1357.2962963 c 0
 1215.88888889 1354.22222222 1214.66666667 1351 1212 1348 c 2
 1089 1200 l 1
 1181 1077 1208 875 1208 685 c 0
 1208 483 1182 285 1076 159 c 0
 965 26 774 -18 627 -18 c 0
 487 -18 314 24 206 138 c 1
 87 -5 l 2
 79 -14 62 -20 50 -17 c 0
627 1351 m 0
 486 1351 326 1314 230 1188 c 0
 144 1076 114 875 114 685 c 0
 114 504 137 329 213 212 c 1
 1028 1192 l 1
 927 1315 763 1351 627 1351 c 0
EndSplineSet
Validated: 1
EndChar

StartChar: oslash
Encoding: 248 248 208
Width: 963
VWidth: 0
Flags: W
HStem: -18 36<390.865 574.766> 896 36<379.987 563.353>
VStem: 70 54<295.285 618.393> 836 54<293.145 610.963>
LayerCount: 2
Fore
SplineSet
725 763 m 1
 654 847 558 896 470 896 c 0
 349 896 215 801 154 635 c 0
 135 582 124 523 124 459 c 0
 124 354 155 262 202 190 c 1
 725 763 l 1
890 459 m 0
 890 190 691 -18 471 -18 c 0
 364 -18 264 32 190 116 c 1
 68 -17 l 2
 61.5777948981 -24.2249807396 49.3555512755 -28.872166581 38.5761374335 -28.872166581 c 0
 35.9278719398 -28.872166581 33.3666923472 -28.5916730868 31 -28 c 0
 23.5182954042 -26.1295738511 19.5350847871 -21.1493752767 19.5350847871 -15.4829874692 c 0
 19.5350847871 -12.0609846808 20.9878030638 -8.38872155318 24 -5 c 2
 164 149 l 1
 106 229 70 333 70 450 c 0
 70 719 261 932 483 932 c 0
 587 932 686 883 761 802 c 1
 888 941 l 2
 894.422205102 948.22498074 906.644448725 952.872166581 917.423862566 952.872166581 c 0
 920.07212806 952.872166581 922.633307653 952.591673087 925 952 c 0
 932.481704596 950.129573851 936.464915213 945.149375277 936.464915213 939.482987469 c 0
 936.464915213 936.060984681 935.012196936 932.388721553 932 929 c 2
 788 771 l 1
 851 689 890 580 890 459 c 0
484 18 m 0
 607 18 745 112 806 279 c 0
 825 330 836 388 836 450 c 0
 836 560 802 656 750 730 c 1
 226 156 l 1
 296 69 393 18 484 18 c 0
EndSplineSet
Validated: 1
EndChar

StartChar: uni2126
Encoding: 8486 8486 210
Width: 1261
VWidth: 0
Flags: W
HStem: -18 36<88.1948 344 412.349 488.666 749.195 854.311 906 1169.8> 1355.2 36.6896<494.425 789.764>
VStem: 59.4991 53.9709<397.83 985.194> 1152.11 53.9928<398.581 999.977>
LayerCount: 2
Back
SplineSet
1144 0 m 1
 775 0 l 1
 886.278450163 10.591197372 990.492283869 72.6568554225 1057 162.5 c 0
 1113.99404223 239.49142707 1144.05503892 333.499506204 1159.40290352 428.053425976 c 0
 1174.75076812 522.607345748 1178.17795255 618.712083591 1179 714.5 c 0
 1179.75887911 802.927314892 1177.75705415 891.975190043 1160.24834868 978.655125145 c 0
 1142.73964321 1065.33506025 1107.03655174 1149.66192989 1048 1215.5 c 0
 996.182390348 1273.28744382 927.945671103 1315.31308169 854.425901023 1340.19875509 c 0
 780.906130944 1365.08442849 702.596715285 1374.28972351 625 1372.5 c 0
 554.600799978 1370.87628303 484.110983466 1360.11821427 417.621624551 1336.92664314 c 0
 351.132265635 1313.73507201 288.919964076 1277.16569246 239 1227.5 c 0
 169.002838654 1157.8593752 126.38780767 1064.1569371 106.351203477 967.472120757 c 0
 86.3145992848 870.787304415 84.9326733397 771.217502903 87 672.5 c 0
 88.8581508912 583.770908695 93.5831272545 494.771869193 109.742662825 407.506906128 c 0
 125.902198396 320.241943064 155.552210849 234.092833312 208 162.5 c 0
 269.583295475 78.436921669 363.31540874 17.7476234409 466 0 c 1
 113.711791992 0 l 1
  Spiro
    1144 0 {
    775 0 v
    1057 162.5 o
    1179 714.5 o
    1048 1215.5 o
    625 1372.5 o
    239 1227.5 o
    87 672.5 o
    208 162.5 o
    466 0 v
    113.712 0 v
    0 0 z
  EndSpiro
EndSplineSet
Fore
SplineSet
1170 -0 m 0
 1166 -10 1151 -18 1137 -18 c 2
 768 -18 l 2
 753 -18 744 -9 749 1 c 0
 753 10 768 17 778 18 c 0
 875 27 970 82 1033 167 c 0
 1132 301 1150 493 1152 710 c 0
 1152.071561 717.44234421 1152.10855541 724.834758895 1152.10855541 732.176648552 c 0
 1152.10855541 930.027236641 1125.24304739 1091.18631862 1024 1204 c 0
 937.980809819 1299.68426773 803.386483148 1355.20063413 636.468335948 1355.20063413 c 0
 630.684146967 1355.20063413 624.861142902 1355.13396898 619 1355 c 0
 466 1351 344 1304 260 1220 c 0
 146.461411135 1107.39205531 113.469989565 935.02330907 113.469989565 724.656560184 c 0
 113.469989565 708.979074942 113.653220855 693.090552322 114 677 c 0
 118 475 140 300 233 173 c 0
 293 91 383 33 478 17 c 0
 492 15 497 5 489 -5 c 0
 482 -13 467 -18 459 -18 c 2
 107 -18 l 2
 93 -18 84 -10 88 0 c 0
 92 10 106 18 120 18 c 2
 344 18 l 1
 281 49 224 96 183 152 c 0
 87 284 64 460 60 668 c 0
 59.6721812094 683.997556984 59.4991122484 699.767287829 59.4991122484 715.307501539 c 0
 59.4991122484 936.791737829 94.654416073 1111.65441607 218 1235 c 0
 313.75680494 1330.05271079 479.41415933 1391.89026687 652.840508954 1391.89026687 c 0
 725.725463927 1391.89026687 799.982596953 1380.96837353 871 1357 c 0
 948 1331 1019 1287 1072 1227 c 0
 1177.35289063 1109.08208572 1206.10137184 945.38836581 1206.10137184 740.433550485 c 0
 1206.10137184 733.338418846 1206.06691944 726.193839584 1206 719 c 0
 1204 493 1187 301 1081 158 c 0
 1037 99 978 50 906 18 c 1
 1151 18 l 2
 1165 18 1174 10 1170 -0 c 0
EndSplineSet
Validated: 1
EndChar

StartChar: ccedilla
Encoding: 231 231 211
Width: 2048
VWidth: 0
Flags: W
HStem: -336 36<483.52 598.726> -131 36<557.308 604.971> -18 35<592 715.67> 897 36<488.117 703.65>
VStem: 205 54<290.481 626.779> 635.536 52.9064<-274.58 -152.333>
LayerCount: 2
Back
SplineSet
444 -282.799987793 m 4
 468.536768069 -303.86496062 497.890465407 -318.118008435 538.467578748 -318.118008435 c 4
 614.351776833 -318.118008435 689.958564239 -249.460584528 652 -166.799987793 c 4
 638.433717278 -137.257326005 609.960344443 -113.336316618 569.78143101 -113.336316618 c 4
 550.616394463 -113.336316618 531.420990607 -119.390269049 516 -130.799987793 c 5
 573.5 0 l 5
  Spiro
    444 -282.8 {
    508 -314.8 o
    652 -166.8 o
    516 -130.8 v
    573.5 0 v
    0 0 z
  EndSpiro
882 109.200195312 m 4
 798 41.2001953125 726 0 573.5 0 c 4
 396.307617188 0 231.5 187.583984375 231.5 454.200195312 c 4
 231.5 720.81640625 396.307617188 914.400390625 573.5 914.400390625 c 4
 718.357379171 914.161217278 815.733398438 874.16015625 883.733398438 784.16015625 c 5
 883.733398438 784.16015625 827.002929688 726.8203125 790.733398438 690.16015625 c 28
  Spiro
    882 109.2 {
    798.66 50.7154 o
    702.483 13.1742 o
    573.5 0 o
    406.233 58.3946 o
    280.698 218.15 o
    231.5 454.2 o
    280.698 691.803 o
    406.233 854.453 o
    573.5 914.4 v
    703.086 900.556 o
    805.36 857.815 o
    883.733 784.16 v
    867.711 767.966 o
    830.923 730.782 o
    790.733 690.16 o
    0 0 z
  EndSpiro
EndSplineSet
Fore
SplineSet
205 450 m 0
 205 708 364 933 580 933 c 0
 733 933 837 888 908 795 c 0
 909.468027353 793.164965809 910.12789059 790.925849561 910.12789059 788.579253011 c 0
 910.12789059 784.531972647 908.164965809 780.164965809 905 777 c 2
 812 683 l 2
 803 674 786 670 774 674 c 0
 762 678 760 688 769 697 c 2
 853 781 l 1
 788 862 700 897 567 897 c 0
 464 897 349 811 292 655 c 0
 271 597 259 531 259 459 c 0
 259 195 425 18 579 17 c 0
 580 17 580 17 581 17 c 0
 723 17 782 52 863 118 c 0
 873 126 891 130 901 125 c 0
 906 122.5 908.5 118.25 908.5 113.625 c 0
 908.5 109 906 104 901 100 c 0
 819 33 738 -13 592 -18 c 1
 557 -97 l 1
 562 -96 570 -95 576 -95 c 0
 632 -95 663 -126 678 -158 c 0
 685.121650283 -173.521545489 688.441958742 -189.309851808 688.441958742 -204.749926933 c 0
 688.441958742 -273.863699012 621.913294073 -336 532 -336 c 0
 482 -336 447 -318 421 -296 c 0
 417.947256063 -293.26859753 416.624122795 -290.356489468 416.624122795 -287.454471328 c 0
 416.624122795 -276.288993014 436.210675633 -265.272877431 452.232873058 -265.272877431 c 0
 457.96474252 -265.272877431 463.240439139 -266.682740417 467 -270 c 0
 490 -290 514 -300 545 -300 c 0
 591.843737463 -300 635.535599402 -265.329369241 635.535599402 -216.508347762 c 0
 635.535599402 -203.838966824 632.593227139 -190.216646018 626 -176 c 0
 613 -149 588 -131 563 -131 c 0
 546.2 -131 526.2 -148.92 508.12 -148.92 c 0
 503.6 -148.92 499.2 -147.8 495 -145 c 0
 489 -141 488 -134 490 -130 c 2
 540 -17 l 1
 352 0 205 194 205 450 c 0
EndSplineSet
Validated: 1
EndChar

StartChar: cedilla
Encoding: 184 184 212
AltUni2: 000327.ffffffff.0
Width: 507
VWidth: 0
Flags: W
HStem: -336 36<172.225 287.43> -131 36<246.012 293.675>
VStem: 324.239 52.9072<-274.58 -152.333>
LayerCount: 2
Fore
SplineSet
109.704101562 -296 m 0
 106.651367188 -293.268554688 105.328125 -290.356445312 105.328125 -287.454101562 c 0
 105.328125 -276.2890625 124.915039062 -265.272460938 140.936523438 -265.272460938 c 0
 146.668945312 -265.272460938 151.944335938 -266.682617188 155.704101562 -270 c 0
 178.704101562 -290 202.704101562 -300 233.704101562 -300 c 0
 280.547851562 -300 324.239257812 -265.329101562 324.239257812 -216.508789062 c 0
 324.239257812 -203.838867188 321.296875 -190.216796875 314.704101562 -176 c 0
 301.704101562 -149 276.704101562 -131 251.704101562 -131 c 0
 234.904296875 -131 214.904296875 -148.919921875 196.82421875 -148.919921875 c 0
 192.303710938 -148.919921875 187.904296875 -147.799804688 183.704101562 -145 c 0
 177.704101562 -141 176.704101562 -134 178.704101562 -130 c 2
 236.704101562 1 l 2
 240.883789062 10.4052734375 257.622070312 16.5341796875 271.084960938 16.5341796875 c 0
 281.022460938 16.5341796875 289.17578125 13.1943359375 289.17578125 5.3671875 c 0
 289.17578125 3.5048828125 288.713867188 1.38671875 287.704101562 -1 c 2
 245.704101562 -97 l 1
 250.704101562 -96 258.704101562 -95 264.704101562 -95 c 0
 320.704101562 -95 351.704101562 -126 366.704101562 -158 c 0
 373.826171875 -173.521484375 377.146484375 -189.309570312 377.146484375 -204.75 c 0
 377.146484375 -273.86328125 310.6171875 -336 220.704101562 -336 c 0
 170.704101562 -336 135.704101562 -318 109.704101562 -296 c 0
EndSplineSet
Validated: 1
EndChar

StartChar: Ccedilla
Encoding: 199 199 213
Width: 1127
VWidth: 0
HStem: -360 36<545.668 660.726> -155 36<620.297 667.605> -18 36<487.581 614 663 792.792> 1351 36<475.728 771.796>
VStem: 60 54<400.756 964> 697.536 52.9064<-298.58 -175.866> 1002 54<1013.16 1227.86 1269 1345.84>
LayerCount: 2
Fore
SplineSet
484 -320 m 0
 480.896465287 -317.223153151 479.553892427 -314.259537621 479.553892427 -311.309631469 c 0
 479.553892427 -300.193924717 498.617084616 -289.272877431 514.357963977 -289.272877431 c 0
 520.013650125 -289.272877431 525.240439139 -290.682740417 529 -294 c 0
 552 -314 576 -324 607 -324 c 0
 653.843737463 -324 697.535599402 -289.329369241 697.535599402 -240.508347762 c 0
 697.535599402 -227.838966824 694.593227139 -214.216646018 688 -200 c 0
 675 -173 651 -155 626 -155 c 0
 609.2 -155 588.56 -172.92 570.224 -172.92 c 0
 565.64 -172.92 561.2 -171.8 557 -169 c 0
 551 -165 551 -158 553 -154 c 2
 610 -23 l 2
 611 -21 612 -20 614 -18 c 1
 469 -15 295 31 191 154 c 0
 88 277 60 475 60 677 c 0
 60 869 87 1072 183 1198 c 0
 295 1344 487 1387 640 1387 c 0
 774 1387 895 1352 1002 1269 c 1
 1002 1325 l 2
 1002 1337.3169856 1022.48059814 1346.97907886 1038.21587117 1346.97907886 c 0
 1048.03112412 1346.97907886 1056 1343.21961728 1056 1334 c 2
 1056 1034 l 2
 1056 1021.6830144 1035.51940186 1012.02092114 1019.78412883 1012.02092114 c 0
 1009.96887588 1012.02092114 1002 1015.78038272 1002 1025 c 2
 1002 1204 l 1
 889 1311 764 1351 627 1351 c 0
 486 1351 326 1314 230 1188 c 0
 144 1076 114 875 114 685 c 0
 114 485 142 291 239 176 c 1
 338 57 507 18 640 18 c 0
 774 18 899 47 1013 146 c 0
 1024 156 1060 162 1060 142 c 0
 1060 138 1058 133 1053 129 c 0
 934 26 798 -12 663 -17 c 1
 664 -19 663 -22 662 -25 c 2
 620 -121 l 1
 625 -120 633 -119 639 -119 c 0
 695 -119 725 -150 740 -182 c 0
 747.121650283 -197.521545489 750.441958742 -213.309851808 750.441958742 -228.749926933 c 0
 750.441958742 -297.863699012 683.913294073 -360 594 -360 c 0
 544 -360 510 -342 484 -320 c 0
EndSplineSet
Validated: 1
EndChar

StartChar: yen
Encoding: 165 165 214
Width: 1445
VWidth: 0
Flags: W
HStem: -18 36<533.195 682 736 884.804> 343 36<410.957 682 736 1013.04> 543 36<410.957 682 736 1013.04> 1350 36<67.9567 222 287 419.804 1004.19 1148 1202 1356.23>
VStem: 682 54<18 343 379 543 579 686>
LayerCount: 2
Fore
SplineSet
410 556 m 0
 410 570 429 579 444 579 c 2
 682 579 l 1
 682 686 l 1
 222 1350 l 1
 87 1350 l 2
 75 1350 67 1355 67 1363 c 0
 67 1377 86 1386 100 1386 c 2
 400 1386 l 2
 414 1386 424 1378 420 1368 c 0
 416 1358 401 1350 387 1350 c 2
 287 1350 l 1
 712 736 l 1
 1148 1350 l 1
 1023 1350 l 2
 1009 1350 1000 1358 1004 1368 c 0
 1008 1378 1022 1386 1036 1386 c 2
 1336 1386 l 2
 1348 1386 1357 1380 1357 1372 c 0
 1357 1359 1337 1350 1323 1350 c 2
 1202 1350 l 1
 736 694 l 1
 736 579 l 1
 994 579 l 2
 1006 579 1014 574 1014 566 c 0
 1014 552 995 543 980 543 c 2
 736 543 l 1
 736 379 l 1
 994 379 l 2
 1006 379 1014 374 1014 366 c 0
 1014 352 995 343 980 343 c 2
 736 343 l 1
 736 18 l 1
 865 18 l 2
 879 18 889 10 885 0 c 0
 881 -10 866 -18 852 -18 c 2
 552 -18 l 2
 538 -18 529 -10 533 0 c 0
 537 10 551 18 565 18 c 2
 682 18 l 1
 682 343 l 1
 430 343 l 2
 418 343 410 348 410 356 c 0
 410 370 429 379 444 379 c 2
 682 379 l 1
 682 543 l 1
 430 543 l 2
 418 543 410 548 410 556 c 0
EndSplineSet
Validated: 1
EndChar

StartChar: pi
Encoding: 960 960 215
Width: 1094
VWidth: 0
Flags: W
HStem: -18.578 81.578<925.188 981.98> -18.578 36.6162<865.52 938.799> 896 36<141.423 347 400 735 789 989.804>
VStem: 733.091 54.1202<344.172 896>
LayerCount: 2
Back
SplineSet
1020 45.2001953125 m 17
 992 -22.799987793 892.71263138 -7.89947612924 880 45.2001953125 c 24
 800.868164062 375.727539062 792 665.200195312 812 914 c 0
52 801.200195312 m 17
 84.19140625 836.517356753 104 914 198 914 c 1
 453.333333333 914 708.666666667 914 964 914 c 1
316 914 m 1
 249 0 l 9
1020 45.2001953125 m 17
 992 -22.799987793 899.897886941 -5.64474671159 880 45.2001953125 c 24
 753.2890625 368.983398438 1036.85991659 914.008376158 680 914 c 0
52 801.200195312 m 17
 84.19140625 836.517356753 104 914 198 914 c 1
 453.333333333 914 708.666666667 914 964 914 c 1
338.12109375 913.298828125 m 1
 249 0 l 9
EndSplineSet
Fore
SplineSet
37 784 m 0x70
 29.5182954042 785.870426149 25.5350847871 790.850624723 25.5350847871 796.517012531 c 0
 25.5350847871 799.939015319 26.9878030638 803.611278447 30 807 c 0
 50 829 84 932 205 932 c 2
 971 932 l 2
 985 932 994 924 990 914 c 0
 986 904 971 896 957 896 c 2
 789 896 l 1
 788.105572809 843.228795731 787.211145618 787.807591462 787.211145618 729.99353501 c 0
 787.211145618 529.255270901 797.994116629 299.669431518 857 52 c 0
 862.898349438 27.5639808983 889.38701024 18.0381872667 907.7490126 18.0381872667 c 0x70
 911.178533083 18.0381872667 914.324562922 18.3704853933 917 19 c 0
 924 21 936 26 944 46 c 0
 948 56 963 63 977 63 c 0xb0
 988.733224844 63 996.954496493 57.3808748884 996.954496493 49.6746135059 c 0
 996.954496493 48.1858189007 996.647650045 46.6191251116 996 45 c 0
 984 17 959 -5 925 -14 c 0
 913.450610849 -17.1320377359 902.131135613 -18.5780400941 891.319112471 -18.5780400941 c 0
 846.897966392 -18.5780400941 811.042476415 5.83009433972 803 38 c 0
 743.856845114 288.398292113 733.090962471 519.917648717 733.090962471 721.682487276 c 0
 733.090962471 782.600500167 734.072371682 840.806115101 735 896 c 1
 400 896 l 1
 276 3 l 2
 274.212028939 -8.32381671919 254.308628295 -17.1612019269 239.153231374 -17.1612019269 c 0
 228.8796984 -17.1612019269 220.787971061 -13.100241159 222 -3 c 2
 347 896 l 1
 191 896 l 2
 124 896 118 844 74 795 c 0
 66 786 49 781 37 784 c 0x70
EndSplineSet
Validated: 1
EndChar

StartChar: caron
Encoding: 711 711 216
Width: 815
VWidth: 0
Flags: W
HStem: 1126 191
VStem: 264 355<1299 1307>
LayerCount: 2
Fore
SplineSet
598 1317 m 0
 609 1317 619 1311 619 1303 c 0
 619 1299 618 1296 614 1292 c 2
 461 1137 l 2
 454 1130 442 1126 432 1126 c 0
 425 1126 419 1129 416 1132 c 2
 268 1287 l 2
 266 1289 264 1292 264 1295 c 0
 264 1307 283 1317 298 1317 c 0
 305 1317 312 1315 316 1311 c 2
 444 1177 l 1
 572 1306 l 2
 579 1313 588 1317 598 1317 c 0
EndSplineSet
Validated: 1
EndChar

StartChar: infinity
Encoding: 8734 8734 222
Width: 1332
VWidth: 0
Flags: W
HStem: 298.943 37.0575<248.173 408.998 829.189 1024.24> 763.006 36.0007<239.859 398.391 878.307 965.134>
VStem: 68.8416 54.0379<448.752 653.282> 1125.27 53.9568<436.583 638.629>
LayerCount: 2
Back
SplineSet
320 781.200012207 m 4
 261.619936705 780.695660429 203.796332926 756.316113807 162.80342402 714.746081567 c 4
 121.810515114 673.176049327 97.9004131999 615.551315455 96 557.200012207 c 4
 93.9706887227 494.890953454 117.149453919 431.833777667 160.168680447 386.713016859 c 4
 203.187906975 341.592256052 265.671598163 315.893401572 328 317.200012207 c 4
 393.109720349 318.56492853 455.434873615 348.460069199 504.314252963 391.494299238 c 4
 553.193632311 434.528529276 589.810546363 489.452227663 625.708836852 543.788692587 c 4
 661.607127346 598.125157516 698.315032557 653.005934179 747.335061536 695.879882449 c 4
 796.355090515 738.75383072 858.881548254 768.348000703 924 769.200012207 c 4
 985.852918308 770.009297387 1047.66693166 744.053146096 1089.9841369 698.934496002 c 4
 1132.30134214 653.815845908 1154.71836233 590.998466492 1152 529.200012207 c 4
 1149.43098228 470.796714635 1124.51821679 413.422901095 1082.69282768 372.579519197 c 4
 1040.86743857 331.736137298 982.456080329 308.54297956 924 309.200012207 c 4
 856.964665167 309.953473665 792.740994768 341.435580925 743.401478895 386.821878349 c 4
 694.061963023 432.208175773 658.241600537 490.046162638 623.066656837 547.116532849 c 4
 587.891713129 604.186903068 551.655242229 661.827076981 501.769425164 706.612220473 c 4
 451.883608099 751.397363964 387.037067492 781.779152798 320 781.200012207 c 4
  Spiro
    320 781.2 o
    96 557.2 o
    328 317.2 o
    924 769.2 o
    1152 529.2 o
    924 309.2 o
    0 0 z
  EndSpiro
EndSplineSet
Fore
SplineSet
596 540 m 1
 538.22191525 633.640344249 452.657683603 763.005734511 315.581733377 763.005734511 c 0
 315.055249262 763.005734511 314.528005251 763.003826125 314 763 c 0
 208 762 126 668 123 561 c 0
 122.91948134 558.624699519 122.879483021 556.246157411 122.879483021 553.865743985 c 0
 122.879483021 497.119157177 145.610373207 439.309108132 184 399 c 0
 225.579808377 355.508476295 275.611007585 336.00062927 326.233604081 336.00062927 c 0
 381.531791423 336.00062927 437.535666041 359.27844889 484 400 c 0
 527 438 562 489 596 540 c 1
629 588 m 1
 692 679 786 785 930 787 c 0
 931.217736314 787.017151216 932.433339937 787.025698129 933.646754111 787.025698129 c 0
 1070.32753957 787.025698129 1179.22835378 678.581560301 1179.22835378 543.715470314 c 0
 1179.22835378 540.16149454 1179.15273067 536.589170786 1179 533 c 0
 1173.05328791 401.181215302 1059.05178923 290.97338792 920.724414135 290.97338792 c 0
 919.484875988 290.97338792 918.243384528 290.982237364 917 291 c 0
 771 293 683 403 622 498 c 1
 559 407 465 302 322 299 c 0
 320.175746302 298.961994715 318.356307276 298.94308763 316.541863872 298.94308763 c 0
 178.16365528 298.94308763 68.8416018758 408.912810382 68.8416018758 544.077037545 c 0
 68.8416018758 547.039552613 68.894119538 550.01417097 69 553 c 0
 73 687 187 798 326 799 c 0
 326.652490571 799.00432113 327.303860813 799.006476289 327.954113145 799.006476289 c 0
 477.785885424 799.006476289 568.263588906 684.580850428 629 588 c 1
655 547 m 1
 712 454 797 329 931 327 c 0
 931.575790698 326.994668605 932.150813954 326.992009044 932.725062342 326.992009044 c 0
 1039.86152584 326.992009044 1120.02665698 419.565127907 1125 525 c 0
 1125.18153795 528.570246309 1125.27153138 532.147816179 1125.27153138 535.728056346 c 0
 1125.27153138 591.312969381 1103.57949403 647.541531271 1066 687 c 0
 1024.64657103 730.757698096 974.506766813 750.468474463 923.696962 750.468474463 c 0
 868.840965386 750.468474463 813.204009554 727.493401632 767 687 c 0
 724 649 689 599 655 547 c 1
EndSplineSet
Validated: 1
EndChar

StartChar: Lslash
Encoding: 321 321 223
Width: 1134
VWidth: 0
Flags: W
HStem: -18 36<72.9567 218 272 886> 1350 36<74.1948 218 272 413.804>
VStem: 218 54<18 866 949 1350>
LayerCount: 2
Fore
SplineSet
72 -5 m 0
 72 9 91 18 105 18 c 2
 218 18 l 1
 218 866 l 1
 87 776 l 2
 81.0831625676 771.773687548 73.4198461455 769.928937355 66.1349318264 769.928937355 c 0
 53.8813211474 769.928937355 42.6983241784 775.148292197 42.6983241784 783.032294532 c 0
 42.6983241784 787.096695948 45.6703864646 791.869270525 53 797 c 2
 218 911 l 1
 218 1350 l 1
 93 1350 l 2
 79 1350 70 1358 74 1368 c 0
 78 1378 92 1386 106 1386 c 2
 394 1386 l 2
 408 1386 418 1378 414 1368 c 0
 410 1358 395 1350 381 1350 c 2
 272 1350 l 1
 272 949 l 1
 500 1106 l 2
 505.916837432 1110.22631245 513.580153854 1112.07106264 520.865068174 1112.07106264 c 0
 533.118678853 1112.07106264 544.301675822 1106.8517078 544.301675822 1098.96770547 c 0
 544.301675822 1094.90330405 541.329613535 1090.13072947 534 1085 c 2
 272 904 l 1
 272 18 l 1
 886 18 l 1
 1050 219 l 2
 1059 229 1100 242 1100 218 c 0
 1100 215 1099 212 1096 209 c 2
 922 -5 l 2
 916 -13 903 -18 892 -18 c 2
 92 -18 l 2
 80 -18 72 -13 72 -5 c 0
EndSplineSet
Validated: 1
EndChar

StartChar: lslash
Encoding: 322 322 224
Width: 435
VWidth: 0
Flags: W
HStem: -18 36<67.1948 195 249 379.233> 1350 36<59.9567 194>
VStem: 194 54<18 894 981 1350>
LayerCount: 2
Fore
SplineSet
59 1363 m 0
 59 1377 78 1386 92 1386 c 2
 227 1386 l 2
 239 1386 248 1379 248 1372 c 2
 248 981 l 1
 369 1072 l 2
 380 1080 397 1083 407 1078 c 0
 411.880884817 1075.55955759 414.379465974 1071.45150262 414.379465974 1066.95488756 c 0
 414.379465974 1062.2387979 411.631026701 1057.09529215 406 1053 c 2
 248 934 l 1
 249 18 l 1
 359 18 l 2
 371 18 380 12 380 4 c 0
 380 -9 360 -18 346 -18 c 2
 86 -18 l 2
 72 -18 63 -10 67 0 c 0
 71 10 85 18 99 18 c 2
 195 18 l 1
 194 894 l 1
 67 798 l 2
 56 790 39 788 29 793 c 0
 24.119115183 795.440442409 21.6205340257 799.310267013 21.6205340257 803.562976334 c 0
 21.6205340257 808.0232555 24.3689732987 812.904707854 30 817 c 2
 194 941 l 1
 194 1350 l 1
 79 1350 l 2
 67 1350 59 1355 59 1363 c 0
EndSplineSet
Validated: 1
EndChar

StartChar: hyphen
Encoding: 45 45 225
Width: 564
VWidth: 0
Flags: W
HStem: 513 36<81.1955 482.804>
VStem: 81 402.954
LayerCount: 2
Fore
SplineSet
81 531 m 0
 85 541 100 549 114 549 c 2
 464 549 l 2
 475.733224844 549 483.954496493 543.380874888 483.954496493 535.674613506 c 0
 483.954496493 534.185818901 483.647650045 532.619125112 483 531 c 0
 479 521 464 513 450 513 c 2
 100 513 l 2
 88.2667751562 513 80.0455035072 518.619125112 80.0455035072 526.325386494 c 0
 80.0455035072 527.814181099 80.3523499554 529.380874888 81 531 c 0
EndSplineSet
Validated: 1
EndChar

StartChar: OE
Encoding: 338 338 226
Width: 1632
VWidth: 0
Flags: W
HStem: -18 36<614.922 807.889 849 1269> 719 36<1010 1326.8> 1351 36<614.169 804.08 862 1315>
VStem: 195 54<400.756 964> 949.462 60.5918<347.022 719 755 1056.68> 1315 54<1217.91 1350>
LayerCount: 2
Back
SplineSet
1301 737.200195312 m 29
 980 737.200195312 l 29
1342 1234 m 29
 1342 1368 l 21
 1242 1368 862.84765625 1369 769 1369 c 7
 622 1369 446 1329 342 1193 c 4
 251 1074 222 872 222 681 c 7
 222 480 250 284 350 165 c 4
 449.31640625 46.3984375 596.875 0 768 0 c 5
 1036 0 1064 1368 768 1368 c 5
768 0 m 31
 968.459960938 0 1081.54003906 0 1282 0 c 21
 1456 214 l 13
EndSplineSet
Fore
SplineSet
1327 737 m 0
 1323 727 1308 719 1294 719 c 2
 1010 719 l 1
 1010.03571998 713.695582707 1010.05357712 708.388932559 1010.05357712 703.081251615 c 0
 1010.05357712 411.206197313 956.053260993 116.214000911 849 18 c 1
 1269 18 l 1
 1433 219 l 2
 1441 228 1457 234 1470 231 c 0
 1478.46928832 229.04554885 1483.11869734 224.120080468 1483.11869734 218.43567411 c 0
 1483.11869734 215.394756699 1481.78813027 212.13664655 1479 209 c 2
 1305 -5 l 2
 1299 -12 1287 -18 1275 -18 c 2
 761 -18 l 2
 582 -18 428 32 326 154 c 0
 223 277 195 475 195 677 c 0
 195 869 223 1072 319 1198 c 0
 431 1344 623 1387 776 1387 c 0
 786 1387 797 1387 812 1387 c 0
 943 1387 1259 1386 1349 1386 c 0
 1360 1386 1369 1380 1369 1372 c 2
 1369 1238 l 2
 1369 1226.35483871 1348.71488033 1216.9635796 1333.01027156 1216.9635796 c 0
 1323.09157128 1216.9635796 1315 1220.70967742 1315 1230 c 2
 1315 1350 l 1
 1220 1350 1001 1351 862 1351 c 1
 955 1266 1003 1017 1009 755 c 1
 1308 755 l 2
 1322 755 1331 747 1327 737 c 0
753 1351 m 0
 615 1349 459 1311 365 1188 c 0
 279 1076 249 875 249 685 c 0
 249 485 277 291 374 176 c 0
 470 61 611 18 775 18 c 0
 798 18 841 54 877 153 c 0
 926.096834499 288.016294874 949.461756501 488.192432685 949.461756501 686.37792218 c 0
 949.461756501 1021.02687874 882.842531114 1350 761 1350 c 0
 759 1350 756 1350 753 1351 c 0
EndSplineSet
Validated: 1
EndChar

StartChar: guilsinglleft
Encoding: 8249 8249 227
Width: 632
VWidth: 0
Flags: W
HStem: 291.736 479.658<400.363 414.006>
VStem: 161.75 274.165
LayerCount: 2
Back
SplineSet
404 753.200012207 m 29
 188 525.200012207 l 29
 408 309.200012207 l 29
EndSplineSet
Fore
SplineSet
420 770 m 0
 432 766 435 756 426 747 c 2
 220 529 l 1
 432 322 l 2
 434.725997643 319.42544667 435.91532482 316.69034568 435.91532482 313.957948375 c 0
 435.91532482 302.824510097 416.16963739 291.735959489 400.175417721 291.735959489 c 0
 394.175599129 291.735959489 388.703680151 293.296319849 385 297 c 2
 165 513 l 2
 163 515 161.75 518 161.75 521.375 c 0
 161.75 524.75 163 528.5 166 532 c 2
 382 760 l 2
 388.858449417 766.858449417 400.362659663 771.394018418 410.759640413 771.394018418 c 0
 414.006097278 771.394018418 417.144599222 770.951800259 420 770 c 0
EndSplineSet
Validated: 1
EndChar

StartChar: guillemotleft
Encoding: 171 171 228
Width: 816
VWidth: 0
Flags: W
HStem: 291.736 479.658<400.363 414.006 600.363 614.006>
VStem: 165 467
LayerCount: 2
Back
SplineSet
604 753.200195312 m 25
 388 525.200195312 l 25
 608 309.200195312 l 25
404 753.200012207 m 25
 188 525.200012207 l 25
 408 309.200012207 l 25
EndSplineSet
Fore
SplineSet
420 770 m 0
 432 766 435 756 426 747 c 2
 220 529 l 1
 431 322 l 2
 433.771322567 319.382639798 434.978154088 316.599348727 434.978154088 313.821657376 c 0
 434.978154088 302.734198416 415.749772924 291.735959489 400.039475521 291.735959489 c 0
 394.122016134 291.735959489 388.703680151 293.296319849 385 297 c 2
 165 513 l 2
 163 515 161.75 518 161.75 521.375 c 0
 161.75 524.75 163 528.5 166 532 c 2
 382 760 l 2
 388.858449417 766.858449417 400.362659663 771.394018418 410.759640413 771.394018418 c 0
 414.006097278 771.394018418 417.144599222 770.951800259 420 770 c 0
620 770 m 0
 632 766 635 756 626 747 c 2
 420 529 l 1
 632 322 l 2
 634.725997643 319.42544667 635.91532482 316.69034568 635.91532482 313.957948375 c 0
 635.91532482 302.824510097 616.16963739 291.735959489 600.175417721 291.735959489 c 0
 594.175599129 291.735959489 588.703680151 293.296319849 585 297 c 2
 365 513 l 2
 363 515 361.75 518 361.75 521.375 c 0
 361.75 524.75 363 528.5 366 532 c 2
 582 760 l 2
 588.858449417 766.858449417 600.362659663 771.394018418 610.759640413 771.394018418 c 0
 614.006097278 771.394018418 617.144599222 770.951800259 620 770 c 0
EndSplineSet
Validated: 1
EndChar

StartChar: guilsinglright
Encoding: 8250 8250 229
Width: 632
VWidth: 0
Flags: W
HStem: 291.449 479.505<209.63 217.388>
VStem: 194 264
LayerCount: 2
Back
SplineSet
218 753.200195312 m 29
 434 525.200195312 l 29
 214 309.200195312 l 29
EndSplineSet
Fore
SplineSet
194 741 m 2
 191.54462712 743.599806578 190.466086402 746.303918624 190.466086402 748.976749116 c 0
 190.466086402 760.243300555 209.629625588 770.954040565 225.615861084 770.954040565 c 0
 232.094901501 770.954040565 238.052041441 769.194705969 242 765 c 2
 458 537 l 2
 459.948413509 535.051586491 460.833858761 532.647615159 460.833858761 530.083957675 c 0
 460.833858761 526.068781989 458.66190379 521.66190379 455 518 c 2
 235 302 l 2
 228.366692347 295.366692347 217.387629592 291.449481634 207.267638088 291.449481634 c 0
 203.656934695 291.449481634 200.155589796 291.948136735 197 293 c 0
 190.283678107 295.238773964 187.013181058 299.670345556 187.013181058 304.716764628 c 0
 187.013181058 308.686743196 189.03724142 313.03724142 193 317 c 2
 402 522 l 1
 194 741 l 2
EndSplineSet
Validated: 1
EndChar

StartChar: guillemotright
Encoding: 187 187 230
Width: 856
VWidth: 0
Flags: W
HStem: 291.449 479.505<209.63 217.388 419.63 427.388>
VStem: 187.013 483.821
LayerCount: 2
Fore
SplineSet
194 741 m 2
 191.54462712 743.599806578 190.466086402 746.303918624 190.466086402 748.976749116 c 0
 190.466086402 760.243300555 209.629625588 770.954040565 225.615861084 770.954040565 c 0
 232.094901501 770.954040565 238.052041441 769.194705969 242 765 c 2
 458 537 l 2
 463 532 461 524 455 518 c 2
 235 302 l 2
 228.366692347 295.366692347 217.387629592 291.449481634 207.267638088 291.449481634 c 0
 203.656934695 291.449481634 200.155589796 291.948136735 197 293 c 0
 190.283678107 295.238773964 187.013181058 299.670345556 187.013181058 304.716764628 c 0
 187.013181058 308.686743196 189.03724142 313.03724142 193 317 c 2
 402 522 l 1
 194 741 l 2
404 741 m 2
 401.54462712 743.599806578 400.466086402 746.303918624 400.466086402 748.976749116 c 0
 400.466086402 760.243300555 419.629625588 770.954040565 435.615861084 770.954040565 c 0
 442.094901501 770.954040565 448.052041441 769.194705969 452 765 c 2
 668 537 l 2
 669.948413509 535.051586491 670.833858761 532.647615159 670.833858761 530.083957675 c 0
 670.833858761 526.068781989 668.66190379 521.66190379 665 518 c 2
 445 302 l 2
 438.366692347 295.366692347 427.387629592 291.449481634 417.267638088 291.449481634 c 0
 413.656934695 291.449481634 410.155589796 291.948136735 407 293 c 0
 400.283678107 295.238773964 397.013181058 299.670345556 397.013181058 304.716764628 c 0
 397.013181058 308.686743196 399.03724142 313.03724142 403 317 c 2
 612 522 l 1
 404 741 l 2
EndSplineSet
Validated: 1
EndChar

StartChar: oe
Encoding: 339 339 231
Width: 2048
VWidth: 0
Flags: W
HStem: -18 36<541.126 701.346 1054.36 1255.58> 512 36<911 1449> 896 36<527.954 695.465 1040.9 1223.99>
VStem: 217 54<297.503 618.393> 856.235 53.7648<247.378 512 548 672.94>
LayerCount: 2
Back
SplineSet
882 530 m 29
 1477 531 l 21
 1473 753 1357 912 1113 914 c 5
 944.954425635 914 876 721.200012207 884 473.200195312 c 5
 888 225.200012207 815.788085938 0 624.419921875 0 c 4
 433.051757812 0 244.259765625 187.583984375 244.259765625 454.200195312 c 4
 244.259765625 720.81640625 432.916992188 914 624.28515625 914 c 5
 805.583923441 914 876 721.200012207 884 473.200195312 c 4
 891.99689269 225.296704963 937 0 1114 0 c 4
 1266 0 1338 41 1422 109 c 5
EndSplineSet
Fore
SplineSet
911 548 m 1
 1449 549 l 1
 1438 757 1323 894 1106 896 c 0
 1098 896 1090 895 1083 894 c 0
 983 879 917 739 911 548 c 1
631 18 m 0
 797.535539906 18 856.235181081 240.860857378 856.235181081 447.769793473 c 0
 856.235181081 496.801666527 852.938826519 544.93773873 847 589 c 0
 821 777 745 896 618 896 c 0
 497 896 363 801 302 635 c 0
 283 582 271 523 271 459 c 0
 271 195 461 18 631 18 c 0
879 709 m 1
 910 830 980 932 1120 932 c 1
 1383 930 1500 760 1504 536 c 0
 1504 523 1486 513 1471 513 c 2
 910 512 l 1
 910 457 914 404 919 353 c 0
 939 157 1001 18 1121 18 c 0
 1263 18 1322 52 1403 118 c 0
 1413 126 1431 129 1441 124 c 0
 1451 119 1451 108 1441 100 c 0
 1354 30 1269 -18 1107 -18 c 0
 970 -18 913 90 883 225 c 1
 848 97 769 -18 618 -18 c 0
 405 -18 217 181 217 450 c 0
 217 719 409 932 631 932 c 0
 770 932 842 838 879 709 c 1
EndSplineSet
Validated: 1
EndChar

StartChar: lozenge
Encoding: 9674 9674 232
Width: 860
VWidth: 0
Flags: W
LayerCount: 2
Back
SplineSet
422 106 m 29
 97 531 l 29
 422 956 l 29
 747 531 l 29
 422 106 l 29
EndSplineSet
Fore
SplineSet
425 145 m 1
 717 527 l 1
 419 917 l 1
 127 535 l 1
 425 145 l 1
445 101 m 2
 439.384226894 93.5123025255 426.370907567 87.581983203 414.705924359 87.581983203 c 0
 407.676268931 87.581983203 401.136277315 89.7356470536 397 95 c 2
 72 520 l 2
 70.6186146828 521.726731646 70.0720779758 523.57272738 70.0720779758 525.455612371 c 0
 70.0720779758 529.024891864 72.0360389879 532.726731646 74 536 c 2
 399 961 l 2
 404.590692638 968.454256851 417.898877664 973.979140604 429.576227372 973.979140604 c 0
 436.697290343 973.979140604 443.211880709 971.924555078 447 967 c 2
 772 542 l 2
 773.381385317 540.273268354 773.927922024 538.42727262 773.927922024 536.544387629 c 0
 773.927922024 532.975108136 771.963961012 529.273268354 770 526 c 2
 445 101 l 2
EndSplineSet
Validated: 1
EndChar

StartChar: uni2206
Encoding: 8710 8710 233
Width: 860
VWidth: 0
Flags: W
HStem: -17 36<129 712>
LayerCount: 2
Back
SplineSet
747 1 m 29
 422 956 l 25
 97 1 l 25
 747 1 l 29
EndSplineSet
Fore
SplineSet
712 19 m 1
 421 875 l 1
 129 19 l 1
 712 19 l 1
773 9 m 2
 773.475498409 7.57350477287 773.697766233 6.18318534366 773.697766233 4.8350622494 c 0
 773.697766233 -7.99270955551 753.573504773 -17 740 -17 c 2
 90 -17 l 2
 79.4597413203 -17 70.4624972662 -10.8279414981 70.4624972662 -2.54976781905 c 0
 70.4624972662 -1.40330713498 70.6350646699 -0.216451100281 71 1 c 2
 396 956 l 2
 399.20844474 964.983645271 416.828654185 973.967290542 430.893337795 973.967290542 c 0
 438.746880539 973.967290542 445.491822635 971.166221042 448 964 c 2
 773 9 l 2
EndSplineSet
Validated: 1
EndChar

